<svg xmlns="http://www.w3.org/2000/svg" xmlns:xlink="http://www.w3.org/1999/xlink" width="86" height="86" viewBox="0 0 86 86">
  <defs>
    <clipPath id="clip-path">
      <rect id="Rectángulo_349183" data-name="Rectángulo 349183" width="45.458" height="49.254" fill="#12263f"/>
    </clipPath>
  </defs>
  <g id="Grupo_1011141" data-name="Grupo 1011141" transform="translate(-1125 -1426)">
    <circle id="Elipse_8398" data-name="Elipse 8398" cx="43" cy="43" r="43" transform="translate(1125 1426)" fill="#12263f"/>
    <circle id="Elipse_8404" data-name="Elipse 8404" cx="37" cy="37" r="37" transform="translate(1131 1432)" fill="#fff"/>
    <g id="Grupo_1009672" data-name="Grupo 1009672" transform="translate(1142.925 1443)">
      <g id="Grupo_1009671" data-name="Grupo 1009671" clip-path="url(#clip-path)">
        <path id="Trazado_720454" data-name="Trazado 720454" d="M30.073,46.135a8.964,8.964,0,0,0-3.3.529,39.189,39.189,0,0,1-9.438,2.389A30.046,30.046,0,0,1,1.023,46.371a3.413,3.413,0,0,1-.7-.352A.779.779,0,0,1,0,45.5a44.05,44.05,0,0,1,.421-4.452,3.659,3.659,0,0,1,2.042-2.581,12.387,12.387,0,0,1,5.121-1.346c1.352-.085,2.717-.1,4.053-.3,3.024-.457,5.152-2.3,6.846-4.713a12.918,12.918,0,0,0,2.262-7.62c-.007-2.91-.171-5.824-.362-8.73-.215-3.269-.534-6.531-.826-9.795-.015-.169-.207-.32-.31-.483-.133-.209-.35-.411-.376-.634-.156-1.346-.263-2.7-.4-4.046-.055-.549.193-.793.722-.8.324,0,.648,0,.971,0H44.4c1.062,0,1.151.09,1.011,1.152-.159,1.2-.324,2.4-.532,3.6a2.573,2.573,0,0,1-.426.738,1.47,1.47,0,0,0-.222.407A126.4,126.4,0,0,0,41.9,21.789a24.666,24.666,0,0,0,1.5,9.826,23.265,23.265,0,0,1,1.507,8.31q-.093,2.851-.219,5.7c-.052,1.133-.344,1.465-1.411,1.841a24.145,24.145,0,0,1-11.686.789,1.442,1.442,0,0,1-1.354-1.339c-.051-.237-.1-.474-.164-.784m-28.826-3.8c1.037.318,2.068.66,3.113.95a34.445,34.445,0,0,0,20.317-.09,17.094,17.094,0,0,1,7.48-.677A25.254,25.254,0,0,0,43.332,41.2c.32-.108.473-.265.46-.6a23.261,23.261,0,0,0-.167-3.565A58.062,58.062,0,0,0,42.1,31.125a25.246,25.246,0,0,1-1.291-9.074A109.832,109.832,0,0,1,42.577,8.715c.194-1.044.395-2.087.6-3.154H20.651c.158,1.684.34,3.331.462,4.981.245,3.329.48,6.659.675,9.991a24.474,24.474,0,0,1-.44,7.783,12.716,12.716,0,0,1-7.639,9.056,13.347,13.347,0,0,1-3.972.7c-2.159.168-4.323.191-6.347,1.125a3.547,3.547,0,0,0-2.143,3.14m42.505-.113c-.29.083-.483.132-.673.193A25.713,25.713,0,0,1,32.127,43.6a16.281,16.281,0,0,0-7.063.6,34.828,34.828,0,0,1-19.616.469c-1.446-.36-2.876-.79-4.386-1.208a10.23,10.23,0,0,1-.009,1.168.683.683,0,0,0,.526.81c1.21.455,2.392.991,3.621,1.384A30.158,30.158,0,0,0,24.554,46.3a15.974,15.974,0,0,1,4.968-1.259c1.511-.015,1.518-.149,1.715,1.382.005.04.023.079.026.119a.65.65,0,0,0,.694.672c1.129.084,2.253.237,3.383.29a20,20,0,0,0,7.352-.981c.425-.142.842-.321.88-.809.089-1.142.121-2.288.179-3.494M19.911,4.4H43.833l.478-3.279H19.61l.3,3.279" transform="translate(0)" fill="#12263f"/>
      </g>
    </g>
  </g>
</svg>
