<svg xmlns="http://www.w3.org/2000/svg" xmlns:xlink="http://www.w3.org/1999/xlink" width="111" height="111" viewBox="0 0 111 111">
  <defs>
    <clipPath id="clip-path">
      <rect id="Rectángulo_349191" data-name="Rectángulo 349191" width="69.321" height="69.336" fill="none"/>
    </clipPath>
  </defs>
  <g id="Grupo_1011135" data-name="Grupo 1011135" transform="translate(-331 -1986)">
    <circle id="Elipse_5447" data-name="Elipse 5447" cx="55.5" cy="55.5" r="55.5" transform="translate(331 1986)" fill="#fff"/>
    <g id="Grupo_1009677" data-name="Grupo 1009677" transform="translate(351.84 2003.936)">
      <g id="Grupo_1009677-2" data-name="Grupo 1009677" clip-path="url(#clip-path)">
        <path id="Trazado_720457" data-name="Trazado 720457" d="M69.3,261.548h-2.27V241.984c-.256-.018-.463-.044-.669-.044q-4.224,0-8.448,0a3.377,3.377,0,0,0-3.606,3.617q-.007,7.33,0,14.66a5.615,5.615,0,0,1-6.015,5.988c-1.324,0-2.648-.03-3.971.009a5.4,5.4,0,0,1-3.694-1.14,5.936,5.936,0,0,1-4.343,1.139q-1.84-.056-3.682,0a5.516,5.516,0,0,1-3.9-1.14,5.922,5.922,0,0,1-4.285,1.139c-1.226-.038-2.455,0-3.682-.009a5.579,5.579,0,0,1-5.709-5.712c-.014-4.911,0-9.822,0-14.732,0-2.5-1.331-3.819-3.838-3.82q-4.043,0-8.087,0H2.312v14.966H0v-.754q0-7.438,0-14.877c0-1.316.336-1.645,1.675-1.645q4.838,0,9.675,0a5.69,5.69,0,0,1,5.978,5.993c.005,2.287,0,4.574,0,6.861v.77l1.621-.791c-.23-.925-.464-1.873-.7-2.819-.347-1.389.075-1.925,1.523-1.926q2.96,0,5.921,0c1.427,0,1.832.513,1.5,1.882-.235.953-.465,1.907-.684,2.809l2.175,1.316,2.194-1.33c-.233-.949-.493-1.989-.743-3.031s.223-1.638,1.287-1.643q3.249-.015,6.5,0c1.056.005,1.516.619,1.266,1.657s-.5,2.046-.742,3.024l2.207,1.326,2.159-1.326c-.211-.875-.443-1.847-.681-2.817-.327-1.331.082-1.865,1.443-1.867q3.069,0,6.137,0c1.241,0,1.688.581,1.394,1.8-.226.934-.464,1.865-.693,2.8a.563.563,0,0,0,.021.168l1.515.751c.017-.225.045-.424.045-.624,0-2.359,0-4.718,0-7.077a5.682,5.682,0,0,1,5.919-5.905q4.982-.012,9.964,0c1.007,0,1.441.406,1.442,1.371q.008,10.074,0,20.149c0,.116-.014.233-.024.4m-34.6,2.347c.913,0,1.827.011,2.74,0a2.466,2.466,0,0,0,2.583-2.723c-.093-1.461-.249-2.921-.436-4.374a2.434,2.434,0,0,0-2.429-2.138q-2.487-.04-4.974,0a2.435,2.435,0,0,0-2.435,2.131c-.188,1.453-.343,2.912-.437,4.373a2.467,2.467,0,0,0,2.577,2.73c.937.014,1.874,0,2.812,0m11.527,0v0c.865,0,1.731.023,2.6,0a3.205,3.205,0,0,0,3.134-3.059c-.093-1.341-.242-2.68-.41-4.014a2.443,2.443,0,0,0-2.285-2.143c-1.777-.052-3.558-.067-5.333.009a1.977,1.977,0,0,0-1.964,2.414c.087.691.18,1.385.2,2.079a21.812,21.812,0,0,1-.018,3.431c-.075.593.037.864.519,1.028a4.409,4.409,0,0,0,1.182.251c.791.038,1.585.011,2.378.011m-23.205,0c.841,0,1.685.038,2.522-.015a4.7,4.7,0,0,0,1.305-.338c.34-.126.472-.347.351-.786a5.484,5.484,0,0,1-.187-1.776c.087-1.39.22-2.779.41-4.158a1.433,1.433,0,0,0-.646-1.553,3.753,3.753,0,0,0-1.65-.59c-1.606-.078-3.219-.042-4.829-.023a2.512,2.512,0,0,0-2.534,2.361c-.108,1.076-.2,2.153-.32,3.227a3.157,3.157,0,0,0,3.2,3.648c.793.015,1.586,0,2.379,0m-2.2-13.829c.229,2.274.229,2.274,2.368,2.274a1.966,1.966,0,0,0,.573-.013c.171-.054.4-.181.446-.325.191-.63.323-1.278.481-1.936Zm15.266,2.246.535-2.25H32.69l.563,2.25Zm9.122.027c.844,0,1.636.013,2.426-.011.151,0,.4-.128.43-.245.193-.654.335-1.324.5-2.021H44.626l.578,2.278" transform="translate(-0.001 -204.959)"/>
        <path id="Trazado_720458" data-name="Trazado 720458" d="M67.024,388.359v-8h2.253c.014.2.04.409.04.615q0,4.116,0,8.233c0,1.13-.386,1.515-1.518,1.515q-33.14,0-66.281,0c-1.134,0-1.518-.383-1.518-1.514q0-6.427,0-12.855v-.608H2.294v12.615Z" transform="translate(0 -321.386)"/>
        <path id="Trazado_720459" data-name="Trazado 720459" d="M212.336,60.706c-.927,0-1.552-.006-2.177,0a1.226,1.226,0,0,1-1.332-1.055c-.352-1.446-.718-2.889-1.087-4.33a1.229,1.229,0,0,1,.439-1.351q3.379-2.816,6.758-5.633a1.222,1.222,0,0,1,1.529-.123c2.6,1.494,5.216,2.973,7.817,4.473a1.162,1.162,0,0,1,.524,1.761c-.707,1.445-1.418,2.889-2.168,4.312a1.874,1.874,0,0,1-.744.737c-1.4.738-2.808,1.472-4.255,2.112a1.791,1.791,0,0,1-1.4,0,5.9,5.9,0,0,0-3.9-.9M210.9,58.4c.293,0,.554,0,.816,0,1.717.007,3.477-.236,5,.9a.543.543,0,0,0,.457-.013c1.1-.532,2.2-1.081,3.29-1.635a.728.728,0,0,0,.308-.289c.521-1.02,1.027-2.048,1.562-3.123-2.1-1.2-4.132-2.37-6.184-3.516a.626.626,0,0,0-.549.1q-2.594,2.126-5.152,4.3a.73.73,0,0,0-.2.592c.186.889.425,1.766.655,2.69" transform="translate(-177.642 -41.06)"/>
        <path id="Trazado_720460" data-name="Trazado 720460" d="M156.931,0c1.226,0,2.452,0,3.677,0,.988,0,1.29.227,1.529,1.161.351,1.372.674,2.751,1.042,4.119a1.369,1.369,0,0,1-.379,1.444c-1.073,1.069-2.147,2.137-3.211,3.214a1.308,1.308,0,0,1-1.573.307c-1.8-.735-3.6-1.453-5.411-2.169a1.284,1.284,0,0,1-.9-1.324c.013-1.8,0-3.606.008-5.409.006-.928.436-1.335,1.393-1.341,1.274-.008,2.548,0,3.822,0m-2.907,2.346c0,1.2-.011,2.374.015,3.544a.571.571,0,0,0,.323.38c1.194.5,2.393.99,3.606,1.441a.8.8,0,0,0,.677-.13c.673-.615,1.311-1.269,1.94-1.929a.646.646,0,0,0,.172-.493c-.217-.949-.471-1.889-.708-2.812Z" transform="translate(-129.761 0)"/>
        <path id="Trazado_720461" data-name="Trazado 720461" d="M257,180.292a4.167,4.167,0,0,1-.669.977c-1.478,1.152-2.981,2.273-4.493,3.38a1.131,1.131,0,0,1-1.787-.339c-.735-1.069-1.441-2.158-2.167-3.232a1.209,1.209,0,0,1-.027-1.475c.736-1.1,1.456-2.205,2.206-3.293a1.131,1.131,0,0,1,1.792-.31c1.492,1.094,2.975,2.2,4.436,3.336a4.679,4.679,0,0,1,.709.956m-5.633,1.838,2.406-1.813-2.409-1.8c-.369.551-.708,1.015-.994,1.509a.666.666,0,0,0-.015.564c.3.513.645.993,1.012,1.543" transform="translate(-211.796 -150.273)"/>
        <path id="Trazado_720462" data-name="Trazado 720462" d="M138.081,166.689c-.36,0-.722.017-1.081,0a1.148,1.148,0,0,1-1.144-1.471c.357-1.518.741-3.03,1.135-4.539a1.149,1.149,0,0,1,1.219-.916c1.081,0,2.163.005,3.244,0a1.2,1.2,0,0,1,1.256.878c.378,1.113.751,2.228,1.107,3.348a1.031,1.031,0,0,1-.619,1.424c-1.673.546-3.263,1.451-5.116,1.282m3.177-3c-.62-1.909-.093-1.654-2.246-1.572l-.6,2.4,2.842-.829" transform="translate(-116.168 -136.645)"/>
        <path id="Trazado_720463" data-name="Trazado 720463" d="M316.36,134.831c-1.487.453-2.531-.407-3.286-1.9a21.036,21.036,0,0,0-1.227-1.866c-.626-.968-.342-1.729.757-2.013q2.127-.55,4.261-1.073a1.158,1.158,0,0,1,1.572.938q.574,2.2,1.1,4.4a1.152,1.152,0,0,1-1.165,1.512c-.576.023-1.154,0-2.015,0m.575-2.411-.5-1.964-1.85.492c.565.928.92,2,2.351,1.472" transform="translate(-266.453 -109.409)"/>
        <path id="Trazado_720464" data-name="Trazado 720464" d="M190.613,219.263c0,.7-.008,1.4,0,2.094a1.229,1.229,0,0,1-.929,1.3c-1.095.363-2.185.74-3.286,1.083a1.108,1.108,0,0,1-1.5-.731c-.406-1.13-.774-2.275-1.142-3.419a1.08,1.08,0,0,1,.563-1.4c1.539-.791,3.082-1.575,4.646-2.314a1.112,1.112,0,0,1,1.636,1.012c.04.792.008,1.588.008,2.383Zm-2.389-.459-1.98.986.48,1.354c1.665-.354,1.77-.515,1.5-2.34" transform="translate(-157.109 -184.53)"/>
        <rect id="Rectángulo_349187" data-name="Rectángulo 349187" width="2.225" height="2.213" transform="translate(50.884 13.911)"/>
        <rect id="Rectángulo_349188" data-name="Rectángulo 349188" width="2.22" height="2.233" transform="translate(20.835 17.368)"/>
        <rect id="Rectángulo_349189" data-name="Rectángulo 349189" width="2.208" height="2.247" transform="translate(31.252 24.32)"/>
        <rect id="Rectángulo_349190" data-name="Rectángulo 349190" width="2.216" height="2.229" transform="translate(37.012 38.17)"/>
        <path id="Trazado_720465" data-name="Trazado 720465" d="M207.913,352.658c-.937,0-1.875.011-2.812,0a2.467,2.467,0,0,1-2.577-2.73c.093-1.461.249-2.921.437-4.373a2.435,2.435,0,0,1,2.435-2.132q2.487-.038,4.975,0a2.434,2.434,0,0,1,2.429,2.138c.187,1.453.343,2.912.436,4.374a2.466,2.466,0,0,1-2.583,2.723c-.913.013-1.826,0-2.74,0" transform="translate(-173.219 -293.722)" fill="#ffa031"/>
        <path id="Trazado_720466" data-name="Trazado 720466" d="M294.142,352.6c-.793,0-1.587.027-2.378-.011a4.412,4.412,0,0,1-1.182-.251c-.482-.164-.594-.435-.519-1.028a21.845,21.845,0,0,0,.018-3.431c-.023-.695-.115-1.389-.2-2.079a1.977,1.977,0,0,1,1.964-2.414c1.775-.076,3.557-.06,5.333-.009a2.443,2.443,0,0,1,2.285,2.143c.168,1.334.317,2.673.41,4.014a3.205,3.205,0,0,1-3.135,3.059c-.864.028-1.73,0-2.6,0Z" transform="translate(-247.921 -293.662)" fill="#ffa031"/>
        <path id="Trazado_720467" data-name="Trazado 720467" d="M125.974,352.611c-.793,0-1.586.012-2.379,0a3.157,3.157,0,0,1-3.2-3.648c.116-1.075.212-2.152.32-3.227a2.512,2.512,0,0,1,2.534-2.361c1.61-.02,3.223-.055,4.829.023a3.753,3.753,0,0,1,1.65.59,1.433,1.433,0,0,1,.646,1.553c-.19,1.379-.324,2.769-.41,4.158a5.483,5.483,0,0,0,.187,1.776c.122.439-.011.66-.351.786a4.7,4.7,0,0,1-1.305.338c-.838.053-1.681.015-2.522.015" transform="translate(-102.959 -293.675)" fill="#ffa031"/>
        <path id="Trazado_720468" data-name="Trazado 720468" d="M143.871,311.793h3.868c-.158.658-.29,1.306-.481,1.936-.044.144-.276.271-.446.325a1.965,1.965,0,0,1-.573.013c-2.139,0-2.139,0-2.368-2.274" transform="translate(-123.057 -266.686)" fill="#e8e8e8"/>
        <path id="Trazado_720469" data-name="Trazado 720469" d="M229.348,314.021H226.52l-.563-2.25h3.926l-.535,2.25" transform="translate(-193.268 -266.667)" fill="#e8e8e8"/>
        <path id="Trazado_720470" data-name="Trazado 720470" d="M309.035,314.04l-.578-2.278h3.936c-.167.7-.309,1.367-.5,2.021-.035.118-.279.241-.43.245-.79.024-1.582.011-2.426.011" transform="translate(-263.833 -266.66)" fill="#e8e8e8"/>
        <path id="Trazado_720471" data-name="Trazado 720471" d="M225.952,74.243c-.231-.924-.469-1.8-.655-2.69a.73.73,0,0,1,.2-.592q2.555-2.172,5.152-4.3a.626.626,0,0,1,.549-.1c2.051,1.146,4.088,2.319,6.184,3.516-.535,1.075-1.041,2.1-1.562,3.123a.728.728,0,0,1-.308.289c-1.092.554-2.188,1.1-3.29,1.635a.543.543,0,0,1-.457.013c-1.521-1.131-3.281-.888-5-.9-.262,0-.523,0-.816,0" transform="translate(-192.696 -56.907)" fill="#afafaf"/>
        <path id="Trazado_720472" data-name="Trazado 720472" d="M167.707,16.227h6.025c.237.923.491,1.863.708,2.812a.646.646,0,0,1-.172.493c-.63.66-1.267,1.315-1.94,1.929a.8.8,0,0,1-.677.13c-1.213-.451-2.412-.942-3.606-1.441a.571.571,0,0,1-.323-.38c-.025-1.169-.015-2.34-.015-3.544" transform="translate(-143.443 -13.879)" fill="#afafaf"/>
        <path id="Trazado_720473" data-name="Trazado 720473" d="M267.209,198.829c-.367-.55-.717-1.03-1.012-1.543a.666.666,0,0,1,.015-.564c.286-.494.624-.957.994-1.509l2.409,1.8-2.406,1.813" transform="translate(-227.639 -166.973)" fill="#afafaf"/>
        <path id="Trazado_720474" data-name="Trazado 720474" d="M156.63,177.327l-2.842.829.6-2.4c2.153-.082,1.625-.337,2.246,1.572" transform="translate(-131.54 -150.279)" fill="#afafaf"/>
        <path id="Trazado_720475" data-name="Trazado 720475" d="M335.049,147.446c-1.431.53-1.786-.544-2.351-1.472l1.85-.492.5,1.964" transform="translate(-284.567 -124.435)" fill="#afafaf"/>
        <path id="Trazado_720476" data-name="Trazado 720476" d="M203.371,236.917c.27,1.825.165,1.987-1.5,2.34l-.48-1.354,1.98-.986" transform="translate(-172.256 -202.643)" fill="#afafaf"/>
      </g>
    </g>
  </g>
</svg>
