<svg xmlns="http://www.w3.org/2000/svg" xmlns:xlink="http://www.w3.org/1999/xlink" width="85" height="75" viewBox="0 0 85 75">
  <defs>
    <clipPath id="clip-path">
      <rect id="Rectángulo_349848" data-name="Rectángulo 349848" width="85" height="75" transform="translate(0 0)" fill="none"/>
    </clipPath>
  </defs>
  <g id="Grupo_1010925" data-name="Grupo 1010925" transform="translate(0 -0.663)">
    <g id="Grupo_1010924" data-name="Grupo 1010924" transform="translate(0 0.663)" clip-path="url(#clip-path)">
      <path id="Trazado_722416" data-name="Trazado 722416" d="M41.834,0h1.418c.481.108.974.181,1.442.33a6.859,6.859,0,0,1,3.566,2.607.249.249,0,0,0,.327.116c.189-.062.384-.105.578-.154a36.834,36.834,0,0,1,7.182-1.153,34.493,34.493,0,0,1,7.251.577A109.558,109.558,0,0,1,75.887,5.157,1.122,1.122,0,0,1,76.8,6.388q0,2.348,0,4.7a1.116,1.116,0,0,1-1.232,1.236H69.106c.033.117.055.2.081.284l2.566,8.175q2.875,9.158,5.755,18.314a.694.694,0,0,0,.239.316c.253.191.527.354.787.535A37.668,37.668,0,0,1,84.51,45.2a7.446,7.446,0,0,1,.576.8v.532a3.135,3.135,0,0,1-.315.5,43.434,43.434,0,0,1-3.544,3.438,26.58,26.58,0,0,1-6.94,4.461,16.607,16.607,0,0,1-9.864,1.1A20.145,20.145,0,0,1,57.29,53a37.63,37.63,0,0,1-6.916-5.988,1.105,1.105,0,0,1,.018-1.543q.325-.348.657-.689a36.351,36.351,0,0,1,6.428-5.406.5.5,0,0,0,.177-.26q1.059-3.346,2.106-6.7,3.116-9.929,6.231-19.859c.023-.072.038-.147.057-.224H47.462V59.984a.325.325,0,0,0,.062.017l1.839,0a1.114,1.114,0,0,1,1.2,1.2q0,2.371,0,4.741v.3c.4,0,.766-.017,1.133,0a4.7,4.7,0,0,1,4.4,4.467c.041,1.3.018,2.6.007,3.9a1.05,1.05,0,0,1-.688,1c-.052.023-.1.053-.152.08H29.824c-.044-.024-.086-.051-.132-.071a1.074,1.074,0,0,1-.712-1.048c-.006-1.233-.029-2.467,0-3.7a4.738,4.738,0,0,1,4.847-4.642c.226,0,.452,0,.692,0v-.3q0-2.36,0-4.719a1.113,1.113,0,0,1,1.2-1.206h1.9V12.333H19.033c.021.079.035.142.054.2q4.173,13.3,8.35,26.6a.565.565,0,0,0,.206.264c.421.3.857.578,1.276.88a39.9,39.9,0,0,1,5.787,5.208A1.1,1.1,0,0,1,34.7,47.03a43.673,43.673,0,0,1-4.174,3.963A25.112,25.112,0,0,1,23.531,55.2a16.5,16.5,0,0,1-8.641.923A19.838,19.838,0,0,1,7.25,53.027a34.678,34.678,0,0,1-5.923-4.944A6,6,0,0,1,0,46.531V46a7.405,7.405,0,0,1,.576-.8,36.389,36.389,0,0,1,6.677-5.724.776.776,0,0,0,.358-.444q1.936-6.2,3.886-12.4Q13.7,19.6,15.91,12.563c.023-.072.037-.147.061-.242h-.3q-3.1,0-6.2,0a1.106,1.106,0,0,1-1.188-1.192q0-2.4,0-4.807a1.1,1.1,0,0,1,.854-1.144A97.622,97.622,0,0,1,24.363,1.927a26.153,26.153,0,0,1,5.593-.1,40.545,40.545,0,0,1,6.523,1.219.282.282,0,0,0,.361-.129A6.935,6.935,0,0,1,40.924.179c.3-.073.606-.12.91-.179M45.2,60V13.538a7.213,7.213,0,0,1-2.652.516,7.387,7.387,0,0,1-2.656-.509V60ZM24.674,37.777,17.529,15.011h-.053L10.332,37.778a16.847,16.847,0,0,1,14.341,0M67.61,15.012l-.056.006L60.412,37.777a16.843,16.843,0,0,1,14.339,0L67.61,15.012m6.971-4.927c0-.972,0-1.916,0-2.861,0-.155-.109-.153-.2-.178A103.054,103.054,0,0,0,61.928,4.323a29.533,29.533,0,0,0-4.853-.372,33.866,33.866,0,0,0-7.621,1.175.8.8,0,0,0-.119.053,7.1,7.1,0,0,1-.455,4.906Zm-64.075,0h25.7a7.111,7.111,0,0,1-.455-4.908.476.476,0,0,0-.076-.038c-.329-.082-.658-.167-.989-.245a35.032,35.032,0,0,0-5.768-.907,29.122,29.122,0,0,0-6.068.381c-2.537.37-5.044.89-7.534,1.494-1.542.374-3.074.787-4.611,1.184-.094.024-.2.023-.2.178.005.945,0,1.89,0,2.861M53.883,73.459c0-.815,0-1.6,0-2.394a2.5,2.5,0,0,0-2.613-2.6H46.22q-6.224,0-12.448,0A2.5,2.5,0,0,0,31.2,71.04q0,1.03,0,2.06v.359ZM17.747,45.127c-.079-.1-.128-.159-.18-.219-.389-.454-.783-.9-1.166-1.364a1.112,1.112,0,1,1,1.72-1.409q1.226,1.415,2.438,2.842a.42.42,0,0,0,.358.164c1.078-.006,2.157,0,3.235,0,.071,0,.142-.007.251-.012-.068-.086-.11-.143-.156-.2-.394-.46-.792-.916-1.182-1.38a1.07,1.07,0,0,1-.19-1.141,1.05,1.05,0,0,1,.882-.686,1.073,1.073,0,0,1,1.007.393q1.228,1.428,2.452,2.859a.421.421,0,0,0,.357.169c1.13-.007,2.26,0,3.39,0,.071,0,.142-.006.214-.01l.037-.055c-.057-.043-.117-.082-.171-.129-.642-.567-1.267-1.154-1.926-1.7a22.718,22.718,0,0,0-6.3-3.822,14.238,14.238,0,0,0-8.178-.728,17.961,17.961,0,0,0-5.948,2.5,30.907,30.907,0,0,0-4.781,3.8,1.482,1.482,0,0,0-.107.132h7.28c-.074-.089-.123-.149-.173-.208q-.577-.673-1.154-1.345a1.085,1.085,0,0,1-.249-1.032,1.047,1.047,0,0,1,.811-.794,1.064,1.064,0,0,1,1.116.366q1.232,1.425,2.451,2.86a.44.44,0,0,0,.378.172c1.078-.007,2.157,0,3.235,0,.065,0,.13-.006.246-.011m63.5,0,.026-.056c-.521-.467-1.034-.944-1.565-1.4a23.875,23.875,0,0,0-6.5-4.128,14.314,14.314,0,0,0-8.465-.857A18,18,0,0,0,58.7,41.242a30.828,30.828,0,0,0-4.674,3.718c-.046.044-.087.093-.148.159h7.25c-.006-.028,0-.037-.009-.042-.421-.494-.845-.987-1.264-1.483a1.115,1.115,0,1,1,1.7-1.441q1.212,1.412,2.422,2.826a.4.4,0,0,0,.337.163c1.093-.007,2.186,0,3.279,0,.064,0,.128-.008.226-.015-.064-.081-.107-.137-.152-.191-.389-.455-.782-.906-1.167-1.363a1.113,1.113,0,1,1,1.694-1.441c.821.95,1.633,1.907,2.458,2.854a.472.472,0,0,0,.311.15c1.1.011,2.2.007,3.3.006.061,0,.121-.01.213-.019-.07-.087-.114-.145-.161-.2q-.576-.673-1.153-1.346a1.085,1.085,0,0,1-.234-1.095,1.049,1.049,0,0,1,.833-.743,1.077,1.077,0,0,1,1.089.389q1.222,1.418,2.437,2.842a.441.441,0,0,0,.376.175c1.13-.007,2.26,0,3.39,0,.064,0,.129-.006.193-.009m-63.494,2.25c-.118-.005-.182-.011-.247-.011-1.086,0-2.171,0-3.257,0a.417.417,0,0,0-.356.166q-1.2,1.418-2.422,2.826A1.115,1.115,0,1,1,9.785,48.9c.383-.45.769-.9,1.153-1.345.044-.051.083-.106.136-.175H3.824c.012.03.013.047.022.055.192.184.382.369.578.549a27.461,27.461,0,0,0,5.952,4.281A15.559,15.559,0,0,0,17.113,54.1a15.221,15.221,0,0,0,7.414-1.781,28.046,28.046,0,0,0,6.6-4.846.964.964,0,0,0,.08-.109h-.253c-1.123,0-2.245,0-3.367,0a.439.439,0,0,0-.376.173Q26,48.963,24.773,50.378a1.113,1.113,0,1,1-1.69-1.446c.387-.456.779-.908,1.168-1.362.046-.054.087-.111.143-.184a.769.769,0,0,0-.106-.018c-1.152,0-2.3,0-3.456,0a.366.366,0,0,0-.236.123c-.4.448-.783.9-1.173,1.358-.458.532-.9,1.077-1.377,1.591a1.1,1.1,0,0,1-1.853-.4,1.131,1.131,0,0,1,.273-1.168c.422-.482.837-.972,1.288-1.5m36.132,0a.565.565,0,0,0,.045.07,27.909,27.909,0,0,0,6.751,4.936A14.747,14.747,0,0,0,75.029,52.1a28.6,28.6,0,0,0,6.027-4.48,2.8,2.8,0,0,1,.24-.183l-.043-.073H81.02c-1.122,0-2.245,0-3.367,0a.416.416,0,0,0-.356.166c-.8.939-1.606,1.872-2.406,2.81a1.145,1.145,0,0,1-.787.447,1.109,1.109,0,0,1-.975-1.811c.406-.488.825-.965,1.237-1.448.035-.041.062-.089.111-.16h-.233c-1.078,0-2.156,0-3.234,0a.461.461,0,0,0-.392.186q-1.205,1.418-2.422,2.825a1.113,1.113,0,1,1-1.7-1.438c.379-.453.769-.9,1.153-1.346.051-.059.1-.122.164-.208-.065-.008-.1-.015-.131-.015-1.145,0-2.289,0-3.434.006a.392.392,0,0,0-.25.138c-.822.948-1.638,1.9-2.456,2.854a1.114,1.114,0,1,1-1.7-1.436c.376-.446.76-.885,1.139-1.328.055-.064.106-.131.18-.222ZM37.733,7.012a4.809,4.809,0,1,0,4.819-4.8,4.825,4.825,0,0,0-4.819,4.8m-.978,59.2H48.322V62.247H36.755Z" transform="translate(0 -0.415)"/>
    </g>
  </g>
</svg>
