<svg xmlns="http://www.w3.org/2000/svg" xmlns:xlink="http://www.w3.org/1999/xlink" width="86" height="86" viewBox="0 0 86 86">
  <defs>
    <clipPath id="clip-path">
      <rect id="Rectángulo_349180" data-name="Rectángulo 349180" width="35.414" height="52.251" transform="translate(0 0)" fill="#12263f"/>
    </clipPath>
  </defs>
  <g id="Grupo_1011137" data-name="Grupo 1011137" transform="translate(-705 -1423)">
    <circle id="Elipse_8394" data-name="Elipse 8394" cx="43" cy="43" r="43" transform="translate(705 1423)" fill="#12263f"/>
    <circle id="Elipse_8400" data-name="Elipse 8400" cx="37" cy="37" r="37" transform="translate(711 1429)" fill="#fff"/>
    <g id="Grupo_1009666" data-name="Grupo 1009666" transform="translate(730.293 1437.3)">
      <g id="Grupo_1009665" data-name="Grupo 1009665" transform="translate(0 -0.004)" clip-path="url(#clip-path)">
        <path id="Trazado_720443" data-name="Trazado 720443" d="M15.416,12.063h4.578c.031-.208.071-.462.105-.716q.216-1.6.429-3.194.223-1.669.445-3.338.247-1.839.5-3.678c.012-.09.021-.18.035-.27a.814.814,0,0,1,.831-.79,14.335,14.335,0,0,1,6.653.872c.254.1.509.191.759.3a.781.781,0,0,1,.487.907q-.551,3.1-1.1,6.2c-.244,1.366-.493,2.73-.738,4.1-.08.445-.153.891-.234,1.359.317.113.637.229.959.341.779.273,1.56.543,2.339.817a.925.925,0,0,1,.626,1.1c-.179,1.193-.381,2.385-.5,3.585a7.964,7.964,0,0,0,.332,3.49,4.433,4.433,0,0,0,2.57,2.626c.116.051.235.1.352.144a.912.912,0,0,1,.565.975c-.212,1.549-.429,3.1-.64,4.646-.175,1.286-.343,2.573-.518,3.859-.235,1.723-.476,3.444-.711,5.167-.165,1.208-.323,2.417-.487,3.625-.09.664-.185,1.327-.278,1.991-.007.047-.009.1-.015.168l.626.063a.883.883,0,0,1,.817.936c-.037.6-.091,1.2-.139,1.807-.057.7-.122,1.408-.171,2.113a.944.944,0,0,1-.717.967.9.9,0,0,1-.215.021H21.148a.9.9,0,0,1-.9-.726q-.6-2.712-1.193-5.424L17.77,40.232a.517.517,0,0,0-.078-.2c-.078.349-.157.7-.234,1.046q-.517,2.358-1.034,4.716-.591,2.685-1.185,5.37c-.027.124-.052.248-.08.371a.9.9,0,0,1-.87.711q-4.608,0-9.215,0c-.847,0-1.693,0-2.54,0a.908.908,0,0,1-1-.913c-.081-.963-.152-1.927-.228-2.891q-.041-.515-.087-1.029A.9.9,0,0,1,2.046,46.4c.2-.021.4-.038.615-.058-.045-.34-.086-.667-.131-.995q-.267-1.973-.536-3.946c-.163-1.19-.33-2.379-.492-3.57-.164-1.208-.323-2.417-.488-3.625q-.3-2.18-.6-4.359C.277,28.854.14,27.862.009,26.868a.9.9,0,0,1,.614-.978A5.475,5.475,0,0,0,2.4,24.824a4.511,4.511,0,0,0,1.339-2.592,10.2,10.2,0,0,0,.049-3.088c-.13-1.053-.31-2.1-.473-3.15a.949.949,0,0,1,.627-1.022c1.1-.382,2.2-.775,3.315-1.168-.095-.529-.189-1.049-.282-1.57q-.275-1.54-.549-3.081Q6,6.74,5.566,4.326q-.2-1.139-.4-2.279a.777.777,0,0,1,.47-.786A16.061,16.061,0,0,1,9.07.216,13.629,13.629,0,0,1,12.011,0c.4.015.808.051,1.209.1a.745.745,0,0,1,.68.687q.346,2.575.69,5.151.354,2.629.713,5.257c.039.291.076.583.113.864M2.628,32.594c.416-.041.812-.072,1.207-.12a10.291,10.291,0,0,0,3.273-.935,8.767,8.767,0,0,0,3.959-3.877,14.353,14.353,0,0,0,1.379-4.081.9.9,0,0,1,.916-.722.879.879,0,0,1,.861.758,1.71,1.71,0,0,1-.038.535,14.959,14.959,0,0,1-2.035,5.267,10.3,10.3,0,0,1-3.459,3.348,12.034,12.034,0,0,1-5.041,1.56l-.776.074L4.48,46.191c.066,0,.113,0,.16,0,.512-.037,1.024-.074,1.536-.114.717-.056,1.433-.115,2.15-.17.554-.042,1.108-.094,1.663-.117a.887.887,0,0,1,.9.825.908.908,0,0,1-.79.983c-.42.044-.842.074-1.264.109-1.09.092-2.179.19-3.269.274-.709.054-1.419.086-2.129.13-.106.007-.211.024-.328.039l.185,2.276H13.536l2.908-13.21c-.12,0-.216-.007-.311,0a.972.972,0,0,1-1.03-1.028c.026-.482.005-.966.005-1.449q0-3.355,0-6.711a.913.913,0,1,1,1.823-.006c0,.472,0,.943,0,1.415q0,2.793,0,5.587c0,.092,0,.184,0,.283a3.88,3.88,0,0,0,1.625-.713,1.871,1.871,0,0,0,.788-1.568c-.018-1.681-.006-3.362-.006-5.043a.881.881,0,0,1,.441-.8.9.9,0,0,1,1.373.776c.006,1.778,0,3.556,0,5.333a2.992,2.992,0,0,1-.316,1.309,4.27,4.27,0,0,1-1.873,1.884.177.177,0,0,0-.108.237q.529,2.365,1.046,4.733l1.682,7.65c.1.44.2.879.293,1.318H32.126l.182-2.285c-.238,0-.449.014-.657,0-.861-.067-1.722-.144-2.582-.217l-3.7-.317a.911.911,0,0,1-.658-1.457.991.991,0,0,1,.99-.348c.547.057,1.1.1,1.644.14q1.6.123,3.2.24c.129.01.259.013.389.019L32.54,34.4c-.123-.012-.236-.027-.349-.034a13.108,13.108,0,0,1-3.725-.771,10.261,10.261,0,0,1-5-3.878,14.658,14.658,0,0,1-2.278-5.82.893.893,0,0,1,.747-1.027.917.917,0,0,1,1.035.7c.085.383.16.768.258,1.147a12.175,12.175,0,0,0,1.669,3.85,8.611,8.611,0,0,0,2.874,2.687,10.631,10.631,0,0,0,4.414,1.288c.2.018.4.023.608.035l.249-1.844c-.544-.114-1.067-.206-1.58-.336a8.463,8.463,0,0,1-3.594-1.835A7.777,7.777,0,0,1,25.585,24.9a1.488,1.488,0,0,1-.093-.563.9.9,0,0,1,1.755-.149,7.921,7.921,0,0,0,.778,1.767,5.678,5.678,0,0,0,1.467,1.589,7.432,7.432,0,0,0,2.991,1.223c.263.051.53.089.807.135.063-.469.109-.907.186-1.339a.279.279,0,0,0-.184-.36,6.174,6.174,0,0,1-2.165-1.724,6.872,6.872,0,0,1-1.368-3.793,17.567,17.567,0,0,1,.237-4.224c.053-.339.107-.677.162-1.027l-2.322-.813c-.125.7-.255,1.38-.366,2.064A4.218,4.218,0,0,1,26.7,19.6a4.065,4.065,0,0,1-7.327-2.764c.079-.732.19-1.46.286-2.191.031-.237.06-.475.092-.729a31.1,31.1,0,0,0-4.088-.02c.11.81.212,1.605.327,2.4a4.887,4.887,0,0,1-.014,1.782,4.065,4.065,0,0,1-7.8.487,16.249,16.249,0,0,1-.409-1.907c-.069-.339-.126-.681-.19-1.032l-2.323.815c.011.07.019.117.027.164a24.594,24.594,0,0,1,.411,3.615,9.037,9.037,0,0,1-.622,3.92,6.007,6.007,0,0,1-1.437,2.043,6.066,6.066,0,0,1-1.526,1.031.259.259,0,0,0-.168.349A3.768,3.768,0,0,1,2,27.957c.043.309.086.617.13.932a1.368,1.368,0,0,0,.215-.013c.581-.132,1.173-.232,1.74-.41a5.859,5.859,0,0,0,2.9-1.928,6.893,6.893,0,0,0,1.176-2.33A.9.9,0,0,1,9.3,23.588a.91.91,0,0,1,.6,1.14,8.421,8.421,0,0,1-1.368,2.779,7.861,7.861,0,0,1-4.182,2.778c-.64.187-1.3.306-1.969.461l.25,1.847M23,1.6a1.169,1.169,0,0,0-.027.114c-.126.951-.249,1.9-.376,2.854-.141,1.059-.287,2.116-.429,3.175-.112.837-.222,1.675-.334,2.513q-.194,1.444-.39,2.888c-.129.951-.265,1.9-.385,2.852a8.8,8.8,0,0,0-.118,1.35,2.419,2.419,0,0,0,1.729,2.223,2.517,2.517,0,0,0,2.683-.8,3.056,3.056,0,0,0,.595-1.493c.226-1.319.463-2.636.7-3.953q.465-2.609.933-5.218.376-2.1.751-4.2c.084-.474.166-.948.25-1.433A12.867,12.867,0,0,0,23,1.6m-10.576,0a12.889,12.889,0,0,0-5.59.875c.106.583.21,1.151.312,1.72q.6,3.357,1.2,6.714c.4,2.244.788,4.49,1.2,6.731a2.354,2.354,0,0,0,1.871,1.968,2.384,2.384,0,0,0,2.574-.917,2.656,2.656,0,0,0,.445-2.166c-.146-.954-.264-1.913-.392-2.869-.125-.933-.247-1.866-.372-2.8q-.175-1.31-.354-2.619t-.35-2.6q-.171-1.274-.34-2.548c-.066-.49-.134-.979-.2-1.489" transform="translate(0 0.005)" fill="#12263f"/>
        <path id="Trazado_720444" data-name="Trazado 720444" d="M613.333,433.579a1.387,1.387,0,0,1-1.382,1.384,1.394,1.394,0,1,1,1.382-1.384m-1.193.035q0-.041,0-.081c-.064-.044-.132-.128-.19-.121s-.118.1-.177.153c.057.057.107.148.172.16s.127-.07.192-.111" transform="translate(-588.405 -416.494)" fill="#12263f"/>
        <path id="Trazado_720445" data-name="Trazado 720445" d="M289.04,433.556a1.388,1.388,0,1,1,1.387,1.4,1.387,1.387,0,0,1-1.387-1.4m1.583.039q0-.038,0-.076c-.068-.042-.141-.124-.2-.115a.238.238,0,0,0-.154.167c-.006.043.1.144.154.145s.134-.077.2-.121" transform="translate(-278.553 -416.485)" fill="#12263f"/>
      </g>
    </g>
  </g>
</svg>
