<svg xmlns="http://www.w3.org/2000/svg" xmlns:xlink="http://www.w3.org/1999/xlink" width="86" height="86" viewBox="0 0 86 86">
  <defs>
    <clipPath id="clip-path">
      <rect id="Rectángulo_349179" data-name="Rectángulo 349179" width="48.457" height="55.695" fill="#12263f"/>
    </clipPath>
  </defs>
  <g id="Grupo_1011138" data-name="Grupo 1011138" transform="translate(-810 -1426)">
    <circle id="Elipse_8395" data-name="Elipse 8395" cx="43" cy="43" r="43" transform="translate(810 1426)" fill="#12263f"/>
    <circle id="Elipse_8401" data-name="Elipse 8401" cx="37" cy="37" r="37" transform="translate(816 1432)" fill="#fff"/>
    <g id="Grupo_1009664" data-name="Grupo 1009664" transform="translate(828.196 1438.573)">
      <g id="Grupo_1009663" data-name="Grupo 1009663" clip-path="url(#clip-path)">
        <path id="Trazado_720436" data-name="Trazado 720436" d="M9.764,55.7a2.036,2.036,0,0,1-1.206-2.384c.266-2.119.44-4.25.69-6.372.052-.445-.1-.584-.481-.719-2.284-.808-4.559-1.643-6.838-2.468A2.6,2.6,0,0,1,.263,40.067q2.4-5.788,4.819-11.57c.175-.421.418-.736.911-.7.6.04.886.621.617,1.271C5.76,31.12,4.9,33.17,4.042,35.224c-.4.95-.789,1.9-1.213,2.924L9.94,40.3l1.971-18.717c-.229.058-.414.089-.587.152a4.533,4.533,0,0,0-2.75,2.61c-.19.45-.354.912-.569,1.349a.75.75,0,0,1-1.01.389.735.735,0,0,1-.479-.97c.813-2.566,2.259-4.522,5.057-5.144a4.415,4.415,0,0,0,1.231-.335A3.06,3.06,0,0,0,14.413,16.5a3.119,3.119,0,0,1,0-.543,3.392,3.392,0,0,0-.781-2.742,4.71,4.71,0,0,1-1-2.932,3.647,3.647,0,0,1,.194-1.432c.53-1.384,1.079-2.766,1.715-4.1A7.721,7.721,0,0,1,21.713.052a44.4,44.4,0,0,1,6.024.1,7.434,7.434,0,0,1,6.12,4.47c.667,1.383,1.225,2.82,1.785,4.252a4.371,4.371,0,0,1-.326,3.422,15.954,15.954,0,0,1-1.02,1.654,1.545,1.545,0,0,0-.249.676c-.03.778-.02,1.558-.009,2.337a2.974,2.974,0,0,0,2.6,2.974,5.878,5.878,0,0,1,4.645,3.6c2.348,5.526,4.644,11.075,6.943,16.622a2.58,2.58,0,0,1-1.6,3.553Q43.162,45,39.683,46.225c-.375.133-.538.263-.485.714.252,2.121.427,4.252.691,6.372A2.039,2.039,0,0,1,38.682,55.7H17.809c-.4-.251-.682-.575-.511-1.074s.591-.565,1.061-.561c1.449.013,2.9,0,4.347,0h.575V52.139H10.332c-.062.643-.12,1.25-.185,1.926h.586c1.25,0,2.5.006,3.749,0,.459,0,.877.038,1.071.541s-.122.808-.463,1.093ZM16.093,15.47a1.1,1.1,0,0,0-.043.169,4.757,4.757,0,0,0-.006.489,4.875,4.875,0,0,1-2.22,4.816.67.67,0,0,0-.245.443q-.664,6.129-1.3,12.261-.752,7.131-1.5,14.261c-.088.837-.165,1.676-.25,2.539H23.277c.013-.176.034-.335.035-.493q0-14.948.007-29.9a.539.539,0,0,0-.429-.615,4.349,4.349,0,0,1-3.041-3.8,16.02,16.02,0,0,1-.049-1.791c-.008-1.1-.183-1.3-1.252-1.413a2.542,2.542,0,0,1-2.272-2.083,9.438,9.438,0,0,1-.013-1.5c-.231,0-.517,0-.8,0-.9.01-1.312.444-1.217,1.329A4.548,4.548,0,0,0,17,14.06c.131.061.272.105.4.178a.759.759,0,0,1,.361,1.021.744.744,0,0,1-.977.455c-.222-.064-.437-.154-.686-.244M37.9,50.44c0-.166.01-.275,0-.382q-.52-4.888-1.043-9.775-.984-9.317-1.948-18.637a1.147,1.147,0,0,0-.543-.918,4.415,4.415,0,0,1-1.961-3.9c0-.442,0-.884,0-1.376-.306.11-.521.2-.744.265a.743.743,0,0,1-.974-.463.759.759,0,0,1,.369-1.018c.14-.08.3-.125.447-.2a4.559,4.559,0,0,0,2.706-3.966.984.984,0,0,0-.849-1.187,9.964,9.964,0,0,0-1.219-.01,7.333,7.333,0,0,1,.083,1.218,2.59,2.59,0,0,1-2.439,2.353c-.884.086-1.129.354-1.135,1.246,0,.507.011,1.015,0,1.522a4.38,4.38,0,0,1-3.17,4.258c-.447.123-.543.31-.542.737q.018,14.81.009,29.621v.608ZM36.534,21.572c.662,6.286,1.314,12.479,1.972,18.735l7.071-2.14a1.579,1.579,0,0,0-.053-.25c-1.918-4.6-3.818-9.214-5.77-13.8a4.352,4.352,0,0,0-3.221-2.543M33.242,7.206C32.8,6.272,32.468,5.4,32,4.625A6.314,6.314,0,0,0,26.63,1.671a48.287,48.287,0,0,0-5.906.136c-3,.4-4.671,2.643-5.368,5.4ZM24.269,8.858c-1.756,0-3.513-.005-5.269,0a1.036,1.036,0,0,0-1.167.955c-.023.539.386.935,1.052,1.016.054.007.108.01.162.017a2.539,2.539,0,0,1,2.378,2.673c.008.561-.016,1.124.009,1.684a2.856,2.856,0,0,0,2.834,2.842,2.814,2.814,0,0,0,2.748-2.911c.013-.652-.015-1.3.021-1.955a2.5,2.5,0,0,1,2-2.276c.248-.048.505-.052.753-.1a.937.937,0,0,0,.555-1.575,1.567,1.567,0,0,0-.971-.352c-1.7-.034-3.4-.016-5.106-.016M38.3,54.034l-.19-1.9H24.98v1.9Zm7.947-14.365L38.677,41.96l.3,2.793,1.28-.464c1.918-.694,3.838-1.383,5.754-2.084a1,1,0,0,0,.678-1.494c-.131-.334-.281-.659-.446-1.042M9.471,44.748l.291-2.793L2.2,39.667c-.177.416-.336.759-.469,1.112a.973.973,0,0,0,.618,1.393c2.338.857,4.683,1.7,7.123,2.576" transform="translate(0 0)" fill="#12263f"/>
        <path id="Trazado_720437" data-name="Trazado 720437" d="M117.534,386.4c.167-1.556.347-3.283.54-5.008a.815.815,0,0,1,.9-.8.836.836,0,0,1,.71.987c-.146,1.457-.307,2.913-.462,4.369-.027.252-.046.5-.075.756-.068.583-.413.941-.876.915-.5-.028-.779-.421-.741-1.221" transform="translate(-104.728 -339.13)" fill="#12263f"/>
        <path id="Trazado_720438" data-name="Trazado 720438" d="M150.268,169.323c0,.849.007,1.7,0,2.547-.006.577-.288.9-.771.918a.805.805,0,0,1-.852-.9q-.018-2.6,0-5.2a.8.8,0,0,1,.81-.892c.508,0,.806.326.812.932.008.867,0,1.734,0,2.6" transform="translate(-132.444 -147.73)" fill="#12263f"/>
        <path id="Trazado_720439" data-name="Trazado 720439" d="M248.074,250.978a2.588,2.588,0,0,1,2.645-2.58A2.619,2.619,0,0,1,253.3,251a2.647,2.647,0,0,1-2.634,2.618,2.613,2.613,0,0,1-2.591-2.644m2.6-.946a.951.951,0,0,0-.964.952.975.975,0,0,0,.976,1,1.01,1.01,0,0,0,.98-.961.99.99,0,0,0-.992-.994" transform="translate(-221.052 -221.339)" fill="#12263f"/>
        <path id="Trazado_720440" data-name="Trazado 720440" d="M248.077,317.173a2.578,2.578,0,0,1,2.612-2.61,2.611,2.611,0,1,1-2.612,2.61m3.589.016a.983.983,0,0,0-.937-.993.952.952,0,0,0-1.019.949.983.983,0,0,0,.923,1.005,1.01,1.01,0,0,0,1.033-.962" transform="translate(-221.054 -280.298)" fill="#12263f"/>
        <path id="Trazado_720441" data-name="Trazado 720441" d="M309.526,386.393c.04.813-.227,1.2-.723,1.244-.477.039-.83-.336-.9-.953q-.266-2.508-.529-5.017c-.062-.6.237-1.021.742-1.06.477-.037.811.293.877.891.186,1.69.365,3.38.529,4.895" transform="translate(-273.888 -339.145)" fill="#12263f"/>
        <path id="Trazado_720442" data-name="Trazado 720442" d="M281.094,169.26c0-.849-.006-1.7,0-2.547.006-.6.309-.934.818-.926a.8.8,0,0,1,.8.9q.018,2.6,0,5.2a.805.805,0,0,1-.858.9c-.483-.021-.758-.342-.764-.924-.008-.867,0-1.734,0-2.6" transform="translate(-250.473 -147.728)" fill="#12263f"/>
      </g>
    </g>
  </g>
</svg>
