<svg id="Grupo_1009421" data-name="Grupo 1009421" xmlns="http://www.w3.org/2000/svg" xmlns:xlink="http://www.w3.org/1999/xlink" width="400" height="247.292" viewBox="0 0 400 247.292">
  <defs>
    <clipPath id="clip-path">
      <rect id="Rectángulo_348953" data-name="Rectángulo 348953" width="400" height="247.292" fill="none"/>
    </clipPath>
  </defs>
  <g id="Grupo_1009420" data-name="Grupo 1009420" clip-path="url(#clip-path)">
    <path id="Trazado_718512" data-name="Trazado 718512" d="M308.567,20.051a1.039,1.039,0,1,0,1.039-1.039,1.04,1.04,0,0,0-1.039,1.039" transform="translate(-3.9 -0.24)" fill="#d79f11"/>
    <path id="Trazado_718513" data-name="Trazado 718513" d="M320.166,33a6.5,6.5,0,0,0-4.422-9.836,2.419,2.419,0,1,0-2.982.182,6.43,6.43,0,0,0-1.261.52,1.814,1.814,0,0,0-3.513.342,4.322,4.322,0,0,0-5.734,5.843,3.613,3.613,0,0,0-1.858,6.068,4.406,4.406,0,1,0,3.706,6.858,7.382,7.382,0,0,0,10.2,1.1A6.422,6.422,0,1,0,320.166,33" transform="translate(-3.742 -0.239)" fill="#d79f11"/>
    <path id="Trazado_718514" data-name="Trazado 718514" d="M318.364,17.972a3.066,3.066,0,1,0,3.066-3.066,3.066,3.066,0,0,0-3.066,3.066" transform="translate(-4.024 -0.188)" fill="#d79f11"/>
    <path id="Trazado_718515" data-name="Trazado 718515" d="M322.989,26.42a.782.782,0,1,0,.783-.782.782.782,0,0,0-.783.782" transform="translate(-4.083 -0.324)" fill="#d79f11"/>
    <path id="Trazado_718516" data-name="Trazado 718516" d="M314.364,8.043a1.911,1.911,0,0,0-.149,3.065A3.084,3.084,0,1,0,320,11.27a3.227,3.227,0,1,0-3.909-4.87,1.329,1.329,0,0,0-1.268-.958,1.34,1.34,0,0,0-.462,2.6" transform="translate(-3.963 -0.064)" fill="#d79f11"/>
    <path id="Trazado_718517" data-name="Trazado 718517" d="M307.154,13.007a1.368,1.368,0,0,0,2.336.981s.006-.012.011-.018a2.5,2.5,0,0,0,.752.126,2.536,2.536,0,0,0,.43-5.037,2.724,2.724,0,1,0-4.544-.349,2.3,2.3,0,0,0,1.015,4.3" transform="translate(-3.855 -0.059)" fill="#d79f11"/>
    <path id="Trazado_718518" data-name="Trazado 718518" d="M344.017,126.232l-35.855-.006-35.855.006c19.977-22.873,17.942-67.33,16.99-79.261a2.666,2.666,0,0,1,.067-5.331h37.364a2.662,2.662,0,0,1,.3,5.307c-.952,11.894-3,56.4,16.988,79.285" transform="translate(-3.442 -0.526)" fill="#374f5e"/>
    <path id="Trazado_718519" data-name="Trazado 718519" d="M306.043,76.862a2.546,2.546,0,1,0,2.546-2.546,2.546,2.546,0,0,0-2.546,2.546" transform="translate(-3.869 -0.939)" fill="#d79f11"/>
    <path id="Trazado_718520" data-name="Trazado 718520" d="M310.995,73.344l3.147-5.765a10.7,10.7,0,0,1,5.225,9.047l-6.575-.167a4.149,4.149,0,0,0-1.8-3.115" transform="translate(-3.931 -0.854)" fill="#d79f11"/>
    <path id="Trazado_718521" data-name="Trazado 718521" d="M306.759,80.687a4.119,4.119,0,0,0,3.59,0l3.439,5.609a10.69,10.69,0,0,1-10.466,0Z" transform="translate(-3.834 -1.02)" fill="#d79f11"/>
    <path id="Trazado_718522" data-name="Trazado 718522" d="M304.344,76.459l-6.574.168a10.7,10.7,0,0,1,5.223-9.047l3.148,5.764a4.152,4.152,0,0,0-1.8,3.115" transform="translate(-3.764 -0.854)" fill="#d79f11"/>
    <path id="Trazado_718523" data-name="Trazado 718523" d="M222.273,25.967a6.888,6.888,0,0,1,2.744-5.487A14.63,14.63,0,0,1,238.658,7.493,10.506,10.506,0,0,1,255.718,4.6,15.838,15.838,0,0,1,269.55,8.085a12.176,12.176,0,0,1,5.5-1.35,12.309,12.309,0,1,1-3.919,23.919,15.892,15.892,0,0,1-16.808,4.679,6.994,6.994,0,0,1-8.45-.04,14.523,14.523,0,0,1-12.352.122,4.509,4.509,0,1,1-8.134-3.676,6.911,6.911,0,0,1-3.11-5.772" transform="translate(-2.81 -0.018)" fill="#e8e8e8"/>
    <path id="Trazado_718524" data-name="Trazado 718524" d="M268.123,2.8a1.4,1.4,0,1,1,1.4-1.4,1.4,1.4,0,0,1-1.4,1.4" transform="translate(-3.372 0)" fill="#7ba6a4"/>
    <path id="Trazado_718525" data-name="Trazado 718525" d="M278.044,56.5,248.8,76.732V96.967h29.243Z" transform="translate(-3.145 -0.714)" fill="#d79f11"/>
    <path id="Trazado_718526" data-name="Trazado 718526" d="M257.366,56.5,228.125,76.732V96.967h29.242Z" transform="translate(-2.884 -0.714)" fill="#d79f11"/>
    <path id="Trazado_718527" data-name="Trazado 718527" d="M231.226,86.771H219.918l2.775-44.64h5.756Z" transform="translate(-2.78 -0.533)" fill="#d8c498"/>
    <rect id="Rectángulo_348925" data-name="Rectángulo 348925" width="65.722" height="51.365" transform="translate(212.649 73.877)" fill="#8c733c"/>
    <rect id="Rectángulo_348926" data-name="Rectángulo 348926" width="66.885" height="28.581" transform="translate(212.067 97.116)" fill="#d8c498"/>
    <rect id="Rectángulo_348927" data-name="Rectángulo 348927" width="67.947" height="5.359" transform="translate(211.69 94.629)" fill="#d79f11"/>
    <rect id="Rectángulo_348928" data-name="Rectángulo 348928" width="6.319" height="5.621" transform="translate(217.382 76.685)" fill="#fff"/>
    <rect id="Rectángulo_348929" data-name="Rectángulo 348929" width="6.319" height="5.621" transform="translate(227.02 76.685)" fill="#fff"/>
    <rect id="Rectángulo_348930" data-name="Rectángulo 348930" width="6.319" height="5.621" transform="translate(217.382 85.529)" fill="#fff"/>
    <rect id="Rectángulo_348931" data-name="Rectángulo 348931" width="6.319" height="5.621" transform="translate(227.02 85.529)" fill="#fff"/>
    <rect id="Rectángulo_348932" data-name="Rectángulo 348932" width="6.319" height="5.621" transform="translate(237.531 76.685)" fill="#fff"/>
    <rect id="Rectángulo_348933" data-name="Rectángulo 348933" width="6.32" height="5.621" transform="translate(247.169 76.685)" fill="#fff"/>
    <rect id="Rectángulo_348934" data-name="Rectángulo 348934" width="6.319" height="5.621" transform="translate(237.531 85.529)" fill="#fff"/>
    <rect id="Rectángulo_348935" data-name="Rectángulo 348935" width="6.32" height="5.621" transform="translate(247.169 85.529)" fill="#fff"/>
    <rect id="Rectángulo_348936" data-name="Rectángulo 348936" width="6.32" height="5.621" transform="translate(257.68 76.685)" fill="#fff"/>
    <rect id="Rectángulo_348937" data-name="Rectángulo 348937" width="6.32" height="5.621" transform="translate(267.318 76.685)" fill="#fff"/>
    <rect id="Rectángulo_348938" data-name="Rectángulo 348938" width="6.32" height="5.621" transform="translate(257.68 85.529)" fill="#fff"/>
    <rect id="Rectángulo_348939" data-name="Rectángulo 348939" width="6.32" height="5.621" transform="translate(267.318 85.529)" fill="#fff"/>
    <rect id="Rectángulo_348940" data-name="Rectángulo 348940" width="24.122" height="20.371" transform="translate(233.602 105.334)" fill="#374f5e"/>
    <path id="Trazado_718528" data-name="Trazado 718528" d="M228.93,49.411h-6.657l.275-4.444h6.1Z" transform="translate(-2.81 -0.568)" fill="#d79f11"/>
    <path id="Trazado_718529" data-name="Trazado 718529" d="M229.356,56.439h-7.521L222.112,52h6.968Z" transform="translate(-2.804 -0.657)" fill="#d79f11"/>
    <rect id="Rectángulo_348941" data-name="Rectángulo 348941" width="10.853" height="18.522" transform="translate(362.885 106.557)" fill="#d79f11"/>
    <path id="Trazado_718530" data-name="Trazado 718530" d="M367.492,108.718h10.914a.568.568,0,0,0,.567-.567v-.293a.568.568,0,0,0-.567-.567H367.492a.568.568,0,0,0-.567.567v.293a.568.568,0,0,0,.567.567" transform="translate(-4.638 -1.356)" fill="#374f5e"/>
    <path id="Trazado_718531" data-name="Trazado 718531" d="M367.493,127.293h10.913a.568.568,0,0,0,.568-.567v-.294a.568.568,0,0,0-.568-.566H367.493a.568.568,0,0,0-.567.566v.294a.568.568,0,0,0,.567.567" transform="translate(-4.638 -1.591)" fill="#374f5e"/>
    <path id="Trazado_718532" data-name="Trazado 718532" d="M372.161,117.031a.855.855,0,1,0,.854-.855.854.854,0,0,0-.854.855" transform="translate(-4.704 -1.469)" fill="#374f5e"/>
    <path id="Trazado_718533" data-name="Trazado 718533" d="M373.823,115.85l1.056-1.935a3.593,3.593,0,0,1,1.754,3.037l-2.207-.056a1.392,1.392,0,0,0-.6-1.046" transform="translate(-4.725 -1.44)" fill="#374f5e"/>
    <path id="Trazado_718534" data-name="Trazado 718534" d="M372.4,118.314a1.381,1.381,0,0,0,1.2,0l1.154,1.883a3.59,3.59,0,0,1-3.513,0Z" transform="translate(-4.693 -1.496)" fill="#374f5e"/>
    <path id="Trazado_718535" data-name="Trazado 718535" d="M371.591,116.9l-2.207.056a3.594,3.594,0,0,1,1.754-3.037l1.056,1.935a1.392,1.392,0,0,0-.6,1.046" transform="translate(-4.669 -1.44)" fill="#374f5e"/>
    <rect id="Rectángulo_348942" data-name="Rectángulo 348942" width="10.853" height="18.522" transform="translate(377.31 106.557)" fill="#d79f11"/>
    <path id="Trazado_718536" data-name="Trazado 718536" d="M382.1,108.718h10.914a.568.568,0,0,0,.567-.567v-.293a.568.568,0,0,0-.567-.567H382.1a.568.568,0,0,0-.567.567v.293a.568.568,0,0,0,.567.567" transform="translate(-4.823 -1.356)" fill="#374f5e"/>
    <path id="Trazado_718537" data-name="Trazado 718537" d="M382.1,127.293h10.914a.568.568,0,0,0,.567-.567v-.294a.568.568,0,0,0-.567-.566H382.1a.568.568,0,0,0-.567.566v.294a.568.568,0,0,0,.567.567" transform="translate(-4.823 -1.591)" fill="#374f5e"/>
    <path id="Trazado_718538" data-name="Trazado 718538" d="M386.771,117.031a.855.855,0,1,0,.854-.855.854.854,0,0,0-.854.855" transform="translate(-4.889 -1.469)" fill="#374f5e"/>
    <path id="Trazado_718539" data-name="Trazado 718539" d="M388.433,115.85l1.056-1.935a3.593,3.593,0,0,1,1.754,3.037l-2.207-.056a1.392,1.392,0,0,0-.6-1.046" transform="translate(-4.91 -1.44)" fill="#374f5e"/>
    <path id="Trazado_718540" data-name="Trazado 718540" d="M387.011,118.314a1.381,1.381,0,0,0,1.2,0l1.154,1.883a3.59,3.59,0,0,1-3.513,0Z" transform="translate(-4.878 -1.496)" fill="#374f5e"/>
    <path id="Trazado_718541" data-name="Trazado 718541" d="M386.2,116.9l-2.207.056a3.6,3.6,0,0,1,1.754-3.037l1.056,1.935a1.392,1.392,0,0,0-.6,1.046" transform="translate(-4.854 -1.44)" fill="#374f5e"/>
    <path id="Trazado_718542" data-name="Trazado 718542" d="M46.426,123.085c-2.437-4.84-2.941-28.042-3.091-30.594s-1.194-2.807-1.194-2.807-1.043.256-1.194,2.807-.656,25.754-3.091,30.594l-1.894,3.76H48.319Z" transform="translate(-0.455 -1.134)" fill="#8c5433"/>
    <path id="Trazado_718543" data-name="Trazado 718543" d="M40.007,107.679c8.5.462,10.077,4.462,17.646-2.121s13.112-28.8,4.006-24.19-13.82.741-8.461-7.405,6.119-12.712,0-13.206-7.969,1.234-6.611-4.813S47.3,43.487,41.2,43.3s-9.058,8.573-4.738,15.608-6.277-3.7-10.173,2.839S32.517,72.6,34.738,79.023s-11.108-4.567-11.231,3.7,2.8,24.208,16.5,24.954" transform="translate(-0.297 -0.547)" fill="#005755"/>
    <path id="Trazado_718544" data-name="Trazado 718544" d="M24.489,123.522c-2.185-4.34-2.637-25.15-2.773-27.439s-1.071-2.518-1.071-2.518-.935.229-1.07,2.518-.587,23.1-2.773,27.439l-1.7,3.372H26.186Z" transform="translate(-0.191 -1.183)" fill="#8c5433"/>
    <path id="Trazado_718545" data-name="Trazado 718545" d="M33.666,114.273a.63.63,0,0,0-.02.069c-4.917-1.195-10.466-2.459-15.136-2.123a111.739,111.739,0,0,1-14.386.01c-.089-.01-.138-.01-.138-.01a24.8,24.8,0,0,0-2.992-.138c-4.009,0,5-16.528,11.137-22.62s8.63-17.535,8.63-17.535a40.366,40.366,0,0,0,8.2,17.535c6.665,7.978,9.34,18.079,11.572,22.62s-6.151,0-6.862,2.192" transform="translate(0 -0.909)" fill="#008e8b"/>
    <path id="Trazado_718546" data-name="Trazado 718546" d="M37.145,121.463a48.118,48.118,0,0,0-15.057-.237c-7.9,1.224-15.778-2.774-15.778-2.774,2.557-4.078.652-5.322-2.133-5.707a111.739,111.739,0,0,0,14.386-.01c4.67-.336,10.219.928,15.136,2.123-.6,2.2,3.446,6.605,3.446,6.605" transform="translate(-0.053 -1.424)" fill="#78c84f"/>
    <path id="Trazado_718547" data-name="Trazado 718547" d="M37.145,121.463a48.118,48.118,0,0,0-15.057-.237c-7.9,1.224-15.778-2.774-15.778-2.774,2.557-4.078.652-5.322-2.133-5.707a111.739,111.739,0,0,0,14.386-.01c4.67-.336,10.219.928,15.136,2.123-.6,2.2,3.446,6.605,3.446,6.605" transform="translate(-0.053 -1.424)" fill="#005755"/>
    <path id="Trazado_718548" data-name="Trazado 718548" d="M88.271,123.628c-2.08-4.133-2.512-23.948-2.64-26.128s-1.02-2.4-1.02-2.4-.891.218-1.019,2.4-.56,21.994-2.64,26.128l-1.616,3.211H89.887Z" transform="translate(-1.003 -1.202)" fill="#8c5433"/>
    <path id="Trazado_718549" data-name="Trazado 718549" d="M82.789,110.47c7.258.395,8.606,3.81,15.07-1.811s11.2-24.594,3.42-20.66-11.8.633-7.225-6.324,5.225-10.856,0-11.278-6.806,1.054-5.647-4.111.61-10.638-4.6-10.8-7.736,7.321-4.047,13.329-5.36-3.162-8.688,2.425S76.391,80.517,78.289,86,68.8,82.1,68.7,89.16s2.4,20.673,14.092,21.31" transform="translate(-0.868 -0.701)" fill="#005755"/>
    <path id="Trazado_718550" data-name="Trazado 718550" d="M65.92,123.522c-2.185-4.34-2.637-25.15-2.773-27.439s-1.071-2.518-1.071-2.518-.935.229-1.07,2.518-.587,23.1-2.773,27.439l-1.7,3.372H67.617Z" transform="translate(-0.715 -1.183)" fill="#8c5433"/>
    <path id="Trazado_718551" data-name="Trazado 718551" d="M75.1,114.273a.628.628,0,0,0-.02.069c-4.917-1.195-10.466-2.459-15.136-2.123a111.739,111.739,0,0,1-14.386.01c-.089-.01-.138-.01-.138-.01a24.8,24.8,0,0,0-2.992-.138c-4.009,0,5-16.528,11.137-22.62s8.63-17.535,8.63-17.535a40.366,40.366,0,0,0,8.2,17.535c6.665,7.978,9.34,18.079,11.572,22.62s-6.151,0-6.862,2.192" transform="translate(-0.524 -0.909)" fill="#008e8b"/>
    <path id="Trazado_718552" data-name="Trazado 718552" d="M78.576,121.463a48.118,48.118,0,0,0-15.057-.237c-7.9,1.224-15.778-2.774-15.778-2.774,2.557-4.078.652-5.322-2.133-5.707a111.739,111.739,0,0,0,14.386-.01c4.67-.336,10.219.928,15.136,2.123-.6,2.2,3.446,6.605,3.446,6.605" transform="translate(-0.577 -1.424)" fill="#78c84f"/>
    <path id="Trazado_718553" data-name="Trazado 718553" d="M78.576,121.463a48.118,48.118,0,0,0-15.057-.237c-7.9,1.224-15.778-2.774-15.778-2.774,2.557-4.078.652-5.322-2.133-5.707a111.739,111.739,0,0,0,14.386-.01c4.67-.336,10.219.928,15.136,2.123-.6,2.2,3.446,6.605,3.446,6.605" transform="translate(-0.577 -1.424)" fill="#005755"/>
    <path id="Trazado_718554" data-name="Trazado 718554" d="M137.427,99.015v23.7H201.6v-23.7L169.513,79.643Z" transform="translate(-1.737 -1.007)" fill="#fff"/>
    <path id="Trazado_718555" data-name="Trazado 718555" d="M200.756,128.452H137.883a2.033,2.033,0,0,1-2.033-2.032v-1.125a2.032,2.032,0,0,1,2.033-2.032h62.873a2.031,2.031,0,0,1,2.032,2.032v1.125a2.032,2.032,0,0,1-2.032,2.032" transform="translate(-1.717 -1.558)" fill="#636363"/>
    <path id="Trazado_718556" data-name="Trazado 718556" d="M169.434,74.387l38.053,23.869-2.335,2.854L169.434,79.576l-36.021,21.535-2.2-2.725Z" transform="translate(-1.659 -0.94)" fill="#12263f"/>
    <rect id="Rectángulo_348943" data-name="Rectángulo 348943" width="15.178" height="15.178" transform="translate(140.836 99.522)" fill="#54bae7"/>
    <rect id="Rectángulo_348944" data-name="Rectángulo 348944" width="15.178" height="15.178" transform="translate(179.754 99.522)" fill="#54bae7"/>
    <rect id="Rectángulo_348945" data-name="Rectángulo 348945" width="12.367" height="21.534" transform="translate(161.419 100.171)" fill="#f2af41"/>
    <path id="Trazado_718557" data-name="Trazado 718557" d="M173.249,118.453h-7.091V106.1h7.091" transform="translate(-2.1 -1.341)" fill="#c07b00"/>
    <path id="Trazado_718558" data-name="Trazado 718558" d="M174.517,92.115a4.653,4.653,0,1,1-4.653-4.653,4.653,4.653,0,0,1,4.653,4.653" transform="translate(-2.088 -1.106)" fill="#54bae7"/>
    <path id="Trazado_718559" data-name="Trazado 718559" d="M92.34,126.283H85.417L87.876,43.3h2Z" transform="translate(-1.08 -0.547)" fill="#12263f"/>
    <path id="Trazado_718560" data-name="Trazado 718560" d="M88.894,10.409s-5.085,15.758,0,30.423c5.085-14.664,0-30.423,0-30.423" transform="translate(-1.095 -0.132)" fill="#e8e8e8"/>
    <path id="Trazado_718561" data-name="Trazado 718561" d="M60.462,59.73s16.19-3.476,26.347-15.211C71.567,47.447,60.462,59.73,60.462,59.73" transform="translate(-0.764 -0.563)" fill="#e8e8e8"/>
    <path id="Trazado_718562" data-name="Trazado 718562" d="M117.209,59.5s-16.19-3.476-26.347-15.211C106.1,47.217,117.209,59.5,117.209,59.5" transform="translate(-1.149 -0.56)" fill="#e8e8e8"/>
    <path id="Trazado_718563" data-name="Trazado 718563" d="M87.407,40.333,85.671,43.34a1.7,1.7,0,0,0,1.473,2.551h3.471a1.7,1.7,0,0,0,1.473-2.551l-1.736-3.007a1.7,1.7,0,0,0-2.945,0" transform="translate(-1.08 -0.499)" fill="#008b8a"/>
    <path id="Trazado_718564" data-name="Trazado 718564" d="M131.86,126.283h-6.923L127.4,43.3h2Z" transform="translate(-1.579 -0.547)" fill="#12263f"/>
    <path id="Trazado_718565" data-name="Trazado 718565" d="M159.88,36.843S143.414,35.09,130.1,43.069c15.394,1.977,29.779-6.226,29.779-6.226" transform="translate(-1.645 -0.464)" fill="#e8e8e8"/>
    <path id="Trazado_718566" data-name="Trazado 718566" d="M105.968,19.119s6.715,15.136,20.281,22.677c-5.985-14.321-20.281-22.677-20.281-22.677" transform="translate(-1.34 -0.242)" fill="#e8e8e8"/>
    <path id="Trazado_718567" data-name="Trazado 718567" d="M117.875,74.578s.089-16.559,9.5-28.9c.254,15.518-9.5,28.9-9.5,28.9" transform="translate(-1.49 -0.577)" fill="#e8e8e8"/>
    <path id="Trazado_718568" data-name="Trazado 718568" d="M130.582,41.5l-3.3-1.084a1.7,1.7,0,0,0-2.195,1.964l.71,3.4a1.7,1.7,0,0,0,2.8.919l2.588-2.314a1.7,1.7,0,0,0-.6-2.883" transform="translate(-1.581 -0.51)" fill="#008b8a"/>
    <path id="Trazado_718569" data-name="Trazado 718569" d="M91.877,127.106H121.6a8.863,8.863,0,0,0,2.113-8.978c-1.23-3.554-6.841-3.634-7.914.243,0,0,1.536-6.947-.6-7.271s-2,6.867-2,6.867-2.27-6.3-10.311-4.2c-6.824,1.777-6.963,9.452-6.963,9.452s-3.638-8.034-5.569-5.978c-1.745,1.858,4.4,7.271,4.4,7.271s-1.767-.22-2.875,2.6" transform="translate(-1.138 -1.404)" fill="#678f00"/>
    <path id="Trazado_718570" data-name="Trazado 718570" d="M93.8,127.16h26s4.37-3.922,1.672-7.578c-2.305-3.123-6.315-1.185-6.454,2.477,0,0-4.087-8.617-11.192-6.3s-6.409,9.424-6.409,9.424-2.9-.732-3.612,1.977" transform="translate(-1.186 -1.458)" fill="#a9dd62"/>
    <rect id="Rectángulo_348946" data-name="Rectángulo 348946" width="16.367" height="2.771" transform="translate(130.053 116.344)" fill="#00667c"/>
    <rect id="Rectángulo_348947" data-name="Rectángulo 348947" width="4.567" height="8.595" transform="translate(135.953 117.107)" fill="#00667c"/>
    <path id="Trazado_718571" data-name="Trazado 718571" d="M155.8,119.207H126.763l-4.742-12.484h29.033Z" transform="translate(-1.542 -1.349)" fill="#fff"/>
    <path id="Trazado_718572" data-name="Trazado 718572" d="M126.754,119.851a.652.652,0,0,1-.61-.421L121.4,106.947a.653.653,0,1,1,1.22-.464l4.742,12.483a.653.653,0,0,1-.61.886" transform="translate(-1.534 -1.341)" fill="#00667c"/>
    <path id="Trazado_718573" data-name="Trazado 718573" d="M136.6,119.851a.652.652,0,0,1-.61-.421l-4.742-12.484a.653.653,0,1,1,1.221-.464l4.741,12.483a.653.653,0,0,1-.61.886" transform="translate(-1.659 -1.341)" fill="#00667c"/>
    <path id="Trazado_718574" data-name="Trazado 718574" d="M146.454,119.851a.652.652,0,0,1-.61-.421L141.1,106.947a.653.653,0,1,1,1.221-.464l4.742,12.483a.653.653,0,0,1-.61.886" transform="translate(-1.783 -1.341)" fill="#00667c"/>
    <path id="Trazado_718575" data-name="Trazado 718575" d="M156.159,119.851a.652.652,0,0,1-.61-.421l-4.742-12.484a.653.653,0,1,1,1.22-.464l4.742,12.483a.653.653,0,0,1-.61.886" transform="translate(-1.906 -1.341)" fill="#00667c"/>
    <path id="Trazado_718576" data-name="Trazado 718576" d="M152.143,110.259H123.11a.653.653,0,1,1,0-1.306h29.033a.653.653,0,1,1,0,1.306" transform="translate(-1.548 -1.377)" fill="#00667c"/>
    <path id="Trazado_718577" data-name="Trazado 718577" d="M154.329,116.012H125.3a.653.653,0,1,1,0-1.306h29.033a.653.653,0,1,1,0,1.306" transform="translate(-1.576 -1.45)" fill="#00667c"/>
    <rect id="Rectángulo_348948" data-name="Rectángulo 348948" width="16.367" height="2.771" transform="translate(82.747 116.344)" fill="#00667c"/>
    <rect id="Rectángulo_348949" data-name="Rectángulo 348949" width="4.567" height="8.595" transform="translate(88.647 117.107)" fill="#00667c"/>
    <path id="Trazado_718578" data-name="Trazado 718578" d="M107.884,119.207H78.851l-4.742-12.484h29.033Z" transform="translate(-0.937 -1.349)" fill="#fff"/>
    <path id="Trazado_718579" data-name="Trazado 718579" d="M78.842,119.851a.652.652,0,0,1-.61-.421l-4.743-12.484a.653.653,0,1,1,1.221-.464l4.742,12.483a.653.653,0,0,1-.61.886" transform="translate(-0.928 -1.341)" fill="#00667c"/>
    <path id="Trazado_718580" data-name="Trazado 718580" d="M88.692,119.851a.652.652,0,0,1-.61-.421l-4.742-12.484a.653.653,0,1,1,1.221-.464L89.3,118.966a.653.653,0,0,1-.61.886" transform="translate(-1.053 -1.341)" fill="#00667c"/>
    <path id="Trazado_718581" data-name="Trazado 718581" d="M98.542,119.851a.652.652,0,0,1-.61-.421l-4.742-12.484a.653.653,0,1,1,1.22-.464l4.742,12.483a.653.653,0,0,1-.61.886" transform="translate(-1.177 -1.341)" fill="#00667c"/>
    <path id="Trazado_718582" data-name="Trazado 718582" d="M108.247,119.851a.652.652,0,0,1-.61-.421l-4.743-12.484a.653.653,0,1,1,1.221-.464l4.742,12.483a.653.653,0,0,1-.61.886" transform="translate(-1.3 -1.341)" fill="#00667c"/>
    <path id="Trazado_718583" data-name="Trazado 718583" d="M104.232,110.259H75.2a.653.653,0,1,1,0-1.306h29.033a.653.653,0,1,1,0,1.306" transform="translate(-0.942 -1.377)" fill="#00667c"/>
    <path id="Trazado_718584" data-name="Trazado 718584" d="M106.417,116.012H77.384a.653.653,0,1,1,0-1.306h29.033a.653.653,0,1,1,0,1.306" transform="translate(-0.97 -1.45)" fill="#00667c"/>
    <path id="Trazado_718585" data-name="Trazado 718585" d="M17.247,158.543c43.659,17.745,57.286,3.7,70.77,11.745,0,0-44.983,9.574-70.77-11.745" transform="translate(-0.218 -2.004)" fill="#d4efee"/>
    <path id="Trazado_718586" data-name="Trazado 718586" d="M74.265,176.127c35.617.255,43.915,23.361,43.915,23.361s-11.617-18-43.915-23.361" transform="translate(-0.939 -2.226)" fill="#d4efee"/>
    <path id="Trazado_718588" data-name="Trazado 718588" d="M146.6,216.725s22.6,16.851,53.233,17.233c0,0-33.128,6.7-53.233-17.233" transform="translate(-1.853 -2.74)" fill="#d4efee"/>
    <path id="Trazado_718589" data-name="Trazado 718589" d="M335.849,126.94h4.782l-9.976-29.186-4.22,1.522Z" transform="translate(-4.126 -1.236)" fill="#8c733c"/>
    <path id="Trazado_718590" data-name="Trazado 718590" d="M320.366,126.94h-4.782l9.976-29.186,4.22,1.522Z" transform="translate(-3.989 -1.236)" fill="#8c733c"/>
    <rect id="Rectángulo_348950" data-name="Rectángulo 348950" width="1.55" height="34.606" transform="translate(350.913 91.099)" fill="#374f5e"/>
    <rect id="Rectángulo_348951" data-name="Rectángulo 348951" width="48.003" height="5.733" transform="translate(297.225 99.615) rotate(-13.919)" fill="#d79f11"/>
    <rect id="Rectángulo_348952" data-name="Rectángulo 348952" width="29.248" height="3.656" transform="translate(308.925 111.034)" fill="#d79f11"/>
    <path id="Trazado_718591" data-name="Trazado 718591" d="M344.072,77.416l7.223-2.193L357.359,89.4,360.2,104.56l-7.223,2.194-6.064-14.18Z" transform="translate(-4.349 -0.951)" fill="#3f7480"/>
    <path id="Trazado_718592" data-name="Trazado 718592" d="M349.968,79.052a1.411,1.411,0,1,1-1.411-1.411,1.411,1.411,0,0,1,1.411,1.411" transform="translate(-4.388 -0.981)" fill="#374f5e"/>
    <path id="Trazado_718593" data-name="Trazado 718593" d="M329.084,97.256a1.411,1.411,0,1,1-1.411-1.411,1.411,1.411,0,0,1,1.411,1.411" transform="translate(-4.124 -1.212)" fill="#374f5e"/>
    <path id="Trazado_718594" data-name="Trazado 718594" d="M357.317,102.548a1.411,1.411,0,1,1-1.411-1.411,1.411,1.411,0,0,1,1.411,1.411" transform="translate(-4.481 -1.278)" fill="#374f5e"/>
    <path id="Trazado_718595" data-name="Trazado 718595" d="M395.738,127.311c0,36.813-62.3,23.443-77.106,39.653s-36.751-10.947-53.856-.46c-17.377,10.655,10.6,49.091-56.879,49.091V127.311Z" transform="translate(-2.628 -1.609)" fill="#d79f11"/>
    <path id="Trazado_718596" data-name="Trazado 718596" d="M348.76,152.008c-37.787.418-36.511,14.623-46.942,8.607s-51.1-13.37-51.7,5.055c-.535,16.408,6.164,41.237-42.219,41.237v8.688c67.476,0,39.5-38.436,56.879-49.09,17.1-10.487,39.048,16.67,53.856.459s77.106-2.841,77.106-39.653c0,0-9.191,24.279-46.979,24.7" transform="translate(-2.628 -1.609)" fill="#c07b00"/>
    <path id="Trazado_718597" data-name="Trazado 718597" d="M405.075,148.395a1.8,1.8,0,1,1-1.8-1.8,1.8,1.8,0,0,1,1.8,1.8" transform="translate(-5.075 -1.853)" fill="#c70"/>
    <path id="Trazado_718598" data-name="Trazado 718598" d="M347.592,177.817a4.34,4.34,0,1,1-4.34-4.34,4.34,4.34,0,0,1,4.34,4.34" transform="translate(-4.284 -2.193)" fill="#c70"/>
    <path id="Trazado_718599" data-name="Trazado 718599" d="M385.43,170.41a2.156,2.156,0,1,1-2.156-2.156,2.157,2.157,0,0,1,2.156,2.156" transform="translate(-4.818 -2.127)" fill="#c70"/>
    <path id="Trazado_718600" data-name="Trazado 718600" d="M3.671,127.311s4.6,38.88,55.149,30.837,61.276,26.426,81.191,40.213,32.569,17.233,65.3,17.233V127.311Z" transform="translate(-0.046 -1.609)" fill="#008b8a"/>
    <path id="Trazado_718601" data-name="Trazado 718601" d="M56.518,149.485c-33.357,5.225-47-9.348-52.48-20.2,1.733,7.746,11.081,35.846,54.786,28.892,50.553-8.042,61.276,26.426,81.191,40.213s32.57,17.233,65.3,17.233v-8.688c-33.251,0-46.1-3.447-66.332-17.234s-31.122-48.254-82.469-40.212" transform="translate(-0.051 -1.634)" fill="#005554"/>
    <path id="Trazado_718602" data-name="Trazado 718602" d="M43.318,136.67a1.787,1.787,0,1,1-1.787-1.787,1.787,1.787,0,0,1,1.787,1.787" transform="translate(-0.502 -1.705)" fill="#d4efee"/>
    <path id="Trazado_718603" data-name="Trazado 718603" d="M31.029,132.788a2.042,2.042,0,1,1-2.043-2.043,2.042,2.042,0,0,1,2.043,2.043" transform="translate(-0.341 -1.653)" fill="#d4efee"/>
    <path id="Trazado_718604" data-name="Trazado 718604" d="M32.467,143.4a1.4,1.4,0,1,1-1.4-1.4,1.4,1.4,0,0,1,1.4,1.4" transform="translate(-0.375 -1.795)" fill="#d4efee"/>
    <path id="Trazado_718605" data-name="Trazado 718605" d="M81.283,132.8a1.085,1.085,0,1,1-1.085-1.085,1.085,1.085,0,0,1,1.085,1.085" transform="translate(-1 -1.665)" fill="#d4efee"/>
    <path id="Trazado_718606" data-name="Trazado 718606" d="M94.366,147a2.681,2.681,0,1,1-2.681-2.681A2.681,2.681,0,0,1,94.366,147" transform="translate(-1.125 -1.824)" fill="#d4efee"/>
    <path id="Trazado_718607" data-name="Trazado 718607" d="M63.454,140.306a.574.574,0,1,1-.575-.575.575.575,0,0,1,.575.575" transform="translate(-0.788 -1.766)" fill="#d4efee"/>
    <path id="Trazado_718608" data-name="Trazado 718608" d="M180.04,188.644a1.979,1.979,0,1,1-1.979-1.979,1.978,1.978,0,0,1,1.979,1.979" transform="translate(-2.226 -2.36)" fill="#d4efee"/>
    <path id="Trazado_718609" data-name="Trazado 718609" d="M172.491,157.1a1.4,1.4,0,1,1-1.4-1.4,1.4,1.4,0,0,1,1.4,1.4" transform="translate(-2.145 -1.968)" fill="#d4efee"/>
    <path id="Trazado_718610" data-name="Trazado 718610" d="M153.679,170.387a3.957,3.957,0,1,1-3.957-3.957,3.957,3.957,0,0,1,3.957,3.957" transform="translate(-1.843 -2.104)" fill="#d4efee"/>
    <path id="Trazado_718611" data-name="Trazado 718611" d="M159.107,183.736a1.468,1.468,0,1,1-1.468-1.468,1.469,1.469,0,0,1,1.468,1.468" transform="translate(-1.974 -2.304)" fill="#d4efee"/>
    <path id="Trazado_718612" data-name="Trazado 718612" d="M119.8,144.818a1.6,1.6,0,1,1-1.6-1.6,1.595,1.595,0,0,1,1.6,1.6" transform="translate(-1.474 -1.81)" fill="#d4efee"/>
    <path id="Trazado_718613" data-name="Trazado 718613" d="M125.817,154.259a1.4,1.4,0,1,1-1.4-1.4,1.4,1.4,0,0,1,1.4,1.4" transform="translate(-1.555 -1.932)" fill="#d4efee"/>
    <path id="Trazado_718614" data-name="Trazado 718614" d="M161.366,135.638a1.66,1.66,0,1,1-1.66-1.66,1.66,1.66,0,0,1,1.66,1.66" transform="translate(-1.998 -1.694)" fill="#d4efee"/>
    <path id="Trazado_718615" data-name="Trazado 718615" d="M194.68,140.271a3.319,3.319,0,1,1-3.319-3.319,3.319,3.319,0,0,1,3.319,3.319" transform="translate(-2.377 -1.731)" fill="#d4efee"/>
    <path id="Trazado_718616" data-name="Trazado 718616" d="M193.546,167.7a2.17,2.17,0,1,1-2.17-2.17,2.17,2.17,0,0,1,2.17,2.17" transform="translate(-2.392 -2.092)" fill="#d4efee"/>
    <path id="Trazado_718617" data-name="Trazado 718617" d="M197.142,195.256a.575.575,0,1,1-.575-.575.575.575,0,0,1,.575.575" transform="translate(-2.477 -2.461)" fill="#d4efee"/>
    <path id="Trazado_718618" data-name="Trazado 718618" d="M145.5,148.378a3.1,3.1,0,1,1-3.1-3.1,3.1,3.1,0,0,1,3.1,3.1" transform="translate(-1.761 -1.836)" fill="#d4efee"/>
    <path id="Trazado_718619" data-name="Trazado 718619" d="M224.523,162.376a1.95,1.95,0,1,1-1.95-1.95,1.95,1.95,0,0,1,1.95,1.95" transform="translate(-2.789 -2.028)" fill="#c07b00"/>
    <path id="Trazado_718620" data-name="Trazado 718620" d="M235.331,175.269a1.632,1.632,0,1,1-1.632-1.632,1.632,1.632,0,0,1,1.632,1.632" transform="translate(-2.933 -2.195)" fill="#c07b00"/>
    <path id="Trazado_718621" data-name="Trazado 718621" d="M244.379,145.21a5.006,5.006,0,1,1-5.006-5.006,5.006,5.006,0,0,1,5.006,5.006" transform="translate(-2.963 -1.772)" fill="#c07b00"/>
    <path id="Trazado_718622" data-name="Trazado 718622" d="M222.375,135.636a1.774,1.774,0,1,1-1.773-1.773,1.773,1.773,0,0,1,1.773,1.773" transform="translate(-2.766 -1.692)" fill="#c07b00"/>
    <path id="Trazado_718623" data-name="Trazado 718623" d="M262.092,136.492a2.207,2.207,0,1,1-2.206-2.207,2.206,2.206,0,0,1,2.206,2.207" transform="translate(-3.257 -1.697)" fill="#c07b00"/>
    <path id="Trazado_718624" data-name="Trazado 718624" d="M269.858,145.857a1.334,1.334,0,1,1-1.334-1.334,1.334,1.334,0,0,1,1.334,1.334" transform="translate(-3.377 -1.827)" fill="#c07b00"/>
    <path id="Trazado_718625" data-name="Trazado 718625" d="M289.446,135.643a1.277,1.277,0,1,1-1.277-1.277,1.277,1.277,0,0,1,1.277,1.277" transform="translate(-3.627 -1.698)" fill="#c07b00"/>
    <path id="Trazado_718626" data-name="Trazado 718626" d="M306.161,150.3a3.181,3.181,0,1,1-3.181-3.181,3.181,3.181,0,0,1,3.181,3.181" transform="translate(-3.79 -1.86)" fill="#c07b00"/>
    <path id="Trazado_718627" data-name="Trazado 718627" d="M339.607,138.713a3.233,3.233,0,1,1-3.233-3.233,3.233,3.233,0,0,1,3.233,3.233" transform="translate(-4.211 -1.713)" fill="#c07b00"/>
    <path id="Trazado_718628" data-name="Trazado 718628" d="M317.9,135.636a1.774,1.774,0,1,1-1.773-1.773,1.773,1.773,0,0,1,1.773,1.773" transform="translate(-3.974 -1.692)" fill="#c07b00"/>
    <path id="Trazado_718629" data-name="Trazado 718629" d="M366.371,143.858a3.284,3.284,0,1,1-3.284-3.284,3.284,3.284,0,0,1,3.284,3.284" transform="translate(-4.548 -1.777)" fill="#c07b00"/>
    <path id="Trazado_718630" data-name="Trazado 718630" d="M373.3,133.178a1.158,1.158,0,1,1-1.157-1.157,1.157,1.157,0,0,1,1.157,1.157" transform="translate(-4.69 -1.669)" fill="#c07b00"/>
  </g>
</svg>
