<svg xmlns="http://www.w3.org/2000/svg" xmlns:xlink="http://www.w3.org/1999/xlink" width="114.09" height="110.511" viewBox="0 0 114.09 110.511">
  <defs>
    <clipPath id="clip-path">
      <rect id="Rect치ngulo_346374" data-name="Rect치ngulo 346374" width="16.413" height="37.372" transform="translate(0 0)" fill="none" stroke="#12263f" stroke-width="1"/>
    </clipPath>
    <clipPath id="clip-path-2">
      <rect id="Rect치ngulo_346376" data-name="Rect치ngulo 346376" width="91.646" height="71.683" fill="none"/>
    </clipPath>
  </defs>
  <g id="Grupo_1002341" data-name="Grupo 1002341" transform="translate(-811 -278.535)">
    <g id="Grupo_1002316" data-name="Grupo 1002316" transform="matrix(-0.799, 0.602, -0.602, -0.799, 925.09, 379.168)">
      <g id="Grupo_1002212" data-name="Grupo 1002212" transform="translate(0 0)" clip-path="url(#clip-path)">
        <path id="Trazado_707910" data-name="Trazado 707910" d="M3.558,0C-.933,8.983-.434,22.586,1.063,32.566" transform="translate(8.641 1.22)" fill="none" stroke="#12263f" stroke-linecap="round" stroke-linejoin="round" stroke-width="3"/>
        <path id="Trazado_707911" data-name="Trazado 707911" d="M0,1c2.994,2.994,6.488,4.99,9.481,7.485A27.736,27.736,0,0,1,13.973,0" transform="translate(1.22 27.668)" fill="none" stroke="#12263f" stroke-linecap="round" stroke-linejoin="round" stroke-width="3"/>
      </g>
    </g>
    <g id="Grupo_1002319" data-name="Grupo 1002319" transform="matrix(0.966, -0.259, 0.259, 0.966, 811, 302.255)">
      <g id="Grupo_1002218" data-name="Grupo 1002218" transform="translate(0 0)" clip-path="url(#clip-path-2)">
        <path id="Trazado_707923" data-name="Trazado 707923" d="M2.5,7.372a7.8,7.8,0,0,1-1.543-.59C.583,6.539.112,6.116.08,5.739A12.867,12.867,0,0,1,.148,2.318,2.487,2.487,0,0,1,2.617.282,68.826,68.826,0,0,1,13.406.153c1.482.1,2.975.159,4.44.384,2.233.344,2.916,1.2,3.012,3.482.026.624.019,1.251,0,1.876-.028,1.062-.256,1.339-1.29,1.562-.326.071-.669.072-1,.129-.28.047-.558.127-.905.209,0,.864-.026,1.714,0,2.563.166,4.645.4,9.287.5,13.934.076,3.6.047,7.194-.058,10.789-.075,2.539-.272,5.081-.567,7.6a5.085,5.085,0,0,1-3.473,4.528,9.927,9.927,0,0,1-6.176.639A4.449,4.449,0,0,1,5.655,46.4c-1.926-2.192-2.3-4.879-2.7-7.608a95.556,95.556,0,0,1-.467-10.208c-.14-3.6-.187-7.2-.194-10.806-.006-2.449.138-4.9.2-7.347.025-1,.006-2.011.006-3.06m1.241.05c-.1,1.557-.241,2.892-.264,4.229-.051,2.881-.032,5.763-.067,8.644-.015,1.292-.164,2.584-.125,3.872.081,2.729.326,5.454.357,8.182A60.513,60.513,0,0,0,4.429,40.8a8.87,8.87,0,0,0,2.152,4.635,3.275,3.275,0,0,0,1.933,1.139,9.173,9.173,0,0,0,6.443-1.4,2.818,2.818,0,0,0,.905-1.087,11.851,11.851,0,0,0,1.009-4.88c.19-2.194.2-4.4.241-6.609.067-3.788.13-7.577.13-11.365,0-2.157-.077-4.317-.212-6.47-.145-2.337-.4-4.667-.609-7.09-4.243-.74-8.4-.113-12.679-.248m6.55-6.158c0-.076,0-.154,0-.232-2.3.084-4.6.139-6.9.26C1.733,1.381,1.171,2,1.12,3.613,1.052,5.748,1.382,6.124,3.5,6.292c.333.027.671.023,1.006.027,1.676.017,3.355-.014,5.027.059,2.388.106,4.774.261,7.157.445,2.429.186,3.337-.78,2.848-3.113a6.484,6.484,0,0,1-.177-.694A1.324,1.324,0,0,0,18.14,1.793a20.621,20.621,0,0,0-2.964-.505c-1.624-.084-3.255-.023-4.884-.023" transform="translate(0 0)" fill="#12263f" fill-rule="evenodd"/>
        <path id="Trazado_707924" data-name="Trazado 707924" d="M.463.12C4.745.255,8.9-.371,13.142.368c.213,2.422.464,4.754.609,7.09.134,2.153.213,4.312.212,6.47,0,3.788-.062,7.577-.13,11.365-.04,2.205-.05,4.416-.241,6.61a11.854,11.854,0,0,1-1.009,4.88,2.824,2.824,0,0,1-.905,1.087,9.173,9.173,0,0,1-6.443,1.4A3.275,3.275,0,0,1,3.3,38.133,8.87,8.87,0,0,1,1.15,33.5a60.622,60.622,0,0,1-.787-8.451c-.03-2.727-.275-5.453-.357-8.182-.038-1.288.111-2.58.126-3.872C.167,10.112.148,7.229.2,4.349.222,3.011.361,1.677.463.12" transform="translate(3.279 7.302)" fill="#fff" fill-rule="evenodd"/>
        <path id="Trazado_707925" data-name="Trazado 707925" d="M.329.1c3.037.111,5.984-.4,9,.2.151,1.986.329,3.9.432,5.814.1,1.765.151,3.536.151,5.3,0,3.106-.044,6.214-.092,9.32-.029,1.807-.035,3.621-.171,5.419a10.98,10.98,0,0,1-.717,4,2.255,2.255,0,0,1-.641.892A5.818,5.818,0,0,1,3.714,32.2a2.285,2.285,0,0,1-1.372-.933,7.819,7.819,0,0,1-1.527-3.8,57.577,57.577,0,0,1-.558-6.93C.236,18.3.063,16.067,0,13.829c-.028-1.056.078-2.116.089-3.175C.119,8.292.105,5.928.141,3.566.158,2.47.257,1.375.329.1" transform="translate(5.306 10.848)" fill="#4db1f0" fill-rule="evenodd"/>
        <path id="Trazado_707926" data-name="Trazado 707926" d="M9.18.232c1.63,0,3.26-.061,4.884.023a20.621,20.621,0,0,1,2.964.505,1.324,1.324,0,0,1,1.217,1.223,6.483,6.483,0,0,0,.177.694c.489,2.333-.419,3.3-2.848,3.113-2.383-.184-4.768-.339-7.157-.445C6.745,5.272,5.066,5.3,3.39,5.286c-.335,0-.673,0-1.006-.027C.271,5.092-.06,4.715.008,2.581.059.967.622.349,2.283.26c2.3-.122,4.6-.176,6.9-.26,0,.078,0,.156,0,.232" transform="translate(1.112 1.033)" fill="#fff" fill-rule="evenodd"/>
        <path id="Trazado_707927" data-name="Trazado 707927" d="M.427.885h3.3A.443.443,0,0,0,3.73,0H.427a.443.443,0,0,0,0,.885" transform="translate(13.15 11.6)" fill="#12263f"/>
        <path id="Trazado_707928" data-name="Trazado 707928" d="M.323.863A19.437,19.437,0,0,0,4.1,1a.443.443,0,0,0,0-.885A18.36,18.36,0,0,1,.558.01.454.454,0,0,0,.014.319.447.447,0,0,0,.323.863" transform="translate(13.136 16.678)" fill="#12263f"/>
        <path id="Trazado_707929" data-name="Trazado 707929" d="M.323.863A18.782,18.782,0,0,0,3.979,1a.443.443,0,0,0,0-.885A17.7,17.7,0,0,1,.558.01.454.454,0,0,0,.014.319.447.447,0,0,0,.323.863" transform="translate(13.373 22.693)" fill="#12263f"/>
        <path id="Trazado_707930" data-name="Trazado 707930" d="M.442.887A28.245,28.245,0,0,0,3.509,1,.449.449,0,0,0,3.951.562.448.448,0,0,0,3.509.12,28.245,28.245,0,0,1,.442,0,.445.445,0,0,0,0,.444.453.453,0,0,0,.442.887" transform="translate(13.725 28.111)" fill="#12263f"/>
        <path id="Trazado_707931" data-name="Trazado 707931" d="M.321.863A9.732,9.732,0,0,0,2.207,1,.447.447,0,0,0,2.65.554.45.45,0,0,0,2.207.112c-.289,0-.579,0-.868-.013C1.2.091,1.056.081.914.066L.812.054c-.1-.012.076.013-.018,0S.635.025.555.01A.451.451,0,0,0,.011.318.449.449,0,0,0,.321.863" transform="translate(15.145 25.642)" fill="#12263f"/>
        <path id="Trazado_707932" data-name="Trazado 707932" d="M.321.985A4.338,4.338,0,0,0,2.207.867.446.446,0,0,0,2.516.323.452.452,0,0,0,1.972.014c-.117.029-.234.057-.352.081-.068.013-.136.026-.2.037-.03,0-.06.008-.088.013.127-.024.01,0-.02,0A3.375,3.375,0,0,1,.9.165C.834.163.765.16.695.153L.631.146.684.154A.743.743,0,0,1,.555.132.452.452,0,0,0,.011.441.449.449,0,0,0,.321.985" transform="translate(15.026 19.504)" fill="#12263f"/>
        <path id="Trazado_707933" data-name="Trazado 707933" d="M.443.885h2A.447.447,0,0,0,2.89.442.45.45,0,0,0,2.448,0h-2A.447.447,0,0,0,0,.442.45.45,0,0,0,.443.885" transform="translate(14.668 14.431)" fill="#12263f"/>
        <path id="Trazado_707934" data-name="Trazado 707934" d="M37.245,7.945c1.063-.493,2.006-.966,2.976-1.374a17.509,17.509,0,0,1,7.465-1.28c2.2.075,4.407.172,6.608.314a17.4,17.4,0,0,1,5.776,1.719c1.671.725,3.3,1.548,4.958,2.3A14.906,14.906,0,0,1,68.816,12.2a2.21,2.21,0,0,1,.748,2.292c-.676,3.786-1.311,7.58-1.946,11.373C66.8,30.749,66,35.633,65.178,40.513c-.529,3.12-1.1,6.235-1.655,9.351a7.254,7.254,0,0,1-.282.967.963.963,0,0,1-1.215.707c-3.043-.412-6.107-.706-9.139-1.191-4.174-.669-8.318-1.544-12.495-2.2-3.884-.608-7.8-1.042-11.695-1.555-.429-.057-.857-.121-1.283-.2-3.536-.648-7.067-1.326-10.608-1.941-1.938-.336-3.9-.541-5.838-.855-3.081-.5-6.152-1.04-9.23-1.554-1.81-.3-1.939-.473-1.572-2.231.5-2.4,1.071-4.779,1.49-7.189Q2.7,26.6,3.585,20.552c.465-3.134.854-6.279,1.226-9.424q.481-4.076.831-8.17A1.507,1.507,0,0,1,6.919,1.4,21.387,21.387,0,0,1,12.779.033,33.993,33.993,0,0,1,23.89,1.216c1.97.6,3.949,1.164,5.924,1.746a2.168,2.168,0,0,1,.544.181c2.35,1.463,5.034,2.441,6.887,4.8M68.4,13.582a27.288,27.288,0,0,0-3.272-2.364c-2.249-1.179-4.582-2.2-6.9-3.238a15.844,15.844,0,0,0-6.335-1.163c-.767-.011-1.541.069-2.3-.006a17.1,17.1,0,0,0-11.2,2.354,2.041,2.041,0,0,0-1.1,1.51c-.284,1.844-.612,3.683-.82,5.536-.283,2.523-.4,5.064-.713,7.583-.43,3.525-.96,7.037-1.459,10.554a53.626,53.626,0,0,1-1.4,8.371,1.8,1.8,0,0,0,.016.523c.793-.5,1.455-.965,2.166-1.345,2.468-1.324,5.213-1.517,7.913-1.868a21.054,21.054,0,0,1,6.867.582,18.332,18.332,0,0,1,10.816,6.1c.5.594,1.047,1.152,1.769,1.943,2.014-11.856,3.974-23.386,5.959-35.067M1.89,38.233c.309-.2.572-.392.86-.537A24.013,24.013,0,0,1,7,35.633a20.014,20.014,0,0,1,15.573,1.855,28.924,28.924,0,0,1,7.763,6.557c.2.239.444.447.821.825.473-2,1.025-3.786,1.3-5.618.578-3.795,1.018-7.61,1.5-11.419.275-2.188.524-4.379.77-6.57.075-.667.062-1.344.149-2.009.394-3,.754-6.005,1.241-8.99A2.682,2.682,0,0,0,35.05,7.507a22.994,22.994,0,0,0-1.984-1.426A24.736,24.736,0,0,0,28.012,3.7a38.831,38.831,0,0,0-14.4-2.335A13.677,13.677,0,0,0,6.852,3.218C5.678,14.947,4.169,26.6,1.89,38.233M61.2,50.051A6.845,6.845,0,0,0,60.77,49a16.521,16.521,0,0,0-6.107-5.347,21.257,21.257,0,0,0-7.325-2.013A23.28,23.28,0,0,0,36.3,42.949a6.033,6.033,0,0,0-3.156,2.725c.66.147,1.205.3,1.764.387,1.471.225,2.952.379,4.417.634,4.92.851,9.823,1.782,14.75,2.583,2.259.367,4.555.5,7.127.774M29.073,45.286l.207-.392a28.976,28.976,0,0,0-5.223-4.863A19.6,19.6,0,0,0,13.6,36.407,15.033,15.033,0,0,0,4,38.72a8.571,8.571,0,0,0-1.972,1.97l27.046,4.6" transform="translate(22.022 20.125)" fill="#12263f" fill-rule="evenodd"/>
        <path id="Trazado_707935" data-name="Trazado 707935" d="M35.522,6.884C33.537,18.566,31.578,30.1,29.564,41.952c-.723-.79-1.269-1.349-1.769-1.943a18.337,18.337,0,0,0-10.816-6.1,21.075,21.075,0,0,0-6.867-.581c-2.7.351-5.446.543-7.913,1.868-.711.38-1.372.849-2.166,1.345a1.8,1.8,0,0,1-.016-.524,53.618,53.618,0,0,0,1.4-8.37c.5-3.517,1.03-7.029,1.459-10.554.309-2.519.43-5.06.713-7.583.207-1.853.535-3.692.82-5.536a2.041,2.041,0,0,1,1.1-1.51A17.1,17.1,0,0,1,16.711.114c.76.074,1.534-.006,2.3.006a15.819,15.819,0,0,1,6.335,1.163C27.668,2.32,30,3.342,32.251,4.521a27.188,27.188,0,0,1,3.272,2.364" transform="translate(54.903 26.822)" fill="#fff" fill-rule="evenodd"/>
        <path id="Trazado_707936" data-name="Trazado 707936" d="M0,36.888C2.279,25.254,3.789,13.6,4.962,1.872A13.693,13.693,0,0,1,11.721.016a38.842,38.842,0,0,1,14.4,2.335,24.733,24.733,0,0,1,5.054,2.384,23.158,23.158,0,0,1,1.985,1.426A2.682,2.682,0,0,1,34.229,8.92c-.488,2.985-.847,5.991-1.241,8.99-.087.665-.074,1.342-.149,2.008-.246,2.192-.495,4.383-.769,6.571-.48,3.808-.919,7.624-1.5,11.418-.277,1.832-.829,3.623-1.3,5.619-.377-.378-.616-.586-.821-.825a28.932,28.932,0,0,0-7.762-6.557A20.013,20.013,0,0,0,5.113,34.289,23.964,23.964,0,0,0,.86,36.351c-.287.145-.55.342-.86.537" transform="translate(23.912 21.469)" fill="#fff" fill-rule="evenodd"/>
        <path id="Trazado_707937" data-name="Trazado 707937" d="M28.057,8.588c-2.572-.272-4.868-.407-7.126-.774C16,7.013,11.1,6.083,6.181,5.231,4.716,4.977,3.234,4.822,1.764,4.6,1.205,4.512.659,4.357,0,4.211A6.026,6.026,0,0,1,3.155,1.486,23.28,23.28,0,0,1,14.2.178,21.276,21.276,0,0,1,21.522,2.19a16.535,16.535,0,0,1,6.107,5.348,6.906,6.906,0,0,1,.428,1.051" transform="translate(55.164 61.587)" fill="#cbd3dc" fill-rule="evenodd"/>
        <path id="Trazado_707938" data-name="Trazado 707938" d="M27.046,8.914,0,4.319a8.571,8.571,0,0,1,1.972-1.97,15.033,15.033,0,0,1,9.6-2.313A19.6,19.6,0,0,1,22.03,3.659a28.976,28.976,0,0,1,5.223,4.863l-.207.392" transform="translate(24.05 56.497)" fill="#cbd3dc" fill-rule="evenodd"/>
        <path id="Trazado_707939" data-name="Trazado 707939" d="M.745.277C.745,2.872-.2,5.7.038,8.179c.118,1.534-.354,1.062,1.3,1.534a15.216,15.216,0,0,0,3.3.118c2.831.236,3.421.354,3.421-2.949,0-2.123.117-4.128.236-6.251A24.9,24.9,0,0,0,.982.041" transform="translate(32.056 26.627)" fill="#ffa031" fill-rule="evenodd"/>
        <path id="Trazado_707940" data-name="Trazado 707940" d="M.427.885C4.431.89,8.591,1.228,12,3.537c.472.321.915-.446.446-.764C8.915.38,4.577.006.427,0a.443.443,0,0,0,0,.885" transform="translate(42.518 28.467)" fill="#12263f"/>
        <path id="Trazado_707941" data-name="Trazado 707941" d="M.424.887A56.991,56.991,0,0,1,11.983,2.758a.443.443,0,0,0,.235-.853A58.127,58.127,0,0,0,.424,0C-.143-.047-.14.838.424.887" transform="translate(42.167 32.357)" fill="#12263f"/>
        <path id="Trazado_707942" data-name="Trazado 707942" d="M.421.888A92.234,92.234,0,0,1,11.509,3a.443.443,0,0,0,.235-.853A94.212,94.212,0,0,0,.421,0C-.143-.065-.138.82.421.888" transform="translate(41.817 36.248)" fill="#12263f"/>
        <path id="Trazado_707943" data-name="Trazado 707943" d="M.427.89a117.316,117.316,0,0,1,11.763.326c3.95.4,8.034,1.241,11.368,3.506.472.321.915-.446.446-.764C20.688,1.7,16.652.826,12.725.388A110.209,110.209,0,0,0,.427.005a.443.443,0,0,0,0,.885" transform="translate(29.308 40.374)" fill="#12263f"/>
        <path id="Trazado_707944" data-name="Trazado 707944" d="M.55,1.562a29.158,29.158,0,0,1,11.627-.2,24.418,24.418,0,0,1,10.8,4.049c.456.341.9-.426.447-.764C20.2,2.236,16.083,1.072,12.159.469A30.1,30.1,0,0,0,.315.709a.443.443,0,0,0,.235.853" transform="translate(28.949 44.05)" fill="#12263f"/>
        <path id="Trazado_707945" data-name="Trazado 707945" d="M.421.888c4.509.53,9.1-.28,13.573.619a46.036,46.036,0,0,1,4.548,1.141A10.99,10.99,0,0,1,22.99,4.887c.411.393,1.037-.231.626-.626C21.3,2.043,17.6,1.383,14.575.727,9.906-.286,5.13.557.421,0c-.564-.067-.56.819,0,.885" transform="translate(28.135 48.514)" fill="#12263f"/>
        <path id="Trazado_707946" data-name="Trazado 707946" d="M.427.962a60.384,60.384,0,0,1,11.235.382A24.3,24.3,0,0,1,22.024,5.5c.466.33.908-.437.447-.764A24.864,24.864,0,0,0,11.9.491,61.568,61.568,0,0,0,.427.077c-.568.017-.57.9,0,.885" transform="translate(28.365 52.333)" fill="#12263f"/>
        <path id="Trazado_707947" data-name="Trazado 707947" d="M.826.638C.59,2.29.118,3.705,0,5.238,2.713,5,5.662,4.295,8.728,4.649c2.477.236,4.718,1.534,6.959,2.359a23.445,23.445,0,0,0,1.3-4.717C14.508,1.582,11.441.284,8.964.049,6.251-.187,4.143.5.826.638" transform="translate(58.633 52.214)" fill="#008b8a" fill-rule="evenodd"/>
        <path id="Trazado_707948" data-name="Trazado 707948" d="M1.887,0C1.415,4.836.59,9.672,0,14.389a21.6,21.6,0,0,1,6.133,2.477c1.415-2.241,1.534-6.251,2.123-8.846A25.529,25.529,0,0,0,8.964,1.3,66.947,66.947,0,0,0,2.241.118" transform="translate(77.268 45.068)" fill="#cbd3dc" fill-rule="evenodd"/>
        <path id="Trazado_707949" data-name="Trazado 707949" d="M.55,1.947C8.256-.032,16.927.644,23.8,4.852c.487.3.932-.466.447-.764-7.07-4.33-16-5.03-23.93-2.994a.443.443,0,0,0,.235.853" transform="translate(62.21 30.691)" fill="#12263f"/>
        <path id="Trazado_707950" data-name="Trazado 707950" d="M.426,1.3A71.122,71.122,0,0,1,12.1,1.065c3.822.4,7.492,1.774,11.087,3.051.537.19.769-.664.235-.853A52.288,52.288,0,0,0,12.436.222C8.464-.269,4.4.172.426.416c-.565.035-.57.919,0,.885" transform="translate(61.863 35.127)" fill="#12263f"/>
        <path id="Trazado_707951" data-name="Trazado 707951" d="M.42,1.265a47.513,47.513,0,0,1,13,.137c3.076.436,6.51.95,9.185,2.633.483.3.927-.461.446-.764C20.317,1.55,16.844,1.007,13.7.555A48.083,48.083,0,0,0,.42.38c-.556.074-.563.959,0,.885" transform="translate(61.869 39.645)" fill="#12263f"/>
        <path id="Trazado_707952" data-name="Trazado 707952" d="M.427.885C5.479.991,10.6.675,15.525,2.048A.443.443,0,0,0,15.76,1.2C10.761-.2,5.559.108.427,0a.443.443,0,0,0,0,.885" transform="translate(60.918 43.918)" fill="#12263f"/>
        <path id="Trazado_707953" data-name="Trazado 707953" d="M.424,1.118C5.254.666,10.35.637,14.708,3.062c.5.277.944-.487.446-.764C10.655-.205,5.417-.234.424.233c-.562.052-.568.938,0,.885" transform="translate(60.332 47.695)" fill="#12263f"/>
      </g>
    </g>
  </g>
</svg>
