<svg xmlns="http://www.w3.org/2000/svg" xmlns:xlink="http://www.w3.org/1999/xlink" width="64.31" height="109.957" viewBox="0 0 64.31 109.957">
  <defs>
    <clipPath id="clip-path">
      <rect id="Rect치ngulo_346374" data-name="Rect치ngulo 346374" width="17.821" height="40.577" fill="none" stroke="#12263f" stroke-width="1"/>
    </clipPath>
    <clipPath id="clip-path-2">
      <rect id="Rect치ngulo_346375" data-name="Rect치ngulo 346375" width="64.31" height="63.158" fill="#12263f"/>
    </clipPath>
  </defs>
  <g id="Grupo_1002339" data-name="Grupo 1002339" transform="translate(-1278 -127.285)">
    <g id="Grupo_1002317" data-name="Grupo 1002317" transform="translate(1311.815 237.242) rotate(-155)">
      <g id="Grupo_1002212" data-name="Grupo 1002212" transform="translate(0 0)" clip-path="url(#clip-path)">
        <path id="Trazado_707910" data-name="Trazado 707910" d="M3.863,0C-1.013,9.753-.472,24.523,1.154,35.359" transform="translate(9.382 1.325)" fill="none" stroke="#12263f" stroke-linecap="round" stroke-linejoin="round" stroke-width="3"/>
        <path id="Trazado_707911" data-name="Trazado 707911" d="M0,1.084C3.251,4.335,7.044,6.5,10.294,9.211A30.115,30.115,0,0,1,15.171,0" transform="translate(1.325 30.041)" fill="none" stroke="#12263f" stroke-linecap="round" stroke-linejoin="round" stroke-width="3"/>
      </g>
    </g>
    <g id="Grupo_1002318" data-name="Grupo 1002318" transform="translate(1278 127.285)">
      <g id="Grupo_1002215" data-name="Grupo 1002215" transform="translate(0 0)" clip-path="url(#clip-path-2)">
        <path id="Trazado_707912" data-name="Trazado 707912" d="M41.957,24.12a119.44,119.44,0,0,1,2.319,22.728c.095,3.3-.063,6.622-.19,9.932A6.781,6.781,0,0,1,38.872,63c-2.37.707-5.229-1.005-6.526-3.086a41.347,41.347,0,0,1-3.741-7.182A93.554,93.554,0,0,1,23.516,33.8c-.269-1.8-.383-3.624-.515-5.441-.216-2.959-.464-5.918-.554-8.884a91.3,91.3,0,0,1,0-9.919c.324-4.132,2.679-7.22,6.432-9.293,1.375-.758,4.4.186,5.319,1.818a51.194,51.194,0,0,1,3.854,7.806c1.388,3.935,2.346,8.018,3.467,12.044.2.714.293,1.457.435,2.187m-2.089-3.165c-.974-3.158-1.839-6.352-2.959-9.46C36,8.964,34.827,6.522,33.684,4.08A5.709,5.709,0,0,0,32.26,2.366a2.4,2.4,0,0,0-2.71-.55c-1.612.95-3.258,1.986-4.1,3.748a11.369,11.369,0,0,0-1.5,6.257,20.114,20.114,0,0,1,.037,3.838c-.46,5.838.68,11.582.754,17.388a10.777,10.777,0,0,0,.248,1.6A118.428,118.428,0,0,0,28.146,47a50.821,50.821,0,0,0,4.449,10.423,9.966,9.966,0,0,0,1.825,2.432,4.3,4.3,0,0,0,6.209.155,5.215,5.215,0,0,0,1.8-4.014c.092-4.588.223-9.183.081-13.764a103.444,103.444,0,0,0-2.636-21.274" transform="translate(-2.606 0)" fill="#12263f" fill-rule="evenodd"/>
        <path id="Trazado_707913" data-name="Trazado 707913" d="M28.267,22.982a130.814,130.814,0,0,1,21.714,9.107c3.031,1.524,5.946,3.264,8.868,4.979a6.357,6.357,0,0,1,2.93,7.35c-.58,2.31-3.6,3.857-6.144,3.923a46.432,46.432,0,0,1-8.411-.378,103.948,103.948,0,0,1-19.7-4.956c-1.763-.648-3.469-1.439-5.176-2.211-2.783-1.259-5.583-2.487-8.306-3.852a98.859,98.859,0,0,1-8.953-4.819A10.831,10.831,0,0,1,0,22.27c.025-1.511,2.436-3.569,4.38-3.538a57.308,57.308,0,0,1,9.031.586c4.268.757,8.446,1.942,12.658,2.968.747.18,1.465.461,2.2.7m-3.931.2c-3.353-.722-6.682-1.555-10.065-2.134-2.751-.472-5.561-.682-8.354-.919a6.4,6.4,0,0,0-2.28.352c-1,.3-1.909,1.037-1.892,1.985.028,1.8.117,3.671,1.273,5.228A11.677,11.677,0,0,0,7.9,31.98a21.792,21.792,0,0,1,3.483,1.833c5.034,3.216,10.808,5.056,16.087,7.814a11.979,11.979,0,0,0,1.57.569,131.666,131.666,0,0,0,12.775,3.367,57.033,57.033,0,0,0,11.7,1.363,10.99,10.99,0,0,0,3.136-.336c2.626-.7,3.836-2.558,3.337-5.082a5.134,5.134,0,0,0-2.7-3.439c-4.094-2.306-8.175-4.644-12.384-6.749a113.526,113.526,0,0,0-20.562-8.137" transform="translate(0 -2.188)" fill="#12263f" fill-rule="evenodd"/>
        <path id="Trazado_707914" data-name="Trazado 707914" d="M32.317,19.981c3.516-2.535,6.942-5.206,10.611-7.513a57.287,57.287,0,0,1,8.147-3.942c1.788-.76,4.8.239,5.387,1.63a10.826,10.826,0,0,1-1,11.041,99.426,99.426,0,0,1-6.482,7.834c-2.01,2.291-4.142,4.482-6.247,6.7-1.291,1.358-2.574,2.733-3.963,4A103.9,103.9,0,0,1,22.381,51.732a46.309,46.309,0,0,1-7.648,3.516c-2.385.9-5.762.6-7.171-1.323a6.361,6.361,0,0,1-.052-7.912c2.062-2.688,4.108-5.4,6.342-7.95a130.79,130.79,0,0,1,16.693-16.61c.587-.494,1.147-1.024,1.771-1.472M18.273,35.436c-3.108,3.535-6.009,7.237-8.933,10.914a5.142,5.142,0,0,0-1.209,4.2c.488,2.526,2.309,3.792,5,3.451a10.977,10.977,0,0,0,3.031-.867,57.1,57.1,0,0,0,10.327-5.666,131.655,131.655,0,0,0,10.567-7.927A11.742,11.742,0,0,0,38.3,38.428c3.854-4.542,8.511-8.421,11.966-13.295A21.558,21.558,0,0,1,52.8,22.125a11.674,11.674,0,0,0,2.906-5.808c.486-1.878-.138-3.643-.789-5.323a2.338,2.338,0,0,0-2.5-1.126,6.36,6.36,0,0,0-2.243.533c-2.5,1.269-5.024,2.522-7.4,3.995-2.916,1.81-5.687,3.833-8.519,5.765a113.5,113.5,0,0,0-15.99,15.277" transform="translate(-0.719 -0.965)" fill="#12263f" fill-rule="evenodd"/>
        <path id="Trazado_707915" data-name="Trazado 707915" d="M35.16,41.112c-4.141.694-6.718-2.951-6.428-6.362.227-2.658,1.837-4.353,4.121-5.55a4.545,4.545,0,0,1,5.39.976,10.775,10.775,0,0,1,1.75,2.717c1.625,3.753-.629,7.529-4.833,8.22M30.551,36.73a3.207,3.207,0,0,0,2.557,2.518,4.7,4.7,0,0,0,4.584-1.492,4,4,0,0,0,.957-4.163c-.552-1.9-2.514-3.319-4.116-3.069-2.384.371-4.545,3.376-3.982,6.206" transform="translate(-3.354 -3.354)" fill="#12263f" fill-rule="evenodd"/>
        <path id="Trazado_707916" data-name="Trazado 707916" d="M30.782,36.965c-.563-2.831,1.6-5.835,3.982-6.206,1.6-.25,3.564,1.173,4.116,3.069a4,4,0,0,1-.957,4.163,4.7,4.7,0,0,1-4.584,1.492,3.207,3.207,0,0,1-2.557-2.518" transform="translate(-3.585 -3.59)" fill="#4db1f0" fill-rule="evenodd"/>
        <path id="Trazado_707917" data-name="Trazado 707917" d="M9.876,23.262A3.312,3.312,0,1,0,6.564,19.95a3.349,3.349,0,0,0,3.312,3.312" transform="translate(-0.766 -1.943)" fill="#ffa031"/>
        <path id="Trazado_707918" data-name="Trazado 707918" d="M20.227,62.335a3.312,3.312,0,1,0-3.312-3.312,3.349,3.349,0,0,0,3.312,3.312" transform="translate(-1.976 -6.508)" fill="#3076b6"/>
        <path id="Trazado_707919" data-name="Trazado 707919" d="M62.21,22.547A3.312,3.312,0,1,0,58.9,19.235a3.349,3.349,0,0,0,3.312,3.312" transform="translate(-6.88 -1.86)" fill="#008b8a"/>
        <path id="Trazado_707920" data-name="Trazado 707920" d="M25.869,6.892A3.349,3.349,0,0,0,29.181,3.58a3.312,3.312,0,1,0-6.624,0,3.37,3.37,0,0,0,3.312,3.312" transform="translate(-2.635 -0.031)" fill="#12263f"/>
        <path id="Trazado_707921" data-name="Trazado 707921" d="M45.464,68.953a3.312,3.312,0,1,0-3.312-3.312,3.349,3.349,0,0,0,3.312,3.312" transform="translate(-4.923 -7.281)" fill="#afafaf"/>
        <path id="Trazado_707922" data-name="Trazado 707922" d="M68.624,50.164a3.312,3.312,0,1,0-3.312-3.312,3.349,3.349,0,0,0,3.312,3.312" transform="translate(-7.629 -5.086)" fill="#4db1f0"/>
      </g>
    </g>
  </g>
</svg>
