<svg xmlns="http://www.w3.org/2000/svg" xmlns:xlink="http://www.w3.org/1999/xlink" width="86" height="86" viewBox="0 0 86 86">
  <defs>
    <clipPath id="clip-path">
      <rect id="Rectángulo_349181" data-name="Rectángulo 349181" width="50.984" height="45.607" fill="#12263f"/>
    </clipPath>
  </defs>
  <g id="Grupo_1011139" data-name="Grupo 1011139" transform="translate(-915 -1426)">
    <circle id="Elipse_8396" data-name="Elipse 8396" cx="43" cy="43" r="43" transform="translate(915 1426)" fill="#12263f"/>
    <circle id="Elipse_8402" data-name="Elipse 8402" cx="37" cy="37" r="37" transform="translate(921 1432)" fill="#fff"/>
    <g id="Grupo_1009668" data-name="Grupo 1009668" transform="translate(932.508 1446.196)">
      <g id="Grupo_1009667" data-name="Grupo 1009667" clip-path="url(#clip-path)">
        <path id="Trazado_720446" data-name="Trazado 720446" d="M421.033,251.731a.964.964,0,0,0,.978.975,1,1,0,0,0,1-.968,1.024,1.024,0,0,0-1.017-1.012.994.994,0,0,0-.961,1.005" transform="translate(-379.025 -225.71)" fill="#12263f"/>
        <path id="Trazado_720447" data-name="Trazado 720447" d="M50.985,13.842c-.456.894-.883,1.805-1.376,2.679-1.132,2.007-2.294,4-3.449,5.991a1,1,0,0,1-1.148.585.88.88,0,0,1-.747-.823,1.747,1.747,0,0,1,.253-.879c1.37-2.405,2.772-4.793,4.131-7.2a2.378,2.378,0,0,0,.294-1.215,1.3,1.3,0,0,0-1.1-1.135,1.355,1.355,0,0,0-1.5.627c-.432.687-.823,1.4-1.229,2.1-1.286,2.225-2.563,4.454-3.865,6.669a1.92,1.92,0,0,1-.687.667.738.738,0,0,1-.982-.231,1.9,1.9,0,0,1-.253-.947c-.009-.187.16-.39.267-.576q3.03-5.256,6.058-10.514A2.614,2.614,0,0,0,46,8.625a1.332,1.332,0,0,0-.945-1.366,1.4,1.4,0,0,0-1.6.474,5.12,5.12,0,0,0-.34.549q-3.024,5.231-6.046,10.463a2.871,2.871,0,0,1-.3.457.984.984,0,0,1-1.661-.994,3.393,3.393,0,0,1,.252-.484Q39.2,11.069,43.029,4.41a2.4,2.4,0,0,0,.328-1.067,1.332,1.332,0,0,0-1-1.278,1.378,1.378,0,0,0-1.523.457,2.72,2.72,0,0,0-.3.457Q36.7,9.61,32.875,16.243c-.47.814-1,1.054-1.578.713-.557-.329-.608-.9-.154-1.691q3.046-5.276,6.1-10.55A1.687,1.687,0,0,0,37.5,3.3a1.436,1.436,0,0,0-2.618-.271c-.558.941-1.1,1.893-1.645,2.84-1.31,2.268-2.626,4.533-3.923,6.808a1.679,1.679,0,0,0-.21.791c-.014,4.132,0,8.264-.016,12.4a27.226,27.226,0,0,1-2.243,10.631c-.362.854-.246.977.423,1.345,1.232.677,2.44,1.4,3.7,2.121.206-.349.4-.672.589-1,.912-1.579,1.816-3.163,2.739-4.735a2.236,2.236,0,0,1,.573-.671,26.706,26.706,0,0,0,4.69-4.363,1.075,1.075,0,0,1,1.027-.48.985.985,0,0,1,.548,1.682c-1,1.084-2.054,2.118-3.09,3.168a3.2,3.2,0,0,1-.568.483,7.207,7.207,0,0,0-2.474,2.9c-.838,1.562-1.76,3.08-2.648,4.615-.489.846-.935.96-1.8.462L26.7,39.8c-.014.21-.033.364-.033.517,0,1.344,0,2.688,0,4.032,0,.912-.355,1.256-1.274,1.257H8.865c-.944,0-1.282-.341-1.282-1.3,0-2.871-.007-5.742.008-8.612a1.114,1.114,0,0,0-.359-.868A56.831,56.831,0,0,1,.726,26.987,3.725,3.725,0,0,1,3.3,21.062a3.575,3.575,0,0,1,3.012,1c.414.381.836.753,1.268,1.141v-.447q0-6.472,0-12.944a3.42,3.42,0,0,1,2.63-3.479,3.93,3.93,0,0,1,1.134-.073,7.945,7.945,0,0,1,1.061.2C13,4.076,14.1,3.038,16,3.075c1.789.034,2.9,1.151,3.382,3.384,2.793-.472,3.683,0,4.842,2.581a3.519,3.519,0,0,1,4.224,1.1c.1-.168.2-.319.289-.475,1.409-2.441,2.88-4.848,4.207-7.332a3.52,3.52,0,0,1,5.985-.621A3.548,3.548,0,0,1,41.791.005a3.33,3.33,0,0,1,2.19.675c1.369,1.005,1.714,2.6.969,4.459a3.564,3.564,0,0,1,2.937,4.575,14.337,14.337,0,0,1,1.579.693,3.65,3.65,0,0,1,1.52,2.241ZM24.677,43.6V43c0-1.958-.016-3.916.012-5.874a3.482,3.482,0,0,1,.273-1.288,25.4,25.4,0,0,0,2.132-10c.014-4.215.005-8.429.006-12.644,0-.365.012-.731-.008-1.095A1.418,1.418,0,0,0,25.8,10.754a1.4,1.4,0,0,0-1.519,1.08,3.232,3.232,0,0,0-.066.739q-.006,4.779,0,9.558a4.458,4.458,0,0,1-.015.547.952.952,0,0,1-.853.836.934.934,0,0,1-1.028-.607,2.384,2.384,0,0,1-.091-.733q-.009-4.654,0-9.309c0-1.1.014-2.191-.011-3.285A1.427,1.427,0,0,0,19.4,9.312a3.25,3.25,0,0,0-.066.739q-.006,6.023,0,12.047a5.289,5.289,0,0,1-.012.547.952.952,0,0,1-.873.87.93.93,0,0,1-1.032-.672,2.518,2.518,0,0,1-.072-.687q-.006-7.616,0-15.233c0-.182.006-.366-.008-.547a1.425,1.425,0,0,0-1.232-1.3,1.4,1.4,0,0,0-1.563,1.014,3.082,3.082,0,0,0-.081.787q-.007,7.616,0,15.233a4.874,4.874,0,0,1-.012.547.955.955,0,0,1-.984.862c-.632-.005-.992-.443-.993-1.226q0-6.1,0-12.2c0-.166,0-.332,0-.5a1.415,1.415,0,0,0-1.572-1.362,1.465,1.465,0,0,0-1.31,1.644q-.005,5.725,0,11.449c0,1.51.008,3.02-.005,4.53a.958.958,0,0,1-1.248,1.006,1.657,1.657,0,0,1-.635-.451c-.884-.922-1.751-1.861-2.626-2.792a1.7,1.7,0,0,0-1.66-.569,1.755,1.755,0,0,0-1,2.848,54.405,54.405,0,0,0,6.608,7.884,1.8,1.8,0,0,1,.578,1.406c-.023,2.622-.01,5.243-.01,7.865V43.6Z" transform="translate(0 -0.001)" fill="#12263f"/>
        <path id="Trazado_720448" data-name="Trazado 720448" d="M421.033,251.731a.994.994,0,0,1,.961-1.005,1.024,1.024,0,0,1,1.017,1.012,1,1,0,0,1-1,.968.964.964,0,0,1-.978-.975" transform="translate(-379.025 -225.71)" fill="#12263f"/>
      </g>
    </g>
  </g>
</svg>
