<svg xmlns="http://www.w3.org/2000/svg" xmlns:xlink="http://www.w3.org/1999/xlink" width="86" height="86" viewBox="0 0 86 86">
  <defs>
    <clipPath id="clip-path">
      <rect id="Rectángulo_349182" data-name="Rectángulo 349182" width="52" height="38" transform="translate(-0.172 0)" fill="#12263f"/>
    </clipPath>
  </defs>
  <g id="Grupo_1011140" data-name="Grupo 1011140" transform="translate(-1020 -1426)">
    <circle id="Elipse_8397" data-name="Elipse 8397" cx="43" cy="43" r="43" transform="translate(1020 1426)" fill="#12263f"/>
    <circle id="Elipse_8403" data-name="Elipse 8403" cx="37" cy="37" r="37" transform="translate(1026 1432)" fill="#fff"/>
    <g id="Grupo_1009670" data-name="Grupo 1009670" transform="translate(1040.172 1448.773)">
      <g id="Grupo_1009669" data-name="Grupo 1009669" transform="translate(0 -0.773)" clip-path="url(#clip-path)">
        <path id="Trazado_720449" data-name="Trazado 720449" d="M19.24,0c.375.049.755.074,1.124.154A4.918,4.918,0,0,1,21.39.481a1.178,1.178,0,0,1,.628,1.449A3.039,3.039,0,0,0,22,2.721a28.828,28.828,0,0,0,.406,4.06,7.022,7.022,0,0,0,1.563,3.264c1.648,2.041,3.391,4,5.174,5.92.869.937,1.758,1.857,2.645,2.778a11.282,11.282,0,0,0,5.739,3.165,16.86,16.86,0,0,0,4.818.3c.783-.046,1.568-.109,2.351-.105a8.058,8.058,0,0,1,3.451.717,5.2,5.2,0,0,1,2.918,3.61c.155.616.2,1.26.293,1.891a1.84,1.84,0,0,0,.035.2q.2.741.4,1.481a.538.538,0,0,0,.029.068v.951c-.029.109-.059.217-.086.326a2.846,2.846,0,0,1-.879,1.478A4.546,4.546,0,0,1,48.3,33.878a1.215,1.215,0,0,1-.988-.218.381.381,0,0,0-.106-.041c-.044.11-.08.211-.123.309a.82.82,0,0,1-.493.47c-.614.22-1.227.442-1.841.659a.826.826,0,0,1-.795-.1c-.143-.1-.288-.2-.445-.307-.03.071-.057.121-.073.174a.875.875,0,0,1-.748.636c-1.047.184-2.092.385-3.137.58a.909.909,0,0,1-.691-.129c-.114-.074-.233-.142-.363-.222-.07.157-.131.288-.187.422a.845.845,0,0,1-.785.561c-.347.022-.694.059-1.041.086-.751.058-1.5.118-2.253.17a.742.742,0,0,1-.631-.292c-.09-.105-.178-.212-.28-.334-.051.064-.1.115-.134.171a.962.962,0,0,1-.934.459c-1.055-.054-2.112-.087-3.168-.132a.805.805,0,0,1-.6-.316c-.079-.1-.159-.191-.247-.3-.184.211-.359.4-.523.6a1.379,1.379,0,0,1-.6.476h-.837a.88.88,0,0,0-.128-.024q-1.185-.052-2.371-.1a.86.86,0,0,1-.808-.581,3.231,3.231,0,0,0-.466-.8,3.4,3.4,0,0,0-1.853-1.013,10.434,10.434,0,0,0-3.075-.24.345.345,0,0,0-.365.284,6,6,0,0,1-1.171,2,.952.952,0,0,1-.767.342q-1.492-.009-2.984,0a.879.879,0,0,1-.829-.467c-.119-.207-.249-.407-.389-.634-.125.167-.242.307-.34.459a.9.9,0,0,1-.926.426c-.888-.093-1.777-.176-2.665-.266a.777.777,0,0,1-.612-.4c-.067-.113-.129-.229-.225-.4-.062.087-.1.15-.149.208a1.014,1.014,0,0,1-1.008.378c-.917-.117-1.839-.194-2.758-.289-.548-.056-1.1-.1-1.643-.176a.769.769,0,0,1-.7-.771c.006-1.33,0-2.66.044-3.989a5.512,5.512,0,0,1,.461-2.2.328.328,0,0,0-.023-.208C.39,28.4.238,28,.118,27.59A5.836,5.836,0,0,1,0,26.883V25.362a1.186,1.186,0,0,0,.03-.146,20.013,20.013,0,0,1,.613-3.611c.426-1.583.9-3.153,1.351-4.73a28.734,28.734,0,0,0,1.32-9.04,11.626,11.626,0,0,0-.329-2.424.491.491,0,0,0-.144-.23,1.068,1.068,0,0,1-.221-1.394,2.517,2.517,0,0,1,.628-.618,7.254,7.254,0,0,1,1.781-.842A37.753,37.753,0,0,1,10.156.934,44.9,44.9,0,0,1,15.6.107C16.04.07,16.48.036,16.921,0ZM32.662,21.6a.661.661,0,0,0-.074-.065,11.264,11.264,0,0,1-2.3-2.006.863.863,0,0,0-.726-.287,2.915,2.915,0,0,0-1.473.557.261.261,0,0,0-.132.348A1.317,1.317,0,0,1,26.753,21.9a2.021,2.021,0,0,1-1.825-1.213,1.471,1.471,0,0,1,.089-1.5,1.339,1.339,0,0,1,1.529-.464.353.353,0,0,0,.346-.065,6.183,6.183,0,0,1,.713-.469c.3-.165.625-.3.942-.446a.138.138,0,0,0-.02-.041q-1.054-1.147-2.111-2.291c-.025-.027-.055-.064-.087-.07a4.847,4.847,0,0,0-.875-.129,2.728,2.728,0,0,0-1.381.536.283.283,0,0,0-.143.379,1.317,1.317,0,0,1-1.536,1.7,1.929,1.929,0,0,1-1.587-1.437,1.321,1.321,0,0,1,.349-1.434,1.408,1.408,0,0,1,1.423-.278.336.336,0,0,0,.251-.056,5.655,5.655,0,0,1,1.686-.9l.314-.095c-.038-.049-.059-.079-.083-.107-.585-.7-1.176-1.395-1.75-2.1a.654.654,0,0,0-.5-.263,2.533,2.533,0,0,0-1.406.392.335.335,0,0,0-.206.4,1.292,1.292,0,0,1-1.188,1.48,1.989,1.989,0,0,1-2.054-1.922,1.309,1.309,0,0,1,1.091-1.3,1.54,1.54,0,0,1,.944.135.288.288,0,0,0,.312-.029,7.9,7.9,0,0,1,.815-.446c.262-.12.542-.2.828-.3a10.146,10.146,0,0,1-.948-3.146,55.928,55.928,0,0,1-15.71,2.55c-.029.507-.047,1.032-.09,1.555a34.972,34.972,0,0,1-1.325,6.816c-.46,1.6-.946,3.194-1.366,4.8a15.691,15.691,0,0,0-.561,4.131A3.927,3.927,0,0,0,1.963,28a.488.488,0,0,0,.422.3c1.932.222,3.865.439,5.794.683,2.891.365,5.779.751,8.668,1.13.47.062.478.071.7-.357.25-.481.483-.972.74-1.493l-.656-.056-8.292-.7a.82.82,0,1,1,.136-1.627q4.525.382,9.05.765c.126.011.178-.022.178-.145q0-.645,0-1.289c0-.128-.063-.17-.187-.18q-2.575-.21-5.15-.428c-1.269-.106-2.538-.209-3.806-.323a.816.816,0,1,1,.157-1.622c.631.05,1.262.106,1.893.159l5.339.447,1.085.089c-.05-.085-.079-.139-.113-.189a7.186,7.186,0,0,0-2.982-2.431.526.526,0,0,0-.2-.04q-1.376-.047-2.753-.089a.81.81,0,0,1-.851-.826.781.781,0,0,1,.861-.8q1.519.033,3.038.092a1.168,1.168,0,0,1,.4.1,8.937,8.937,0,0,1,3.271,2.325,6.446,6.446,0,0,1,1.673,4.468,8.5,8.5,0,0,1-.735,3.241c-.175.411-.376.812-.571,1.228.047.013.088.027.13.034.993.167,1.987.326,2.978.5.629.112,1.249.284,1.882.371a51.548,51.548,0,0,0,5.542.5c1.538.045,3.078.093,4.615.041,1.517-.051,3.034-.184,4.543-.354a33.334,33.334,0,0,0,7.466-1.71,20.414,20.414,0,0,0,3.339-1.5.234.234,0,0,0,.143-.271c-.058-.343-.088-.692-.167-1.03a3.774,3.774,0,0,0-2.524-2.878,6.535,6.535,0,0,0-2.314-.383c-1.031.017-2.061.1-3.092.137a16.259,16.259,0,0,1-6.348-.95,1.928,1.928,0,0,0-.924-.168,3.016,3.016,0,0,0-1.271.522.24.24,0,0,0-.125.293,1.371,1.371,0,0,1-1.162,1.68,1.729,1.729,0,0,1-1.7-.757,1.622,1.622,0,0,1-.293-1.509,1.417,1.417,0,0,1,1.879-.87.276.276,0,0,0,.193.012c.267-.166.525-.346.8-.528M1.686,34.429c.04.008.07.016.1.019,1.065.111,2.129.224,3.195.327a.324.324,0,0,0,.222-.1c.227-.229.441-.471.663-.706a.824.824,0,0,1,1.361.163c.151.271.292.548.454.813a.335.335,0,0,0,.216.141c.509.061,1.021.1,1.531.16a.269.269,0,0,0,.284-.129c.242-.341.492-.676.743-1.011a.818.818,0,0,1,1.4.069c.246.4.486.8.741,1.2a.312.312,0,0,0,.22.127q1.017.015,2.034,0a.333.333,0,0,0,.229-.121,4.635,4.635,0,0,0,.782-1.757.771.771,0,0,1,.718-.653c.5-.051,1-.094,1.5-.109a10,10,0,0,1,3.5.456,4.492,4.492,0,0,1,2.7,2.112.224.224,0,0,0,.159.1c.67.037,1.34.07,2.011.093a.307.307,0,0,0,.2-.107c.333-.373.656-.756.987-1.131a.819.819,0,0,1,1.277.029c.18.221.354.448.544.66a.379.379,0,0,0,.236.118q1.1.059,2.2.093a.315.315,0,0,0,.218-.105c.183-.218.349-.451.524-.675a.812.812,0,0,1,1.309-.028c.194.226.375.463.573.685a.311.311,0,0,0,.219.1q1.052-.072,2.1-.17a.311.311,0,0,0,.2-.153c.12-.23.214-.473.324-.708a.823.823,0,0,1,1.261-.381c.254.155.505.315.763.463a.373.373,0,0,0,.227.054q1.141-.2,2.279-.421a.3.3,0,0,0,.178-.156c.095-.214.167-.438.25-.656a.818.818,0,0,1,1.308-.4c.266.184.533.366.791.56a.3.3,0,0,0,.329.042c.264-.106.539-.185.8-.295a.414.414,0,0,0,.2-.2c.1-.225.177-.461.268-.691a.821.821,0,0,1,1.268-.426c.254.155.5.317.76.469a.33.33,0,0,0,.192.056,3.1,3.1,0,0,0,1.382-.494,1.558,1.558,0,0,0,.477-1.846c-.3.156-.6.32-.913.466a32.515,32.515,0,0,1-9.313,2.678,39.886,39.886,0,0,1-5.183.457c-1.62.027-3.243.04-4.862-.019-1.448-.053-2.892-.2-4.337-.33-.681-.06-1.362-.141-2.035-.258-.985-.17-1.959-.409-2.946-.567q-2.87-.459-5.751-.857c-2.121-.292-4.246-.556-6.37-.819-1.766-.219-3.535-.421-5.3-.63-.376-.044-.753-.083-1.123-.123a15.392,15.392,0,0,0-.273,4.534M4.753,5.755c.052.462.1.952.168,1.441,0,.037.085.087.135.093a3.577,3.577,0,0,0,.549.033c1.056-.044,2.116-.051,3.167-.155a60.225,60.225,0,0,0,9.26-1.694c.77-.2,1.52-.48,2.276-.732.066-.022.157-.114.155-.171-.02-.485-.059-.97-.089-1.42A56.748,56.748,0,0,1,4.753,5.755m14.635-4-.007-.094a31.224,31.224,0,0,0-7.23.557,35.048,35.048,0,0,0-7,1.861A54.943,54.943,0,0,0,19.389,1.752" transform="translate(0 0.599)" fill="#12263f"/>
        <path id="Trazado_720450" data-name="Trazado 720450" d="M195.845,496.647c.158,0,.317,0,.475,0a.8.8,0,0,1,.77.745.769.769,0,0,1-.643.852,6.214,6.214,0,0,1-1.21,0,.77.77,0,0,1-.641-.837.8.8,0,0,1,.756-.762c.164-.007.329,0,.494,0Z" transform="translate(-187.194 -477.16)" fill="#12263f"/>
        <path id="Trazado_720451" data-name="Trazado 720451" d="M151.024,588.331a.816.816,0,0,1,.01,1.632.816.816,0,0,1-.01-1.632" transform="translate(-144.508 -565.361)" fill="#12263f"/>
        <path id="Trazado_720452" data-name="Trazado 720452" d="M140.269,673.612a.8.8,0,0,1,.8.809.814.814,0,1,1-1.627,0,.8.8,0,0,1,.824-.81" transform="translate(-134.143 -647.399)" fill="#12263f"/>
        <path id="Trazado_720453" data-name="Trazado 720453" d="M122.7,496.8a.793.793,0,0,1,.815-.814.806.806,0,0,1,.8.832.815.815,0,0,1-.82.8.806.806,0,0,1-.8-.818" transform="translate(-118.031 -476.53)" fill="#12263f"/>
      </g>
    </g>
  </g>
</svg>
