<svg xmlns="http://www.w3.org/2000/svg" xmlns:xlink="http://www.w3.org/1999/xlink" width="86" height="86" viewBox="0 0 86 86">
  <defs>
    <clipPath id="clip-path">
      <rect id="Rectángulo_349184" data-name="Rectángulo 349184" width="35.016" height="51.276" fill="#12263f"/>
    </clipPath>
  </defs>
  <g id="Grupo_1011142" data-name="Grupo 1011142" transform="translate(-1230 -1426)">
    <circle id="Elipse_8399" data-name="Elipse 8399" cx="43" cy="43" r="43" transform="translate(1230 1426)" fill="#12263f"/>
    <circle id="Elipse_8405" data-name="Elipse 8405" cx="37" cy="37" r="37" transform="translate(1236 1432)" fill="#fff"/>
    <g id="Grupo_1009674" data-name="Grupo 1009674" transform="translate(1255.492 1443.362)">
      <g id="Grupo_1009673" data-name="Grupo 1009673" clip-path="url(#clip-path)">
        <path id="Trazado_720455" data-name="Trazado 720455" d="M19.5,0c.875.1,1.752.182,2.625.3a17.383,17.383,0,0,1,7.048,2.38c.191.121.45.287.483.468a1.165,1.165,0,0,1-.155.816c-.233.323-.592.27-.947.1a31.414,31.414,0,0,0-3.066-1.442,21.676,21.676,0,0,0-6.836-1.1,24.681,24.681,0,0,0-8.89,1.075,15.087,15.087,0,0,0-2.112.9A10.137,10.137,0,0,0,3.016,8.242a11.883,11.883,0,0,0-.99,6c.029.415.11.827.13,1.243.018.38.186.46.573.319,0-.9-.017-1.809.006-2.722a10,10,0,0,1,.15-2.036A3.61,3.61,0,0,1,6.358,8.32c1.085-.017,2.169-.008,3.254,0,.551,0,.873.288.874.745s-.32.747-.869.751c-1.035.008-2.069,0-3.1,0a2.156,2.156,0,0,0-2.265,2.118c-.044,1.233-.013,2.469-.012,3.7a.9.9,0,0,0,.053.2H30.714c0-1.448.072-2.867-.024-4.274A2.073,2.073,0,0,0,28.512,9.82c-2.537-.007-5.073,0-7.61,0q-3.63,0-7.259,0a2.565,2.565,0,0,1-.548-.028.741.741,0,0,1-.009-1.443,2.464,2.464,0,0,1,.547-.029q7.335,0,14.669,0a3.714,3.714,0,0,1,3.962,3.937c.008,1.068-.006,2.136.011,3.2,0,.141.135.279.207.418.1-.12.276-.23.3-.363.478-3.265.215-6.39-1.782-9.178a.755.755,0,0,1,.088-1.112.766.766,0,0,1,1.127.239,10.908,10.908,0,0,1,2.178,5.978c.083,1.471-.1,2.957-.137,4.437a.976.976,0,0,0,.19.608,4.8,4.8,0,0,1,.088,4.374,1.852,1.852,0,0,1-1.332.707c-.281.022-.562.028-.9.044-.011.224-.031.432-.031.64q0,10.313,0,20.627a3.719,3.719,0,0,1-.041.7.608.608,0,0,1-.719.54,1.264,1.264,0,0,1-.68-.537c-.111-.167-.058-.453-.058-.685q0-10.263,0-20.527v-.735H4.259c-.009.167-.027.342-.027.518q0,12.566,0,25.133A2.238,2.238,0,0,0,6.743,49.77H28.271a2.239,2.239,0,0,0,2.495-2.461,3.922,3.922,0,0,1,.032-.6.667.667,0,0,1,.744-.594.655.655,0,0,1,.694.6,3.754,3.754,0,0,1-3.609,4.551q-11.139.023-22.279,0a3.65,3.65,0,0,1-3.6-3.422c-.02-.266-.022-.533-.022-.8q0-12.366,0-24.732v-.724c-.271,0-.5.01-.724,0A1.935,1.935,0,0,1,.03,19.567a9.253,9.253,0,0,1,.019-1.7,7.74,7.74,0,0,1,.5-1.371,1.214,1.214,0,0,0,.14-.526,14.934,14.934,0,0,1,.62-7.547A11.854,11.854,0,0,1,8.163,1.6,20.58,20.58,0,0,1,14.812.09,4.167,4.167,0,0,0,15.294,0ZM17.522,17.382c-1.418,0-2.837-.014-4.254.005a1.3,1.3,0,0,0-1.407,1.4c.031.817.6,1.29,1.58,1.292q4.054.009,8.109,0a2.655,2.655,0,0,0,.6-.061,1.259,1.259,0,0,0,.983-1.179,1.31,1.31,0,0,0-1.451-1.457c-1.385-.015-2.77,0-4.155,0m-6.877,0H7.961c-1.917,0-3.834,0-5.751,0-.565,0-.671.113-.681.676-.007.4,0,.8,0,1.2,0,.745.083.826.838.826q3.851,0,7.7,0c.174,0,.348-.017.571-.029a3.312,3.312,0,0,1,.006-2.675m13.732,2.61c.072.045.1.076.125.076q4.225.009,8.45.012c.347,0,.511-.2.513-.543,0-.45,0-.9,0-1.35,0-.723-.082-.8-.806-.8q-3.876,0-7.751,0h-.554a3.266,3.266,0,0,1,.021,2.609" transform="translate(0)" fill="#12263f"/>
      </g>
    </g>
  </g>
</svg>
