<svg xmlns="http://www.w3.org/2000/svg" xmlns:xlink="http://www.w3.org/1999/xlink" width="86" height="86" viewBox="0 0 86 86">
  <defs>
    <clipPath id="clip-path">
      <rect id="Rectángulo_349185" data-name="Rectángulo 349185" width="59.261" height="37.904" fill="#12263f"/>
    </clipPath>
  </defs>
  <g id="Grupo_1011143" data-name="Grupo 1011143" transform="translate(-1335 -1426)">
    <circle id="Elipse_8406" data-name="Elipse 8406" cx="43" cy="43" r="43" transform="translate(1335 1426)" fill="#12263f"/>
    <circle id="Elipse_8407" data-name="Elipse 8407" cx="37" cy="37" r="37" transform="translate(1341 1432)" fill="#fff"/>
    <g id="Grupo_1009676" data-name="Grupo 1009676" transform="translate(1349.369 1453.642)">
      <g id="Grupo_1009675" data-name="Grupo 1009675" clip-path="url(#clip-path)">
        <path id="Trazado_720456" data-name="Trazado 720456" d="M59.261,16.9c-.134.638-.238,1.285-.406,1.914a11.925,11.925,0,0,1-10.6,8.858.928.928,0,0,0-.754.517,20.432,20.432,0,0,1-14.693,9.477c-8.882,1.184-15.909-2.114-21.027-9.463a1.044,1.044,0,0,0-.864-.537A11.774,11.774,0,0,1,.287,18.1,31.885,31.885,0,0,1,.07,11.53,4.444,4.444,0,0,1,4.664,7.446c1.62-.021,3.24-.02,4.86-.01A19.974,19.974,0,0,0,21.48,3.6a36.911,36.911,0,0,1,3.845-2.453,8.745,8.745,0,0,1,8.787.079,34.512,34.512,0,0,1,3.594,2.313,20.233,20.233,0,0,0,12.63,3.91c1.349-.029,2.7-.007,4.05,0A4.581,4.581,0,0,1,59.178,11.2a.639.639,0,0,0,.083.148ZM11.472,23.731c2.039,6.3,9.684,13.322,19.965,12.386A19.2,19.2,0,0,0,41.52,32.162c2.833-2.16,6.221-6.814,6.322-8.676a21.363,21.363,0,0,1-7.681,5.8A26.5,26.5,0,0,1,24.709,31,22.919,22.919,0,0,1,17.7,28.574a1.339,1.339,0,0,1-.644-.728.913.913,0,0,1,.326-.817,1.384,1.384,0,0,1,1.062.014A24.391,24.391,0,0,0,37.085,28.57a18.227,18.227,0,0,0,9.5-6.361,12.242,12.242,0,0,0,2.367-5.2c-.389.139-.706.261-1.029.365a44.28,44.28,0,0,1-10.236,1.715,105.335,105.335,0,0,1-14.046.132,61.008,61.008,0,0,1-9.689-1.163c-1.209-.264-2.395-.634-3.651-.971.171.58.308,1.157.51,1.711A14.093,14.093,0,0,0,14.86,24.55c.159.14.327.271.478.42a.865.865,0,0,1,.093,1.238.826.826,0,0,1-1.237.044c-.982-.882-1.938-1.793-2.721-2.522M49.142,11.139V9.187c-.151-.015-.263-.032-.376-.037A20.886,20.886,0,0,1,37.738,5.627c-1.3-.867-2.578-1.763-3.9-2.584a7.5,7.5,0,0,0-8.5.061c-1,.624-1.97,1.283-2.934,1.956a21.345,21.345,0,0,1-9.828,3.914c-.816.1-1.635.156-2.454.233v2.035c1.59-.219,3.14-.364,4.662-.656a23.839,23.839,0,0,0,9.179-4.2,35.371,35.371,0,0,1,3.068-1.955,5.013,5.013,0,0,1,5.086-.058,40.084,40.084,0,0,1,3.413,2.165,25.278,25.278,0,0,0,8.085,3.871c.63.16.907.576.774,1.076-.142.533-.588.743-1.24.58A19.8,19.8,0,0,1,37.687,9.9c-1.915-1.15-3.773-2.394-5.644-3.616a4.038,4.038,0,0,0-4.811,0c-.995.662-1.992,1.32-2.977,2a24.515,24.515,0,0,1-11.248,4.366c-.952.108-1.908.183-2.921.278a7.919,7.919,0,0,1-.01,1.151,1,1,0,0,0,.778,1.222,38.737,38.737,0,0,0,3.812,1.124,69.4,69.4,0,0,0,12.879,1.2,80.746,80.746,0,0,0,17.044-1.2A33.509,33.509,0,0,0,48.6,15.191c.224-.075.523-.323.548-.521a14.854,14.854,0,0,0,.026-1.823c-.373,0-.66.01-.946,0s-.577-.04-.864-.073c-.681-.077-1.018-.424-.956-.974.06-.531.487-.8,1.163-.745.513.039,1.028.058,1.567.087M50.919,9.2v.686c0,2.313.015,4.626-.006,6.938a20.972,20.972,0,0,1-1.436,7.5c-.191.489-.4.973-.615,1.515a4.444,4.444,0,0,0,.528-.06,10.074,10.074,0,0,0,7.878-7.808,22.434,22.434,0,0,0,.207-6.335,2.618,2.618,0,0,0-2.54-2.421c-1.3-.081-2.614-.018-4.015-.018M10.434,25.888c-.1-.253-.155-.4-.217-.535A19.1,19.1,0,0,1,8.446,18.28c-.1-2.791-.07-5.587-.1-8.381,0-.223,0-.447,0-.721-1.212,0-2.346,0-3.479,0a4.531,4.531,0,0,0-.634.036,2.819,2.819,0,0,0-2.492,2.862c-.011,1.291-.014,2.583,0,3.874a10.262,10.262,0,0,0,7.22,9.59c.452.136.921.22,1.465.347" transform="translate(0 0)" fill="#12263f"/>
      </g>
    </g>
  </g>
</svg>
