<svg xmlns="http://www.w3.org/2000/svg" xmlns:xlink="http://www.w3.org/1999/xlink" width="111" height="111" viewBox="0 0 111 111">
  <defs>
    <clipPath id="clip-path">
      <rect id="Rectángulo_349192" data-name="Rectángulo 349192" width="69.933" height="61.655" fill="none"/>
    </clipPath>
  </defs>
  <g id="Grupo_1011136" data-name="Grupo 1011136" transform="translate(-748 -1986)">
    <circle id="Elipse_154" data-name="Elipse 154" cx="55.5" cy="55.5" r="55.5" transform="translate(748 1986)" fill="#fff"/>
    <g id="Grupo_1009678" data-name="Grupo 1009678" transform="translate(768.012 2008.438)">
      <g id="Grupo_1009678-2" data-name="Grupo 1009678" clip-path="url(#clip-path)">
        <path id="Trazado_720477" data-name="Trazado 720477" d="M15.387,27.111c-.172-.506-.341-1.014-.518-1.518-.139-.395-.291-.62-.668-.152a4.7,4.7,0,0,1-2.929,1.838c-.961.14-.955.563-.96,1.344a5.445,5.445,0,0,1-3.1,4.574,5.672,5.672,0,0,1-2.66.424c-1.824-.061-4.055-2.21-4.387-4a5.028,5.028,0,0,1,.824-3.97c.239-.346.006-.574-.142-.8A4.12,4.12,0,0,1,.919,19.92,3.75,3.75,0,0,1,3.77,18.364c.482-.061.667-.155.734-.632.263-1.87,1.664-2.9,3.044-3.887a2.823,2.823,0,0,1,1.524-.2c.514,0,.662-.175.425-.61a3.214,3.214,0,0,1,.237-3.191c0-.035,0-.07,0-.106.147-.068.251-.231.442-.2.292,0,.321-.191.315-.413a26.884,26.884,0,0,1,3.789-1.608,29.106,29.106,0,0,0,2.828-1.3C18.34,5.652,19.582,5.1,20.82,4.547c.15.085.279.123.275-.127,1.087-.464,2.237-.75,3.312-1.27,1.658-.8,3.373-1.491,5.064-2.227A8.006,8.006,0,0,1,32.377,0a2.792,2.792,0,0,1,2.59,1.235A4.626,4.626,0,0,1,36.1,4.013a.448.448,0,0,0,.115.414c1.036.929,1.274,2.3,1.844,3.473,1.009,2.077,1.834,4.243,2.74,6.37.026.061.1.1.147.154l.109.115c-.01.62.412,1.091.573,1.655a1.14,1.14,0,0,1-.76,1.558c-1.275.543-2.535,1.121-3.809,1.667-.449.192-.545.385-.3.871.794,1.589,1.525,3.211,2.268,4.825a.922.922,0,0,0,1,.626c1.437-.052,2.878-.049,4.316,0,.617.02.8-.134.8-.779-.027-5.528-.015-11.056-.015-16.585,0-.277,0-.555.01-.832a1.174,1.174,0,0,1,1.3-1.31c.681-.017,1.363,0,2.045,0,4.266,0,8.536.1,12.8-.027,4.05-.116,5.758,2.046,6.629,5.344.7,2.659,1.211,5.368,2,8.007a2.162,2.162,0,0,1,.027.6q0,6.058,0,12.117c0,1.268-.539,1.808-1.8,1.81-1.212,0-2.424-.005-3.635.006-.2,0-.461-.13-.552.21A13.221,13.221,0,0,1,62.6,36.955c1.976,0,3.839,0,5.7,0a1.377,1.377,0,0,1,1.566,1.553q0,10.64,0,21.28c0,1.375-.53,1.868-1.854,1.866q-32.983-.046-65.966-.022c-.278,0-.556.011-.833-.009C.434,61.568.059,61.218.054,60.442c-.019-2.953-.123-5.912.022-8.858A5.662,5.662,0,0,1,2.76,46.759,2.924,2.924,0,0,1,4.4,46.205c.273.014.3-.1.342-.347a6.154,6.154,0,0,1,5.009-5.222,5.342,5.342,0,0,1,2.96.183c.4.133.487-.019.61-.263A6.207,6.207,0,0,1,18.3,37.1a49.029,49.029,0,0,1,5.868-.241,7.705,7.705,0,0,1-1.3-2.692c-.039-.255-.392-.147-.6-.148-1.691-.008-3.383,0-5.074-.006-1.347,0-1.632-.3-1.629-1.609,0-1.666,0-3.332,0-5,.134-.213.072-.31-.176-.3m25.247,4.531q1.958.014,3.915.029c.266,0,.484.007.488-.376.009-.875.053-1.75.1-2.625.019-.373-.1-.548-.506-.54-1.33.028-2.66.028-3.99.039H34.62a9,9,0,0,1,1.344,3.2c.022.266.283.306.528.3,1.381-.014,2.762-.021,4.143-.03m-17.421-1.66c.172-.68.732-1.149,1.025-1.847-1.978,0-3.91.006-5.842,0-.405,0-.437.236-.437.538,0,.831.016,1.663-.008,2.493-.012.4.127.528.52.516.805-.024,1.612,0,2.418-.009a4.164,4.164,0,0,0,1.769-.116c.311-.166.307-.922.444-1.414l.111-.158m-.6-4.235H36.744c-.674-1.485-1.372-2.872-1.913-4.327-.3-.808-.381-.832-1.258-.477-.994.4-1.977.823-2.936,1.309-.887.449-1.831.786-2.751,1.17q-2.627,1.1-5.255,2.191c-.147,0-.3,0-.367.161a.117.117,0,0,0,.052.1.221.221,0,0,0,.295-.127M55.788,8.669c-.1-.021-.145.01-.108.117q-.012,4.725-.029,9.451c0,.326.047.515.445.509,1.763-.03,3.526-.036,5.288-.05,1.535.015,3.069.035,4.6.043,1.4.007,1.4,0,.911-1.338a.869.869,0,0,1-.048-.142c-.352-1.956-.91-3.862-1.363-5.794a3.6,3.6,0,0,0-2.979-2.808c-1.382-.049-2.768.007-4.152.017l-2.569,0M32.912,30.093c0-.032,0-.063,0-.095A3.881,3.881,0,0,0,32,29.046c-.024-.279-.23-.267-.428-.266a3.4,3.4,0,0,0-1.726-.486,3.178,3.178,0,0,0-2.8.525c-1.477,1.169-2.437,2.557-2.014,4.574a4.43,4.43,0,0,0,6.552,2.993,4.316,4.316,0,0,0,1.78-5.778l-.12-.159a.649.649,0,0,0-.331-.355M38.555,15c-.789-2.006-1.547-4.027-2.491-5.965-.474-.972-.628-2.048-1.181-3a24.507,24.507,0,0,1-1.262-2.949,1.141,1.141,0,0,0-1.5-.785,13.169,13.169,0,0,0-3,1.328L27.169,4.4c-.221-.007-.447-.022-.471.29-.132.285-.4.077-.589.164-.221-.007-.448-.022-.471.291-.133.283-.4.076-.589.163l-.163.114-.9.341-.163.114a5.134,5.134,0,0,1-1.957.795l-.164.115c-.31-.022-.433.289-.734.374a34.109,34.109,0,0,0-4.56,1.8c-1.391.621-2.813,1.2-4.177,1.9a1.171,1.171,0,0,0-.61,1.559c.6,1.32,1.193,2.638,1.773,3.964,1.251,2.856,2.507,5.711,3.719,8.584.165.39.258.329.575.229,1.7-.529,3.25-1.387,4.877-2.076,2.521-1.068,5.019-2.191,7.544-3.247,1.717-.718,3.439-1.417,5.085-2.291,1.035-.371,2.077-.722,3.1-1.121.743-.289.781-.492.367-1.3L38.555,15M6.535,30.9l.159-.105a2.251,2.251,0,0,0,1.2-1.372,2.386,2.386,0,0,0-.334-2.611A.967.967,0,0,1,7.52,25.5a1.186,1.186,0,0,1,1.321-.445,3.626,3.626,0,0,0,3.632-1.092A2.139,2.139,0,0,0,13,21.135c-.691-1.2-1.077-2.562-1.709-3.81a2.235,2.235,0,0,0-2.995-.951A2.9,2.9,0,0,0,6.9,19.735a1,1,0,0,1-.5,1.244,1.132,1.132,0,0,1-1.317-.041,1.711,1.711,0,0,0-2.592,1,2.254,2.254,0,0,0,.838,2.281c.888.738.874,1.512-.029,2.18a1.383,1.383,0,0,0-.427.421A3.015,3.015,0,0,0,3.3,30.54a2.77,2.77,0,0,0,3.232.364M2.916,51.8a24.035,24.035,0,0,1,3.341-.075,17.574,17.574,0,0,0,3.325-.155,13.283,13.283,0,0,0,4.412-.967,10.461,10.461,0,0,0,4.939-3.714A14.913,14.913,0,0,0,20.94,39.85c.022-.223.036-.445-.315-.47a6.743,6.743,0,0,0-3.121.345,5.359,5.359,0,0,0-2.727,3.232c-.355.824-.985,1.118-1.749.644a4.136,4.136,0,0,0-2.066-.613A3.694,3.694,0,0,0,7,46.9c.014,1.082-.476,1.626-1.549,1.555a2.673,2.673,0,0,0-2.707,3.037c-.151.043-.327.1-.239.3.1.224.268.18.408.008M61.692,27.281a7.594,7.594,0,0,1,2.387,4.01c.069.318.212.389.5.384.832-.015,1.665-.029,2.5,0,.453.018.549-.162.537-.57-.026-.856-.008-1.714-.008-2.572,0-1.734,0-1.734-1.7-1.738-.126,0-.253,0-.378,0-.808-.042-1.254-.463-1.256-1.183a1.151,1.151,0,0,1,1.236-1.13c.554-.025,1.109-.025,1.663-.022.316,0,.443-.121.436-.45-.018-.832-.021-1.664,0-2.5.01-.368-.125-.472-.48-.468-1.815.021-3.63.022-5.445.03l-6.807-.024c-1.125,0-1.534-.4-1.535-1.511,0-3.328,0-6.656-.009-9.985,0-.257.136-.553-.123-.776-.017-.082-.053-.142-.152-.118H47.451c-.1-.026-.14.016-.12.116a4.453,4.453,0,0,1,.115,1.4q0,9.5,0,19c0,.8-.273,1.883.135,2.333.468.515,1.57.07,2.386.171.678.084.835-.219.991-.826A6.592,6.592,0,0,1,57.1,25.891a7.36,7.36,0,0,1,4.592,1.391m-.007,12.034c-.225-.015-.451-.042-.676-.042q-18.505,0-37.01,0c-.126,0-.253.009-.378,0-.28-.022-.4.08-.411.382a24.629,24.629,0,0,1-.443,3.524,12.43,12.43,0,0,1-3.706,6.987,14.64,14.64,0,0,1-5.6,2.984,26.814,26.814,0,0,1-7.1,1.046,31.3,31.3,0,0,1-3.393-.014c-.4-.021-.52.111-.513.509.028,1.513.024,3.026.032,4.539-.018.107.028.147.132.126.3.007.605.021.908.021q28.443,0,56.885,0c.428,0,.856-.021,1.285-.033,1.741.011,3.483,0,5.223.046.568.016.714-.138.709-.707-.027-3.66-.014-7.321-.014-10.981q0-3.9,0-7.8c0-.332.06-.646-.471-.634-1.816.038-3.633.037-5.449.051m-4.326-2.355c2.015.377,4.431-2.2,4.53-4.045a4.434,4.434,0,1,0-8.857-.411c-.115,2.2,2.379,4.743,4.327,4.456m-4.988-.086a6.582,6.582,0,0,1-1.243-2.3c-.126-.5-.357-.563-.779-.561-2.321.012-4.643.005-6.964.005q-3.406,0-6.813,0c-.329,0-.717-.046-.765.388a4.869,4.869,0,0,1-.714,1.666c-.394.772-.378.806.474.806h16.8Zm-17.7-.039-.054.044c.016.015.031.042.047.043s.034-.025.051-.039l-.044-.048" transform="translate(0 0)"/>
        <path id="Trazado_720478" data-name="Trazado 720478" d="M67.329,60.092c.006.223-.023.418-.315.413.019-.2.053-.4.315-.413" transform="translate(-56.838 -50.967)" fill="#020202"/>
        <path id="Trazado_720479" data-name="Trazado 720479" d="M100.448,178.539c.248-.014.31.083.176.3-.172.038-.244-.1-.334-.2l.159-.1" transform="translate(-85.061 -151.428)" fill="#827080"/>
        <path id="Trazado_720480" data-name="Trazado 720480" d="M137.39,28.977c0,.249-.125.212-.275.127.008-.224.16-.135.275-.127" transform="translate(-116.295 -24.557)" fill="#020202"/>
        <path id="Trazado_720481" data-name="Trazado 720481" d="M269.747,95.059l-.109-.115c.1-.025.145.008.109.115" transform="translate(-228.695 -80.52)" fill="#020202"/>
        <path id="Trazado_720482" data-name="Trazado 720482" d="M63.513,64.141c0,.035,0,.07,0,.106l-.1-.1.106-.009" transform="translate(-53.779 -54.401)" fill="#020202"/>
        <path id="Trazado_720483" data-name="Trazado 720483" d="M88.309,26.025l.9-.341c.1.026.135-.037.163-.114.187-.087.456.12.589-.163a.445.445,0,0,0,.471-.291c.187-.088.457.12.589-.164a.445.445,0,0,0,.471-.29l1.953-.769a1.727,1.727,0,0,0,.072.29q1.6,3.663,3.21,7.324,1.393,3.168,2.794,6.334c-1.645.874-3.368,1.573-5.085,2.291-2.526,1.056-5.024,2.179-7.544,3.247-1.626.689-3.18,1.547-4.877,2.076-.318.1-.411.161-.575-.23-1.212-2.873-2.469-5.727-3.72-8.583-.581-1.326-1.178-2.645-1.773-3.965a1.171,1.171,0,0,1,.61-1.559c1.364-.7,2.786-1.275,4.177-1.9a34.086,34.086,0,0,1,4.56-1.8c.3-.085.424-.4.734-.374.1.025.136-.038.163-.115a5.135,5.135,0,0,0,1.958-.795c.1.026.136-.038.163-.114m7.935,7.125a2.531,2.531,0,0,0-1.468.385c-1,.432-2,.852-3,1.286-2.394,1.044-4.788,2.085-7.175,3.145a1.108,1.108,0,0,0-.6,1.6,1.086,1.086,0,0,0,1.554.547c1.32-.561,2.643-1.112,3.958-1.683q3.572-1.553,7.134-3.128a1.139,1.139,0,0,0,.721-1.528c-.154-.556-.586-.7-1.13-.62m-2.176-5.483a7.049,7.049,0,0,0-3.249,1.059c-1.455.723-3,1.233-4.433,1.984S83.367,32,81.963,32.856a.974.974,0,0,0-.142,1.614,1.287,1.287,0,0,0,1.585.135c2.388-1,4.735-2.093,7.148-3.047,1.267-.5,2.531-1.11,3.773-1.72.738-.362.7-.924.615-1.5a.759.759,0,0,0-.873-.675" transform="translate(-64.321 -20.265)" fill="#ffa031"/>
        <path id="Trazado_720484" data-name="Trazado 720484" d="M317.594,57.183c.258.223.122.519.123.776.011,3.328.005,6.656.009,9.985,0,1.11.41,1.506,1.535,1.511l6.807.024q0,3.1,0,6.2a7.36,7.36,0,0,0-4.592-1.391,6.592,6.592,0,0,0-6.138,4.964c-.156.608-.313.91-.991.826-.816-.1-1.919.344-2.386-.172-.408-.449-.134-1.53-.135-2.333q-.007-9.5,0-19a4.448,4.448,0,0,0-.115-1.4l.12-.116h5.613Z" transform="translate(-264.377 -48.4)" fill="#ffa031"/>
        <path id="Trazado_720485" data-name="Trazado 720485" d="M17.933,271.25a2.672,2.672,0,0,1,2.707-3.037c1.073.071,1.563-.473,1.549-1.555a3.694,3.694,0,0,1,3.959-3.914,4.134,4.134,0,0,1,2.066.613c.764.474,1.394.18,1.749-.644a5.358,5.358,0,0,1,2.727-3.232,6.745,6.745,0,0,1,3.121-.345c.351.025.337.247.315.47a14.913,14.913,0,0,1-2.006,7.037,10.463,10.463,0,0,1-4.939,3.714,13.282,13.282,0,0,1-4.412.967,17.6,17.6,0,0,1-3.325.155,24.013,24.013,0,0,0-3.34.075l-.169-.3" transform="translate(-15.185 -219.756)" fill="#827080"/>
        <path id="Trazado_720486" data-name="Trazado 720486" d="M20.072,120.926a2.77,2.77,0,0,1-3.232-.364,3.015,3.015,0,0,1-.429-3.723,1.382,1.382,0,0,1,.427-.421c.9-.668.916-1.441.029-2.18a2.254,2.254,0,0,1-.838-2.281,1.711,1.711,0,0,1,2.592-1,1.132,1.132,0,0,0,1.317.041,1,1,0,0,0,.5-1.244A2.9,2.9,0,0,1,21.83,106.4a2.235,2.235,0,0,1,2.995.951c.632,1.247,1.018,2.611,1.709,3.81a2.139,2.139,0,0,1-.525,2.831,3.626,3.626,0,0,1-3.632,1.092,1.185,1.185,0,0,0-1.32.445.967.967,0,0,0,.039,1.312,2.386,2.386,0,0,1,.333,2.611,2.251,2.251,0,0,1-1.2,1.372c-.1-.033-.131.033-.159.105" transform="translate(-13.536 -90.022)" fill="#827080"/>
        <path id="Trazado_720487" data-name="Trazado 720487" d="M197.865,30.029q-1.4-3.167-2.794-6.334-1.609-3.66-3.21-7.324a1.722,1.722,0,0,1-.072-.29,13.175,13.175,0,0,1,3-1.328,1.141,1.141,0,0,1,1.5.785,24.532,24.532,0,0,0,1.262,2.949c.553.953.708,2.029,1.181,3,.944,1.938,1.7,3.959,2.491,5.965-.034.1.031.132.111.153.414.809.376,1.012-.367,1.3-1.024.4-2.067.75-3.1,1.121" transform="translate(-162.668 -12.453)" fill="#ffa031"/>
        <path id="Trazado_720488" data-name="Trazado 720488" d="M384.319,56.915c1.384-.01,2.77-.066,4.152-.017a3.6,3.6,0,0,1,2.979,2.808c.454,1.931,1.012,3.838,1.363,5.794a.886.886,0,0,0,.048.142c.486,1.339.486,1.345-.911,1.337-1.535-.008-3.069-.028-4.6-.043-.882-3.379-1.247-6.914-3.028-10.021" transform="translate(-325.962 -48.241)" fill="#9ed0e1"/>
        <path id="Trazado_720489" data-name="Trazado 720489" d="M172.614,188.045a4.317,4.317,0,0,1-1.78,5.778,4.43,4.43,0,0,1-6.552-2.993c-.423-2.017.537-3.4,2.014-4.574a3.178,3.178,0,0,1,2.8-.525,3.4,3.4,0,0,1,1.726.486c.048.241.206.305.428.266a3.884,3.884,0,0,1,.911.953l-.12.066.119.029a.65.65,0,0,1,.331.355c-.03.106.034.14.12.159m-3.965.9a1.061,1.061,0,0,0-1.183,1.071,1.186,1.186,0,0,0,1.115,1.051c.83.011,1.156-.292,1.158-1.076,0-.751-.3-1.044-1.09-1.045" transform="translate(-139.251 -157.438)" fill="#d4d5de"/>
        <path id="Trazado_720490" data-name="Trazado 720490" d="M353.555,194.337c-1.947.287-4.442-2.258-4.327-4.456a4.434,4.434,0,1,1,8.857.411c-.1,1.849-2.515,4.422-4.53,4.045m.113-3.327a1.18,1.18,0,0,0,1.2-1.149,1.391,1.391,0,0,0-1.277-1.117,1.188,1.188,0,0,0-1.02,1.169.967.967,0,0,0,1.094,1.1" transform="translate(-296.197 -157.376)" fill="#d4d5de"/>
        <path id="Trazado_720491" data-name="Trazado 720491" d="M406.273,144.853v-6.2c1.815-.008,3.63-.009,5.445-.03.355,0,.49.1.48.468-.022.831-.019,1.664,0,2.5.007.329-.12.452-.436.45-.555,0-1.11,0-1.663.022a1.151,1.151,0,0,0-1.236,1.13c0,.72.447,1.141,1.256,1.183.126.007.252,0,.378,0,1.7,0,1.7,0,1.7,1.738,0,.857-.018,1.715.008,2.572.012.408-.084.589-.537.57-.831-.034-1.664-.019-2.5,0-.293.005-.436-.066-.5-.384a7.594,7.594,0,0,0-2.387-4.01" transform="translate(-344.581 -117.571)" fill="#ffa031"/>
        <path id="Trazado_720492" data-name="Trazado 720492" d="M369.208,57.095c1.781,3.107,2.145,6.642,3.028,10.021-1.763.014-3.526.02-5.288.05-.4.007-.446-.182-.445-.509q.023-4.725.029-9.451l.107-.117,2.569,0" transform="translate(-310.851 -48.421)" fill="#b8e9fb"/>
        <path id="Trazado_720493" data-name="Trazado 720493" d="M123.362,187.264c-.137.492-.133,1.248-.444,1.414a4.164,4.164,0,0,1-1.769.116c-.806.009-1.612-.014-2.418.009-.393.012-.532-.119-.52-.516.025-.83.01-1.662.008-2.493,0-.3.031-.54.437-.538,1.932.01,3.864,0,5.842,0-.293.7-.852,1.167-1.025,1.847-.079.023-.142.057-.111.157" transform="translate(-100.261 -157.125)" fill="#a294a0"/>
        <path id="Trazado_720494" data-name="Trazado 720494" d="M234.008,188.989c-1.381.009-2.762.016-4.143.03-.245,0-.506-.037-.528-.3a9,9,0,0,0-1.344-3.2h6.019q0,1.736,0,3.472" transform="translate(-193.374 -157.347)" fill="#a294a0"/>
        <path id="Trazado_720495" data-name="Trazado 720495" d="M267.6,188.769q0-1.736,0-3.472c1.33-.011,2.66-.011,3.99-.039.409-.009.525.167.506.54-.044.874-.088,1.75-.1,2.625,0,.383-.222.378-.488.376q-1.958-.018-3.915-.029" transform="translate(-226.966 -157.127)" fill="#887c87"/>
        <path id="Trazado_720496" data-name="Trazado 720496" d="M16.626,339.119l.169.3c-.141.172-.3.216-.408-.008-.088-.192.088-.253.239-.3" transform="translate(-13.879 -287.625)" fill="#333"/>
        <path id="Trazado_720497" data-name="Trazado 720497" d="M146.982,168.667a.608.608,0,0,0-.02.135.222.222,0,0,1-.295.127.116.116,0,0,1-.052-.1c.071-.162.219-.163.367-.161" transform="translate(-124.351 -143.055)" fill="#333"/>
        <path id="Trazado_720498" data-name="Trazado 720498" d="M169.311,31.938a.445.445,0,0,1-.471.291c.024-.313.25-.3.471-.291" transform="translate(-143.202 -27.086)" fill="#020202"/>
        <path id="Trazado_720499" data-name="Trazado 720499" d="M208.371,189.8c-.222.039-.38-.026-.428-.266.2,0,.4-.013.428.266" transform="translate(-176.368 -160.753)" fill="#020202"/>
        <path id="Trazado_720500" data-name="Trazado 720500" d="M176.293,28.945a.445.445,0,0,1-.471.29c.024-.313.25-.3.471-.29" transform="translate(-149.124 -24.547)" fill="#020202"/>
        <path id="Trazado_720501" data-name="Trazado 720501" d="M219,200.684c-.085-.019-.15-.053-.12-.159l.12.159" transform="translate(-185.641 -170.076)" fill="#020202"/>
        <path id="Trazado_720502" data-name="Trazado 720502" d="M216.087,197.655l-.119-.029.12-.066q0,.047,0,.095" transform="translate(-183.174 -167.561)" fill="#020202"/>
        <path id="Trazado_720503" data-name="Trazado 720503" d="M152.093,197.607c-.03-.1.032-.135.111-.157l-.111.157" transform="translate(-128.992 -167.468)" fill="#020202"/>
        <path id="Trazado_720504" data-name="Trazado 720504" d="M228.045,242.59l.044.048c-.017.014-.034.039-.051.039s-.032-.027-.047-.043l.054-.044" transform="translate(-193.372 -205.754)" fill="#827080"/>
        <path id="Trazado_720505" data-name="Trazado 720505" d="M43.041,202.886c.029-.072.061-.138.159-.105l-.159.105" transform="translate(-36.505 -171.982)" fill="#020202"/>
        <path id="Trazado_720506" data-name="Trazado 720506" d="M253.971,98.943c-.079-.021-.145-.051-.111-.153l.111.153" transform="translate(-215.305 -83.789)" fill="#020202"/>
        <path id="Trazado_720507" data-name="Trazado 720507" d="M366.729,57.055l-.107.117c-.038-.106.006-.138.107-.117" transform="translate(-310.94 -48.387)" fill="#9ed0e1"/>
        <path id="Trazado_720508" data-name="Trazado 720508" d="M349.615,57.154l-.153-.118c.1-.024.135.036.153.118" transform="translate(-296.398 -48.371)" fill="#fe5c61"/>
        <path id="Trazado_720509" data-name="Trazado 720509" d="M311.8,57.023l-.12.116c-.021-.1.017-.142.12-.116" transform="translate(-264.347 -48.358)" fill="#fe5c61"/>
        <path id="Trazado_720510" data-name="Trazado 720510" d="M143.1,43.922c-.027.077-.064.14-.164.115l.164-.115" transform="translate(-121.233 -37.253)" fill="#020202"/>
        <path id="Trazado_720511" data-name="Trazado 720511" d="M157.068,37.935c-.027.077-.064.14-.163.114l.163-.114" transform="translate(-133.08 -32.175)" fill="#020202"/>
        <path id="Trazado_720512" data-name="Trazado 720512" d="M164.053,34.942c-.027.076-.064.14-.163.114Z" transform="translate(-139.004 -29.636)" fill="#020202"/>
        <path id="Trazado_720513" data-name="Trazado 720513" d="M16.315,390.052l.132.126c-.1.021-.15-.019-.132-.126" transform="translate(-13.834 -330.824)" fill="#eaa01b"/>
        <path id="Trazado_720514" data-name="Trazado 720514" d="M198.06,293.284a1.255,1.255,0,0,1-1.115,1.272,1.419,1.419,0,0,1-1.158-1.306c.009-.682.332-.962,1.113-.965.858,0,1.16.256,1.161,1" transform="translate(-166.057 -247.903)" fill="#020202"/>
        <path id="Trazado_720515" data-name="Trazado 720515" d="M406.361,350.754c.639-.661,1.168-.794,1.742-.434a1.072,1.072,0,0,1,.527,1.146,1.09,1.09,0,0,1-.72.88,1,1,0,0,1-1.227-.265,2.748,2.748,0,0,0-.323-.3v-1.023" transform="translate(-344.656 -296.96)" fill="#020202"/>
        <path id="Trazado_720516" data-name="Trazado 720516" d="M359.685,298.46a1.081,1.081,0,0,1-1.126,1.085,1.137,1.137,0,1,1,.048-2.272c.737-.006,1.088.38,1.078,1.186" transform="translate(-303.14 -252.134)" fill="#020202"/>
        <path id="Trazado_720517" data-name="Trazado 720517" d="M251.789,334.185a1.092,1.092,0,0,1,1.165,1.081,1.15,1.15,0,0,1-1.166,1.185,1.13,1.13,0,0,1-1.106-1.165,1,1,0,0,1,1.107-1.1" transform="translate(-212.617 -283.44)" fill="#020202"/>
        <path id="Trazado_720518" data-name="Trazado 720518" d="M337.671,342.165c.78,0,1.071.3,1.068,1.082a1.166,1.166,0,0,1-1.058,1.191,1.5,1.5,0,0,1-1.214-1.212,1.082,1.082,0,0,1,1.2-1.06" transform="translate(-285.375 -290.209)" fill="#020202"/>
        <path id="Trazado_720519" data-name="Trazado 720519" d="M141,351.14a1.168,1.168,0,0,1,1.179,1.091,1.325,1.325,0,0,1-1.217,1.181,1.177,1.177,0,0,1-1.074-1.2c.008-.739.36-1.077,1.112-1.07" transform="translate(-118.645 -297.821)" fill="#020202"/>
        <path id="Trazado_720520" data-name="Trazado 720520" d="M141.093,84.741c.544-.076.976.063,1.13.619a1.139,1.139,0,0,1-.721,1.528q-3.561,1.579-7.134,3.128c-1.315.572-2.638,1.123-3.958,1.683a1.086,1.086,0,0,1-1.554-.547,1.108,1.108,0,0,1,.6-1.6c2.386-1.06,4.781-2.1,7.175-3.145,1-.434,2-.854,3-1.286a2.53,2.53,0,0,1,1.468-.385" transform="translate(-109.169 -71.856)" fill="#020202"/>
        <path id="Trazado_720521" data-name="Trazado 720521" d="M125.479,48.71a.759.759,0,0,1,.873.675c.082.571.123,1.133-.615,1.5-1.242.61-2.507,1.219-3.773,1.72-2.412.954-4.76,2.045-7.148,3.047a1.287,1.287,0,0,1-1.585-.135.974.974,0,0,1,.142-1.614c1.4-.859,2.971-1.389,4.423-2.147s2.978-1.261,4.433-1.984a7.049,7.049,0,0,1,3.249-1.059" transform="translate(-95.732 -41.308)"/>
        <path id="Trazado_720522" data-name="Trazado 720522" d="M187,207.491c.787,0,1.093.295,1.09,1.045,0,.785-.328,1.087-1.158,1.076a1.186,1.186,0,0,1-1.115-1.051A1.061,1.061,0,0,1,187,207.491" transform="translate(-157.598 -175.984)" fill="#020202"/>
        <path id="Trazado_720523" data-name="Trazado 720523" d="M372.377,208.837a.967.967,0,0,1-1.094-1.1,1.188,1.188,0,0,1,1.02-1.169,1.391,1.391,0,0,1,1.277,1.117,1.18,1.18,0,0,1-1.2,1.149" transform="translate(-314.906 -175.204)" fill="#020202"/>
      </g>
    </g>
  </g>
</svg>
