<svg xmlns="http://www.w3.org/2000/svg" xmlns:xlink="http://www.w3.org/1999/xlink" width="111" height="111" viewBox="0 0 111 111">
  <defs>
    <clipPath id="clip-path">
      <rect id="Rectángulo_349195" data-name="Rectángulo 349195" width="67.164" height="67.176" fill="none"/>
    </clipPath>
  </defs>
  <g id="Grupo_1011137" data-name="Grupo 1011137" transform="translate(-1158 -1986)">
    <circle id="Elipse_5448" data-name="Elipse 5448" cx="55.5" cy="55.5" r="55.5" transform="translate(1158 1986)" fill="#fff"/>
    <g id="Grupo_1009680" data-name="Grupo 1009680" transform="translate(1179.918 2002.898)">
      <g id="Grupo_1009679" data-name="Grupo 1009679" clip-path="url(#clip-path)">
        <path id="Trazado_720524" data-name="Trazado 720524" d="M61.393,67.175H1.053A1.541,1.541,0,0,1,0,65.616c.009-6.582-.009-13.163.015-19.745a8.638,8.638,0,0,1,2.526-6.082,1.4,1.4,0,0,0,.335-.849c.038-1.136.007-2.274.019-3.411.01-.946.551-1.557,1.335-1.539a1.362,1.362,0,0,1,1.283,1.523c.011.741,0,1.483,0,2.152a23.907,23.907,0,0,1,3.184-.42,25.177,25.177,0,0,1,3.251.388V23.946a15.4,15.4,0,0,1-3.216.655,15.428,15.428,0,0,1-3.218-.678c0,.4.008.923,0,1.444a1.367,1.367,0,0,1-1.293,1.516A1.349,1.349,0,0,1,2.9,25.4c-.012-2.23-.045-4.462.011-6.691A5.838,5.838,0,0,1,7.2,13.136a2.2,2.2,0,0,0,.858-.544Q13.475,7.2,18.869,1.79c2.394-2.393,5.193-2.387,7.6.017q2.854,2.851,5.7,5.706c1.2,1.208,2.454,2.375,3.584,3.648a3.868,3.868,0,0,1-.73,5.89,1.651,1.651,0,0,0-.853,1.8,1.453,1.453,0,0,1,0,.328,1.307,1.307,0,0,0,.486,1.207c.706.652,1.386,1.336,2.039,2.041a1.813,1.813,0,0,1,.537.934,17.683,17.683,0,0,1,.011,2.618,1.265,1.265,0,0,1-2.483.109c-.089-.512-.049-1.044-.1-1.563a1.228,1.228,0,0,0-.219-.643c-.477-.563-1-1.091-1.473-1.6-1.248.972-2.292,1.92-1.918,3.592a.544.544,0,0,1-.024.194,1.337,1.337,0,0,1-1.314,1.218,1.3,1.3,0,0,1-1.265-1.331,12.95,12.95,0,0,1,.011-2.161,2.67,2.67,0,0,1,.554-1.33,20.133,20.133,0,0,1,2.076-2.094c.8-.706.392-1.6.415-2.4.006-.218-.52-.452-.8-.676a5.038,5.038,0,0,1-.418-.315c-1.534-1.494-3.07-2.986-4.59-4.495-.632-.627-1.224-1.294-1.838-1.947-.18.141-.252.187-.312.246q-4.315,4.312-8.615,8.638a1.346,1.346,0,0,0-.3.869q-.026,8.1-.011,16.2c0,.229.025.459.037.663h4.683v-.774q0-3.378,0-6.757c0-1.437.408-1.853,1.816-1.854q4.23,0,8.46,0c1.383,0,1.788.411,1.79,1.8,0,2.34.014,4.68-.009,7.019,0,.487.131.644.627.633,1.4-.031,2.8-.009,4.2-.014a4.3,4.3,0,0,0,.514-.064c0-2.521,0-4.991,0-7.46,0-1.549.374-1.918,1.945-1.918h7a7.5,7.5,0,0,1,1.811-4.458,7.742,7.742,0,0,1,4.2-2.484,6.964,6.964,0,0,1-1.073-4.448c0-.251-.205-.507-.32-.759-.174-.384-.5-.763-.5-1.149a6.4,6.4,0,0,1,3.026-5.826,6.251,6.251,0,0,1,6.885-.17,6.509,6.509,0,0,1,3.336,5.793,1.535,1.535,0,0,1-.622,1.435.576.576,0,0,0-.23.407,7.319,7.319,0,0,1-1.048,4.7c.236.082.378.139.524.18a7.491,7.491,0,0,1,4.2,3.047,9.528,9.528,0,0,1,1.293,3.387v12.2a14.828,14.828,0,0,1-.962,2.192,4.911,4.911,0,0,1-3.76,2.165v.8q0,10.319.009,20.638a1.636,1.636,0,0,1-1.058,1.755M17.541,52.693h.828q6.919,0,13.837,0a5.669,5.669,0,0,1,.914.052,1.274,1.274,0,0,1,.06,2.486,4.761,4.761,0,0,1-.976.081q-6.919.007-13.837,0h-.8v9.2H50.321V49.067H17.541Zm16.7-12.858q-9.637,0-19.275,0c-.327,0-.656.007-.982.035a3.239,3.239,0,0,0-2.612,4.659,3.47,3.47,0,0,0,3.47,1.87q19.406-.015,38.812-.008a8.032,8.032,0,0,0,.98-.063,3.244,3.244,0,0,0,2.727-3.97,3.3,3.3,0,0,0-3.582-2.522q-9.769-.006-19.537,0M9.352,39.778a15.4,15.4,0,0,0-2.125.275,6.09,6.09,0,0,0-4.6,6.173q-.015,8.823,0,17.646c0,.211.019.422.03.641H14.847V49.085a18.178,18.178,0,0,1-1.958-.288,1.052,1.052,0,0,0-1.151.284,4.13,4.13,0,0,1-4,1.059,4.436,4.436,0,0,1,.468-8.719.892.892,0,0,0,.555-.349,11.279,11.279,0,0,0,.591-1.294m41.022-2.6c0-2.192,0-4.332,0-6.472a3.641,3.641,0,0,1,.071-.844,1.272,1.272,0,0,1,2.478.008,3.711,3.711,0,0,1,.068.844c.005,2.139,0,4.277,0,6.508,3.116-.215,5.461.916,6.781,3.843.04-3.411.04-6.776.04-10.141,0-.218-.009-.438,0-.655a1.312,1.312,0,1,1,2.617.031c.009.174,0,.35,0,.524V41.292a2.332,2.332,0,0,0,2.086-2.307c.023-3.627.06-7.256-.012-10.882a4.733,4.733,0,0,0-4.707-4.753c-2.377-.086-4.763-.059-7.141.021a4.752,4.752,0,0,0-4.268,3.9,2.627,2.627,0,0,0,.059.921,6.708,6.708,0,0,1,.324,1.161c.031,2.36.016,4.72.016,7.08v.741Zm-4.221-6.758H39.4v6.736h6.752ZM22.018,37.159h6.719V30.421H22.018ZM18.1,6.358,11.064,13.39a6.205,6.205,0,0,1,3,2.907L21.02,9.346A4.932,4.932,0,0,1,18.1,6.358M59.786,45.3c-.516.677-1.029,1.43-1.63,2.105a1.389,1.389,0,0,0-.446,1.008c.015,5.157.009,10.315.011,15.472,0,.209.019.419.029.628h2.036Zm-6.769,19.2h2.04V48.952l-2.04.108ZM25.7,8.781c1.634,1.633,3.3,3.3,4.967,4.96a14.39,14.39,0,0,0,1.289,1.2,1.245,1.245,0,0,0,1.58-.015,1.279,1.279,0,0,0,.532-1.495,2.218,2.218,0,0,0-.561-.86q-2.945-2.979-5.918-5.93a2.867,2.867,0,0,0-.239-.2L25.7,8.781M11.979,18.764a3.211,3.211,0,0,0-3.21-3.206,3.235,3.235,0,1,0,3.21,3.206m47.629-2.827H53.278c0,.657-.042,1.27.008,1.875a3.118,3.118,0,0,0,2.926,2.846,3.045,3.045,0,0,0,3.206-2.335,16.721,16.721,0,0,0,.19-2.386M22.689,6.985a2.141,2.141,0,0,0,2.164-2.154,2.187,2.187,0,1,0-2.164,2.154M8.328,44.12A1.6,1.6,0,0,0,6.98,45.452a1.792,1.792,0,0,0,.8,1.918,1.72,1.72,0,0,0,2.079-.142L8.328,44.12M55.071,13.238V10.5a3.4,3.4,0,0,0-2.449,2.74Zm2.691-2.806v2.783H60.3a4.114,4.114,0,0,0-2.534-2.783" transform="translate(0 0)"/>
        <path id="Trazado_720525" data-name="Trazado 720525" d="M107.117,303.092q9.769,0,19.537,0a3.3,3.3,0,0,1,3.582,2.522,3.244,3.244,0,0,1-2.727,3.97,8.034,8.034,0,0,1-.98.063q-19.406,0-38.812.009a3.47,3.47,0,0,1-3.47-1.87,3.239,3.239,0,0,1,2.612-4.659c.326-.028.655-.035.982-.035q9.638,0,19.275,0M91,307.646a1.284,1.284,0,1,0-1.32-1.265A1.3,1.3,0,0,0,91,307.646m8.362,0a1.283,1.283,0,1,0-1.288-1.3,1.3,1.3,0,0,0,1.288,1.3m9.711-1.311a1.3,1.3,0,1,0-1.273,1.311,1.307,1.307,0,0,0,1.273-1.311m8.4.034a1.3,1.3,0,1,0-1.309,1.277,1.307,1.307,0,0,0,1.309-1.277m7.073,1.277a1.283,1.283,0,1,0-1.283-1.3,1.3,1.3,0,0,0,1.283,1.3" transform="translate(-72.88 -263.256)" fill="#ffa031"/>
        <path id="Trazado_720526" data-name="Trazado 720526" d="M370.11,191.14h-1.575V190.4c0-2.36.016-4.72-.016-7.08a6.7,6.7,0,0,0-.324-1.161,2.624,2.624,0,0,1-.059-.921,4.752,4.752,0,0,1,4.267-3.9c2.378-.08,4.764-.107,7.141-.021a4.733,4.733,0,0,1,4.707,4.753c.072,3.626.035,7.255.012,10.882a2.332,2.332,0,0,1-2.086,2.307V184.786c0-.175.006-.35,0-.524a1.312,1.312,0,1,0-2.617-.031c-.012.218,0,.437,0,.655,0,3.365,0,6.729-.04,10.141-1.32-2.927-3.666-4.058-6.781-3.843,0-2.23,0-4.369,0-6.508a3.729,3.729,0,0,0-.068-.844,1.272,1.272,0,0,0-2.478-.008,3.651,3.651,0,0,0-.071.844c-.005,2.14,0,4.279,0,6.472" transform="translate(-319.736 -153.965)" fill="#e8e8e8"/>
        <rect id="Rectángulo_349193" data-name="Rectángulo 349193" width="6.752" height="6.736" transform="translate(39.401 30.416)" fill="#dee4f0"/>
        <rect id="Rectángulo_349194" data-name="Rectángulo 349194" width="6.719" height="6.738" transform="translate(22.018 30.421)" fill="#dee4f0"/>
        <path id="Trazado_720527" data-name="Trazado 720527" d="M91.224,48.381a4.932,4.932,0,0,0,2.917,2.987L87.189,58.32a6.2,6.2,0,0,0-3-2.907l7.038-7.032" transform="translate(-73.122 -42.022)" fill="#636363"/>
        <path id="Trazado_720528" data-name="Trazado 720528" d="M441.177,344.709v19.213h-2.036c-.01-.209-.029-.418-.029-.628,0-5.157,0-10.315-.011-15.472a1.389,1.389,0,0,1,.446-1.008c.6-.676,1.114-1.428,1.63-2.106" transform="translate(-381.391 -299.404)" fill="#e8e8e8"/>
        <path id="Trazado_720529" data-name="Trazado 720529" d="M403.395,388.016V372.567l2.04-.108v15.557Z" transform="translate(-350.377 -323.507)" fill="#e8e8e8"/>
        <path id="Trazado_720530" data-name="Trazado 720530" d="M195.557,51.366l1.649-2.337a2.861,2.861,0,0,1,.239.2q2.964,2.96,5.918,5.93a2.218,2.218,0,0,1,.561.86,1.279,1.279,0,0,1-.532,1.494,1.244,1.244,0,0,1-1.579.015,14.373,14.373,0,0,1-1.289-1.2c-1.67-1.66-3.333-3.327-4.967-4.96" transform="translate(-169.855 -42.585)" fill="#636363"/>
        <path id="Trazado_720534" data-name="Trazado 720534" d="M54.192,335.7l1.535,3.107a1.72,1.72,0,0,1-2.079.142,1.792,1.792,0,0,1-.8-1.918,1.6,1.6,0,0,1,1.349-1.332" transform="translate(-45.864 -291.579)" fill="#4db1f0"/>
        <path id="Trazado_720535" data-name="Trazado 720535" d="M402.837,82.619h-2.449a3.4,3.4,0,0,1,2.449-2.74Z" transform="translate(-347.766 -69.381)" fill="#ffa031"/>
        <path id="Trazado_720536" data-name="Trazado 720536" d="M439.495,79.375a4.114,4.114,0,0,1,2.534,2.783h-2.534Z" transform="translate(-381.733 -68.943)" fill="#ffa031"/>
        <path id="Trazado_720537" data-name="Trazado 720537" d="M24.691,225.961a1.3,1.3,0,1,1-1.32-1.279,1.351,1.351,0,0,1,1.32,1.279" transform="translate(-19.186 -195.152)"/>
        <path id="Trazado_720538" data-name="Trazado 720538" d="M279.776,403.641a1.284,1.284,0,1,1,.045-2.568,1.284,1.284,0,1,1-.045,2.568" transform="translate(-241.898 -348.361)"/>
        <path id="Trazado_720539" data-name="Trazado 720539" d="M129.177,320.783a1.284,1.284,0,1,1,1.284-1.3,1.3,1.3,0,0,1-1.284,1.3" transform="translate(-111.053 -276.394)"/>
        <path id="Trazado_720540" data-name="Trazado 720540" d="M193.014,320.784a1.283,1.283,0,1,1,1.317-1.268,1.3,1.3,0,0,1-1.317,1.268" transform="translate(-166.528 -276.395)"/>
        <path id="Trazado_720541" data-name="Trazado 720541" d="M258.213,319.472a1.3,1.3,0,1,1-1.33-1.255,1.3,1.3,0,0,1,1.33,1.255" transform="translate(-222.016 -276.393)"/>
        <path id="Trazado_720542" data-name="Trazado 720542" d="M322.077,319.507a1.3,1.3,0,1,1-1.3-1.289,1.3,1.3,0,0,1,1.3,1.289" transform="translate(-277.483 -276.395)"/>
        <path id="Trazado_720543" data-name="Trazado 720543" d="M384.637,320.783a1.283,1.283,0,1,1,1.321-1.263,1.3,1.3,0,0,1-1.321,1.263" transform="translate(-332.971 -276.394)"/>
        <path id="Trazado_720544" data-name="Trazado 720544" d="M58.109,133.014a1.343,1.343,0,0,1,1.307,1.3,1.315,1.315,0,0,1-1.29,1.3,1.3,1.3,0,0,1-1.3-1.285,1.32,1.32,0,0,1,1.28-1.313" transform="translate(-49.361 -115.532)"/>
        <path id="Trazado_720545" data-name="Trazado 720545" d="M163.982,26.86a1.315,1.315,0,0,1,1.282,1.306,1.351,1.351,0,0,1-1.326,1.279,1.32,1.32,0,0,1-1.27-1.323,1.281,1.281,0,0,1,1.315-1.262" transform="translate(-141.288 -23.33)"/>
      </g>
    </g>
  </g>
</svg>
