<svg id="Grupo_1009639" data-name="Grupo 1009639" xmlns="http://www.w3.org/2000/svg" xmlns:xlink="http://www.w3.org/1999/xlink" width="135.655" height="135.655" viewBox="0 0 135.655 135.655">
  <defs>
    <clipPath id="clip-path">
      <rect id="Rectángulo_349141" data-name="Rectángulo 349141" width="135.655" height="135.655" fill="none"/>
    </clipPath>
  </defs>
  <g id="Grupo_1009638" data-name="Grupo 1009638" clip-path="url(#clip-path)">
    <path id="Trazado_720380" data-name="Trazado 720380" d="M133.655,67.827A65.827,65.827,0,1,1,67.827,2a65.829,65.829,0,0,1,65.828,65.828" fill="#fff"/>
    <path id="Trazado_720381" data-name="Trazado 720381" d="M67.827,135.655a67.827,67.827,0,1,1,67.828-67.827,67.9,67.9,0,0,1-67.828,67.827M67.827,4a63.827,63.827,0,1,0,63.828,63.828A63.9,63.9,0,0,0,67.827,4" fill="#12263f"/>
    <path id="Trazado_720382" data-name="Trazado 720382" d="M47.363,99.076H30.019l2.425-77.209H44.938Z" fill="#ffa031"/>
    <path id="Trazado_720383" data-name="Trazado 720383" d="M45.331,34.374l-.17-5.417H32.221l-.17,5.417Z" fill="#12263f"/>
    <path id="Trazado_720384" data-name="Trazado 720384" d="M64.7,85.062H52.974l1.639-52.194H63.06Z" fill="#12263f"/>
    <path id="Trazado_720385" data-name="Trazado 720385" d="M63.325,41.323l-.115-3.662H54.462l-.114,3.662Z" fill="#a7c2d6"/>
    <path id="Trazado_720386" data-name="Trazado 720386" d="M98.639,39.017V28.447H70.645v10.57L58.256,99.076h52.771Z" fill="#ffa031"/>
    <rect id="Rectángulo_349110" data-name="Rectángulo 349110" width="27.994" height="0.75" transform="translate(70.645 38.642)" fill="#70799a"/>
    <path id="Trazado_720387" data-name="Trazado 720387" d="M99.166,30.044H70.117a1.6,1.6,0,0,1,0-3.194H99.166a1.6,1.6,0,1,1,0,3.194" fill="#12263f"/>
    <rect id="Rectángulo_349111" data-name="Rectángulo 349111" width="27.994" height="0.75" transform="translate(70.645 29.669)" fill="#70799a"/>
    <path id="Trazado_720388" data-name="Trazado 720388" d="M74.348,47.357v9.978L49.465,47.357v9.978L24.581,47.357v55.774h74.65v-45.8Z" fill="#b0c0d2"/>
    <rect id="Rectángulo_349112" data-name="Rectángulo 349112" width="4.828" height="5.111" transform="translate(29.169 67.503)" fill="#12263f"/>
    <rect id="Rectángulo_349113" data-name="Rectángulo 349113" width="4.828" height="5.111" transform="translate(35.234 67.503)" fill="#12263f"/>
    <rect id="Rectángulo_349114" data-name="Rectángulo 349114" width="4.828" height="5.111" transform="translate(47.363 67.503)" fill="#12263f"/>
    <rect id="Rectángulo_349115" data-name="Rectángulo 349115" width="4.828" height="5.111" transform="translate(53.428 67.503)" fill="#12263f"/>
    <rect id="Rectángulo_349116" data-name="Rectángulo 349116" width="4.828" height="5.111" transform="translate(65.557 67.503)" fill="#12263f"/>
    <rect id="Rectángulo_349117" data-name="Rectángulo 349117" width="4.828" height="5.111" transform="translate(71.622 67.503)" fill="#12263f"/>
    <rect id="Rectángulo_349118" data-name="Rectángulo 349118" width="4.828" height="5.111" transform="translate(83.751 67.503)" fill="#12263f"/>
    <rect id="Rectángulo_349119" data-name="Rectángulo 349119" width="4.828" height="5.111" transform="translate(89.815 67.503)" fill="#12263f"/>
    <rect id="Rectángulo_349120" data-name="Rectángulo 349120" width="74.65" height="0.75" transform="translate(24.581 64.573)" fill="#12263f"/>
    <rect id="Rectángulo_349121" data-name="Rectángulo 349121" width="74.65" height="0.75" transform="translate(24.581 74.795)" fill="#12263f"/>
    <rect id="Rectángulo_349122" data-name="Rectángulo 349122" width="16.957" height="17.951" transform="translate(35.234 81.125)" fill="#fff"/>
    <rect id="Rectángulo_349123" data-name="Rectángulo 349123" width="18.523" height="1.563" transform="translate(34.451 81.125)" fill="#12263f"/>
    <rect id="Rectángulo_349124" data-name="Rectángulo 349124" width="16.957" height="0.75" transform="translate(35.234 83.96)" fill="#12263f"/>
    <rect id="Rectángulo_349125" data-name="Rectángulo 349125" width="16.957" height="0.75" transform="translate(35.234 86.142)" fill="#12263f"/>
    <rect id="Rectángulo_349126" data-name="Rectángulo 349126" width="16.957" height="0.75" transform="translate(35.234 88.324)" fill="#12263f"/>
    <rect id="Rectángulo_349127" data-name="Rectángulo 349127" width="16.957" height="0.75" transform="translate(35.234 90.507)" fill="#12263f"/>
    <rect id="Rectángulo_349128" data-name="Rectángulo 349128" width="16.957" height="0.75" transform="translate(35.234 92.689)" fill="#12263f"/>
    <rect id="Rectángulo_349129" data-name="Rectángulo 349129" width="16.957" height="0.75" transform="translate(35.234 94.871)" fill="#12263f"/>
    <rect id="Rectángulo_349130" data-name="Rectángulo 349130" width="16.957" height="0.75" transform="translate(35.234 97.053)" fill="#12263f"/>
    <rect id="Rectángulo_349131" data-name="Rectángulo 349131" width="16.957" height="17.951" transform="translate(71.647 81.125)" fill="#fff"/>
    <rect id="Rectángulo_349132" data-name="Rectángulo 349132" width="18.523" height="1.563" transform="translate(70.864 81.125)" fill="#12263f"/>
    <rect id="Rectángulo_349133" data-name="Rectángulo 349133" width="16.957" height="0.75" transform="translate(71.647 83.96)" fill="#12263f"/>
    <rect id="Rectángulo_349134" data-name="Rectángulo 349134" width="16.957" height="0.75" transform="translate(71.647 86.142)" fill="#12263f"/>
    <rect id="Rectángulo_349135" data-name="Rectángulo 349135" width="16.957" height="0.75" transform="translate(71.647 88.324)" fill="#12263f"/>
    <rect id="Rectángulo_349136" data-name="Rectángulo 349136" width="16.957" height="0.75" transform="translate(71.647 90.507)" fill="#12263f"/>
    <rect id="Rectángulo_349137" data-name="Rectángulo 349137" width="16.957" height="0.75" transform="translate(71.647 92.689)" fill="#12263f"/>
    <rect id="Rectángulo_349138" data-name="Rectángulo 349138" width="16.957" height="0.75" transform="translate(71.647 94.871)" fill="#12263f"/>
    <rect id="Rectángulo_349139" data-name="Rectángulo 349139" width="16.957" height="0.75" transform="translate(71.647 97.053)" fill="#12263f"/>
    <rect id="Rectángulo_349140" data-name="Rectángulo 349140" width="90.24" height="5.829" transform="translate(22.675 99.075)" fill="#727997"/>
  </g>
</svg>
