<svg xmlns="http://www.w3.org/2000/svg" xmlns:xlink="http://www.w3.org/1999/xlink" width="145.542" height="276.853" viewBox="0 0 145.542 276.853">
  <defs>
    <clipPath id="clip-path">
      <rect id="Rectángulo_348852" data-name="Rectángulo 348852" width="22.557" height="7.929" fill="none"/>
    </clipPath>
    <clipPath id="clip-path-2">
      <rect id="Rectángulo_348853" data-name="Rectángulo 348853" width="10.254" height="7.771" fill="none"/>
    </clipPath>
    <clipPath id="clip-path-3">
      <rect id="Rectángulo_348854" data-name="Rectángulo 348854" width="6.384" height="4.729" fill="none"/>
    </clipPath>
    <clipPath id="clip-path-4">
      <rect id="Rectángulo_346390" data-name="Rectángulo 346390" width="46.807" height="46.807" fill="#12263f"/>
    </clipPath>
  </defs>
  <g id="Grupo_1011139" data-name="Grupo 1011139" transform="translate(-298 -8867.573)">
    <g id="Grupo_1009369" data-name="Grupo 1009369" transform="translate(270.262 8824.499)">
      <g id="Grupo_1009370" data-name="Grupo 1009370" transform="translate(97.665 43.074)">
        <path id="Trazado_718173" data-name="Trazado 718173" d="M81.147,65.467c-.676-1.42-5.105,12.9-5.105,12.9l-.672-4.7-4.971-3.9s-2.418,2.956-2.956,4.971-5.911,26.064-4.837,29.825.537,11.957,5.911,15.181,11.017-6.314,13.569-9.27,1.747-39.364-.94-45.007" transform="translate(-62.465 -24.721)" fill="#d2e1f1"/>
        <path id="Trazado_718174" data-name="Trazado 718174" d="M74.774,78.122s-.94,12.091.269,13.435-2.15,17.062-.806,18,3.627-7.524,2.687-10.345,2.284,2.687,2.284-.134,1.478-14.241-4.568-21.5" transform="translate(-61.609 -23.808)" fill="#d2e1f1"/>
        <path id="Trazado_718175" data-name="Trazado 718175" d="M78.022,80.514c-.387-.086-1.806.322-3.386.505a7.916,7.916,0,0,1-3.149-.14,8.7,8.7,0,0,1-5.729-4.665c1.376-1.44,5.116-11.5,5.116-11.5L75,65.553l1.806.365c-.15.924-.247,1.795-.312,2.622v.011a40.254,40.254,0,0,0,.075,6.223c.118,1.849,2.472,5.944,1.451,5.739" transform="translate(-62.219 -24.77)" fill="#727997"/>
        <path id="Trazado_718176" data-name="Trazado 718176" d="M76.39,65.86c-.15.924-.247,1.795-.312,2.622v.011a1.221,1.221,0,0,1-.2.118c-2.289,1.139-4.568-1.881-4.568-1.881L74.584,65.5Z" transform="translate(-61.804 -24.712)" fill="#b0c0d2"/>
        <path id="Trazado_718177" data-name="Trazado 718177" d="M77.6,79.973c-.387-.086-1.806.322-3.386.505a2.927,2.927,0,0,1-.376-2.923c-.806-1.29-2.472-5.256-2.472-5.256-.064-1.215,2.547,1.139,3.493,1.741a1.706,1.706,0,0,0,1.29.193c.118,1.849,2.472,5.944,1.451,5.739" transform="translate(-61.799 -24.229)" fill="#b0c0d2"/>
        <path id="Trazado_718178" data-name="Trazado 718178" d="M81.175,57.352l-1.839,5.676c-1.828,5.685-2.652,5.059-5.7,6.106-2.847.985-5.216-4.016-5.624-6.34-.36-1.961-3.941-5.548-3.8-7.249.057-.687.536-.337,1.514.931a11.677,11.677,0,0,0,2.715,2.457c.845-1.916-3.855-6.886-2.643-8.8.593-.928,3.338,6.8,4.614,6.9,0,0,.372-.666-.67-4.566-.594-2.239-1.228-4.539-.665-5.042,1.027-.908,1.463,3.995,3.992,8.98,0,0-.214-2.518-.569-4.837-.333-2.115-.863-4.058.092-4.116.784-.052,1.211,3.265,1.565,5.368a23.811,23.811,0,0,0,2.8,7.993,8.418,8.418,0,0,0,.634.98c2.352-5.632,3.58-4.444,3.58-4.444" transform="translate(-62.334 -26.071)" fill="#727997"/>
        <path id="Trazado_718179" data-name="Trazado 718179" d="M76.871,60.858s-2.405,1.066-2.878,3.019a3.248,3.248,0,0,1,2.244-4,8.386,8.386,0,0,0,.634.981" transform="translate(-61.611 -25.132)" fill="#b0c0d2"/>
        <path id="Trazado_718180" data-name="Trazado 718180" d="M137.551,86.767a54.671,54.671,0,0,1-.806,6.932q-.548,3.192-1.29,6.352v.011a152.394,152.394,0,0,1-4.643,15.864,61.191,61.191,0,0,1-3.708,9.318c-.709,1.3-1.945,2.44-2.128,3.955-.312,2.537.72,2.633-1.064,4.826-1.161,1.429-.441,3.525.279,5.223.344.817.677,1.634.989,2.461,5.181,13.327,6.588,27.181,5.309,41.433-.623,6.922-1.5,13.822-2.332,20.722-.43,3.515-1.483,7.781-.774,11.318.774,3.9-.946,41.347-6.126,61.79a53.005,53.005,0,0,1-2.515,7.771l-8.2-.236s-3.579-45.507-3.762-63.413c-.118-12.263-2.59-28.632-4.138-37.736-.72-4.2-1.236-6.868-1.236-6.868s1.978,28.117,1.978,34.393a65.284,65.284,0,0,1-1.795,13.435s3.945,43.346,2.687,62.693l-7.964.505-.451.032s-.161-.441-.441-1.268c-.763-2.2-2.44-7.169-4.407-13.671-.075-.236-.14-.473-.2-.688-.021-.065-.032-.118-.054-.183q-.484-1.6-.935-3.192c-.43-1.451-.849-2.913-1.257-4.374q-.274-.984-.548-2c-.2-.7-.387-1.4-.57-2.1-.365-1.4-.742-2.827-1.107-4.267-.914-3.611-1.795-7.352-2.59-11.113-.312-1.5-.623-3.009-.9-4.514-.15-.752-.279-1.5-.419-2.257-2.848-15.95-3.654-23.989-3.88-27.59a24.27,24.27,0,0,1-.064-2.5,154.921,154.921,0,0,1-9.136-44.776c-.6-13.628,2.494-23.452,5.352-29.449a32.7,32.7,0,0,1,4.321-7.094A.117.117,0,0,1,79,126.47c-.14-.4-1.172-3.4-.333-3.9a6.769,6.769,0,0,0,.677-.462,9.434,9.434,0,0,0,.935-.8s-.881-5.61-1.7-13.338c-1.515-14.241-2.816-35.651,2.064-42.239,3.611-4.89,10.554-4.073,12.7-3.708a21.4,21.4,0,0,1,4.192,2.053c4.8,2.741,11.758,7.255,11.758,7.255s9.641-1.752,15.069-1.161a10.41,10.41,0,0,1,1.591.269c4.837,1.257,9.136,3.762,11.285,12.005a15.566,15.566,0,0,1,.312,4.321" transform="translate(-61.956 -24.993)" fill="#fff"/>
        <path id="Trazado_718181" data-name="Trazado 718181" d="M122.4,70.009c-8.555,2.064-20.228,9.168-22.9,8.738-3.364-.537-5.374-5.514-2.558-3.5s12.36-1.2,12.36-1.2-9.544.666-11.694-3.1a18.417,18.417,0,0,1-2.031-7.029c4.8,2.741,11.758,7.255,11.758,7.255s9.641-1.752,15.069-1.161" transform="translate(-59.989 -24.83)" fill="#cee2f3"/>
        <path id="Trazado_718182" data-name="Trazado 718182" d="M85.357,129.615c.838.365-6.051.742-11.038-.516a32.7,32.7,0,0,1,4.321-7.094s5.5,7.072,6.717,7.61" transform="translate(-61.579 -20.485)" fill="#d2e1f1"/>
        <path id="Trazado_718183" data-name="Trazado 718183" d="M113.408,122.6c-.817.58-21.9,15.445-34.716-3.708a9.436,9.436,0,0,0,.935-.8s-.881-5.61-1.7-13.338c1.6,5.019,4.826,12.156,11.6,16.874,9.963,6.954,23.258,1.236,23.882.967" transform="translate(-61.309 -21.775)" fill="#d2e1f1"/>
        <path id="Trazado_718184" data-name="Trazado 718184" d="M120.611,270.186a53,53,0,0,1-2.515,7.771l-8.2-.236s-3.579-45.507-3.762-63.413c-.118-12.263-2.59-28.632-4.138-37.736-.72-4.2-1.236-6.868-1.236-6.868s1.978,28.117,1.978,34.393a65.284,65.284,0,0,1-1.795,13.435s3.944,43.346,2.687,62.693l-7.964.505a9.543,9.543,0,0,1-.892-1.236c-2.408-3.859-3.386-9.91-4.407-13.671-.075-.236-.14-.473-.2-.688-.021-.065-.032-.118-.054-.183q-.484-1.6-.935-3.192c-.43-1.451-.849-2.913-1.257-4.374q-.274-.983-.548-2c-.2-.7-.387-1.4-.57-2.1-.387-1.419-.752-2.837-1.107-4.267q-1.419-5.53-2.59-11.113c-.312-1.5-.623-3.009-.9-4.514-.15-.752-.279-1.5-.419-2.257-2.848-15.95-3.654-23.989-3.88-27.59.849.871,1.569,1.644,2.085,2.246,2.956,3.493,1.881,10.479,7.524,12.36s7.792-10.211,7.792-13.7S85.9,190.21,87.776,188.6s6.18-10.479,6.18-10.479-11.017,5.374-13.166,1.612,6.449-1.881,8.33-1.881,8.061-2.15,4.837-3.493-10.211-1.344-11.285-2.956,5.911-5.105,8.33-4.03c.838.376-.355-.462-.505-.6-1.086-.967-2.408-1.72-3.558-2.6a21.358,21.358,0,0,1-4.74-4.321c-.58-.838-2.214-4.407.419-3.461.656.226,1.182.763,1.859.892.322.064.656.043.978.107,1.225.279,1.687,1.827,2.751,2.472a4.306,4.306,0,0,0,2.708.3,3.668,3.668,0,0,0-1.451-1.44c-1.655-1.129-3.31-2.246-4.955-3.375-.011-.011-3.332-2.676-1.419-2.848,2.139-.194,3.955,1.6,6.073,1.945,1.741.29,3.558-.43,5.288-.075a13.651,13.651,0,0,1,2.386.914c3.858,1.58,8.265.935,12.3-.15q-2.789,2.451-5.557,4.923c2.515-.408,5.911-2.031,8.319-1.816-.183,3.472-7,7.309-9.609,9.136,2.429.838,5.245,1.451,7.427,2.73a11.981,11.981,0,0,0-2.784,7.04c-.838,8.319-1.655,16.917.892,24.871a44.6,44.6,0,0,1,1.978,6.556c.355,2.408.011,4.88.451,7.276s2.021,4.88,4.439,5.191a2.183,2.183,0,0,1,1.053.258c.935.666-.075,2.031-.752,2.956-1.408,1.892-1.139,4.579-.118,6.7s2.676,3.837,4.063,5.729a3.431,3.431,0,0,1,.8,1.709,4.252,4.252,0,0,1-.924,2.418c-1.655,2.784-2.193,6.062-2.708,9.243a9.491,9.491,0,0,0-.1,3.73c.193.752.559,1.451.785,2.193.72,2.365-.086,4.944.4,7.373.505,2.515,2.311,4.536,3.429,6.846" transform="translate(-61.311 -18.206)" fill="#d2e1f1"/>
        <path id="Trazado_718185" data-name="Trazado 718185" d="M134.535,85.114a54.671,54.671,0,0,1-.806,6.932q-.548,3.192-1.29,6.352v.011a152.4,152.4,0,0,1-4.643,15.864,61.187,61.187,0,0,1-3.708,9.318c-.709,1.3-1.945,2.44-2.128,3.955-.312,2.537.72,2.633-1.064,4.826-1.161,1.429-.441,3.525.279,5.223.344.817.677,1.634.989,2.461-.774,1.247-1.569,1.988-2.365,2.085-6.717.806-7.255-3.493-3.762-5.374s4.03-6.449,4.03-6.449-5.911,4.3-8.6,4.3-3.633-4.568,4.966-10.479c6.331-4.342,12.081-34.587,17.734-40.3.14.419.258.849.365,1.279" transform="translate(-58.941 -23.34)" fill="#d2e1f1"/>
        <path id="Trazado_718186" data-name="Trazado 718186" d="M106.465,279.419c-1.276-1.353-1.592-17.994-2.175-21.014,0,0-2.721-1.544-8.33-.806-5.105.672-7.12,2.956-7.12,2.956.68,1.827,5.81,15.328,5.262,17.969-.463,2.236-2.866,5.105-.94,8.688h15.1a7.416,7.416,0,0,0-1.8-7.792" transform="translate(-60.493 -10.359)" fill="#70799a"/>
        <path id="Trazado_718187" data-name="Trazado 718187" d="M93.413,280.16s4.12-5.349,12.54-1.075c0,0,.358,3.762-3.583,3.045s-6.269,2.15-8.956-1.97" transform="translate(-60.151 -8.861)" fill="#acc1d4"/>
        <path id="Trazado_718188" data-name="Trazado 718188" d="M117.522,277.5c-1.047-1.374,2.329-16.556,2.549-18.506,0,0-1.749-1.468-5.911-2.015a17.914,17.914,0,0,0-8.2.537c.375,2.336,1.776,18.947,1.345,21.955-.9,6.255,1.431,7.792,1.431,7.792h15.1c4.315-7.18-4.552-7.448-6.318-9.763" transform="translate(-59.212 -10.406)" fill="#70799a"/>
        <path id="Trazado_718189" data-name="Trazado 718189" d="M110.368,280.128s5.015-4.941,12.934-.225c0,0-.037,2.912-3.978,2.195s-6.269,2.15-8.956-1.97" transform="translate(-58.882 -8.828)" fill="#acc1d4"/>
        <path id="Trazado_718190" data-name="Trazado 718190" d="M107.965,38.751c7.728.087,15.764,8.24,16.122,13.435s-4.657,19.7-15.047,19.167S92.486,55.142,93.016,50.394s6.978-11.732,14.949-11.643" transform="translate(-60.183 -26.712)" fill="#a7c6ce"/>
        <path id="Trazado_718191" data-name="Trazado 718191" d="M118.278,50.128s3.138-3.648,3.858.283c.833,4.553-3.2,6.72-4.121,5.321s.262-5.6.262-5.6" transform="translate(-58.337 -25.976)" fill="#ff8b66"/>
        <path id="Trazado_718192" data-name="Trazado 718192" d="M96.389,52.009s-3.654-3.13-3.77.863c-.135,4.627,4.174,6.159,4.878,4.637s-1.108-5.5-1.108-5.5" transform="translate(-60.21 -25.808)" fill="#ff8b66"/>
        <path id="Trazado_718193" data-name="Trazado 718193" d="M109.663,68.532c7.535-.574,11.413-5.82,10.289-20.582-.58-7.614-4.81-11.99-13.25-11.348s-11.639,5.584-11.06,13.2c1.208,15.862,6.236,19.323,14.021,18.73" transform="translate(-59.989 -26.877)" fill="#ff8b66"/>
        <path id="Trazado_718194" data-name="Trazado 718194" d="M98.334,53.687a1.79,1.79,0,1,0,1.872-1.221,1.6,1.6,0,0,0-1.872,1.221" transform="translate(-59.783 -25.687)" fill="#db614d"/>
        <path id="Trazado_718195" data-name="Trazado 718195" d="M112.785,53a1.79,1.79,0,1,0,1.533-1.627A1.6,1.6,0,0,0,112.785,53" transform="translate(-58.703 -25.77)" fill="#db614d"/>
        <path id="Trazado_718196" data-name="Trazado 718196" d="M100.838,46.346a.378.378,0,0,0,.452-.1,4.32,4.32,0,0,1,2.819-1.268.378.378,0,0,0-.033-.756,5.053,5.053,0,0,0-3.371,1.547.377.377,0,0,0,.053.531.362.362,0,0,0,.08.049" transform="translate(-59.611 -26.303)" fill="#0c476b"/>
        <path id="Trazado_718197" data-name="Trazado 718197" d="M110.994,44.386a.375.375,0,0,0,.2.033,4.344,4.344,0,0,1,2.98.828.377.377,0,0,0,.505-.561,5.042,5.042,0,0,0-3.566-1.018.378.378,0,0,0-.118.718" transform="translate(-58.852 -26.346)" fill="#0c476b"/>
        <path id="Trazado_718198" data-name="Trazado 718198" d="M101.887,50.027c.072.936.55,1.663,1.07,1.623s.883-.831.813-1.766-.55-1.663-1.07-1.623-.883.83-.813,1.766" transform="translate(-59.517 -26.001)" fill="#1a4850"/>
        <path id="Trazado_718199" data-name="Trazado 718199" d="M111.775,49.314c.071.936.55,1.663,1.07,1.623s.883-.831.813-1.766-.55-1.663-1.072-1.623-.882.83-.811,1.766" transform="translate(-58.778 -26.054)" fill="#1a4850"/>
        <path id="Trazado_718200" data-name="Trazado 718200" d="M111.509,57.705s-4.643,1.014-7.154-.062c0,0,1.63,3.372,4.17,2.864a3.768,3.768,0,0,0,2.984-2.8" transform="translate(-59.332 -25.299)" fill="#1a4850"/>
        <path id="Trazado_718201" data-name="Trazado 718201" d="M104.529,49.464s-.862-2.253-1.756-2.018-1.427,2.261-1.427,2.261L99.954,49.1l1.351.073s.54-2.112,1.435-2.184c1.273-.1,1.79,2.475,1.79,2.475" transform="translate(-59.661 -26.096)" fill="#1a4850"/>
        <path id="Trazado_718202" data-name="Trazado 718202" d="M111.038,49.225s.512-2.357,1.428-2.26,1.755,2.018,1.755,2.018l1.284-.811-1.325.277s-.853-2.007-1.749-1.942c-1.275.091-1.394,2.718-1.394,2.718" transform="translate(-58.832 -26.132)" fill="#1a4850"/>
        <path id="Trazado_718203" data-name="Trazado 718203" d="M107.284,54.614a2.305,2.305,0,0,0,.548.174l.153-.8c-.681-.13-.859-.531-.888-.845a1.007,1.007,0,0,1,.437-.973q.211-.081.468.255l.648-.494a1.171,1.171,0,0,0-1.412-.519,1.788,1.788,0,0,0-.952,1.806,1.67,1.67,0,0,0,1,1.4" transform="translate(-59.188 -25.771)" fill="#db614d"/>
        <path id="Trazado_718204" data-name="Trazado 718204" d="M97.505,49.342l-.944,3.8s-2.819-.753-1.579-5.253,2.523,1.454,2.523,1.454" transform="translate(-60.057 -26.154)" fill="#0c476b"/>
        <path id="Trazado_718205" data-name="Trazado 718205" d="M107.982,37.858S98.824,54.327,93.992,52.077c0,0-1.284-17.62,12.7-17.62s16.755,7.873,16.713,15.669c0,0-1.954,2.884-3.684,2.474,0,0,2.171-14.412-11.74-14.743" transform="translate(-60.11 -27.033)" fill="#0c476b"/>
        <path id="Trazado_718206" data-name="Trazado 718206" d="M100.319,56.361S94.05,52.51,92.929,46.4" transform="translate(-60.187 -26.14)" fill="none" stroke="#ffd5a2" stroke-linecap="round" stroke-miterlimit="10" stroke-width="0.5"/>
        <path id="Trazado_718207" data-name="Trazado 718207" d="M115.555,56.679s6.538-6,6.985-14.532" transform="translate(-58.494 -26.458)" fill="none" stroke="#ffd5a2" stroke-linecap="round" stroke-miterlimit="10" stroke-width="0.5"/>
        <path id="Trazado_718208" data-name="Trazado 718208" d="M96.867,58.032c2.486,8.8,19.615,13.346,23.108-1.635" transform="translate(-59.892 -25.392)" fill="none" stroke="#ffd5a2" stroke-linecap="round" stroke-miterlimit="10" stroke-width="0.5"/>
        <path id="Trazado_718209" data-name="Trazado 718209" d="M108.209,50.419c4.652-.3,9.584,4.12,10.211,7.075s-3.045,10.032-9.047,10.479c-5.552.415-10.568-6.18-10.568-9.314s5.194-7.972,9.4-8.24" transform="translate(-59.747 -25.84)" fill="#fff"/>
        <path id="Trazado_718210" data-name="Trazado 718210" d="M106.013,51.71a3.2,3.2,0,0,1,3.448-.134" transform="translate(-59.208 -25.788)" fill="none" stroke="#ffd5a2" stroke-linecap="round" stroke-linejoin="round" stroke-width="0.5"/>
        <path id="Trazado_718211" data-name="Trazado 718211" d="M97.982,51.515a2.243,2.243,0,0,0,.322.15.033.033,0,0,1-.021.011s-.118-.064-.3-.161" transform="translate(-59.809 -25.757)" fill="#4ba6c6"/>
        <path id="Trazado_718212" data-name="Trazado 718212" d="M117.805,46.983l.179,3.538A13.355,13.355,0,0,0,121.746,49a5.05,5.05,0,0,0,1.03-2.956,11.1,11.1,0,0,1-4.971.94" transform="translate(-58.326 -26.167)" fill="#23687a"/>
        <path id="Trazado_718213" data-name="Trazado 718213" d="M96.655,47.413a24.371,24.371,0,0,1-3.717-.537,7.209,7.209,0,0,0,.089,2.911c.4.851,3.538,1.3,3.538,1.3Z" transform="translate(-60.195 -26.104)" fill="#23687a"/>
        <g id="Grupo_1009330" data-name="Grupo 1009330" transform="translate(36.776 19.309)" opacity="0.25">
          <g id="Grupo_1009329" data-name="Grupo 1009329">
            <g id="Grupo_1009328" data-name="Grupo 1009328" clip-path="url(#clip-path)">
              <path id="Trazado_718214" data-name="Trazado 718214" d="M119.124,51c-.032.806-2.451,2.117-3.407,2.193s-4.116-2.934-7.405-3-5.976,2.956-6.75,3.224a1.772,1.772,0,0,1-.828-.054A11.375,11.375,0,0,1,96.9,51.6c-.376-.494-.247-5.019.3-5.105a90.166,90.166,0,0,1,9.738-.9l.914-.032c1.129-.032,2.193-.043,3.192-.043a56.053,56.053,0,0,1,7.685.408c.806.2.43,4.267.4,5.073" transform="translate(-96.682 -45.515)" fill="#fff"/>
            </g>
          </g>
        </g>
        <g id="Grupo_1009333" data-name="Grupo 1009333" transform="translate(36.776 19.384)" opacity="0.25">
          <g id="Grupo_1009332" data-name="Grupo 1009332">
            <g id="Grupo_1009331" data-name="Grupo 1009331" clip-path="url(#clip-path-2)">
              <path id="Trazado_718215" data-name="Trazado 718215" d="M106.935,45.585l-6.2,7.771A11.375,11.375,0,0,1,96.9,51.593c-.376-.494-.247-5.019.3-5.105a90.166,90.166,0,0,1,9.738-.9" transform="translate(-96.682 -45.585)" fill="#fff"/>
            </g>
          </g>
        </g>
        <g id="Grupo_1009336" data-name="Grupo 1009336" transform="translate(44.751 19.309)" opacity="0.25">
          <g id="Grupo_1009335" data-name="Grupo 1009335">
            <g id="Grupo_1009334" data-name="Grupo 1009334" clip-path="url(#clip-path-3)">
              <path id="Trazado_718216" data-name="Trazado 718216" d="M110.486,45.515,104.1,50.244s1.795-2.461,3.192-4.686c1.129-.032,2.193-.043,3.192-.043" transform="translate(-104.102 -45.515)" fill="#fff"/>
            </g>
          </g>
        </g>
        <path id="Trazado_718217" data-name="Trazado 718217" d="M119.35,45.824c-.72-1.075-4.7-1.032-10.748-.946-5.374.086-11.285.946-12.091,1.569-.731.57-.645,3.794-.3,5.191.011,0,.011,0,0,.011a3.4,3.4,0,0,0,.118.355c.451,1.075,4.568,2.5,5.557,2.418s3.138-3.375,6.535-3.59c3.633-.215,5.782,2.6,6.771,3.052s3.708-.989,4.385-2.064c.032-.054.065-.118.1-.183v-.011c.548-1.279.355-4.783-.322-5.8m-22.033,1.29c.4-.441,3.267-.892,10.7-1.2s10.3.183,10.608.494c.279.269.355,3.171.183,4.116a.7.7,0,0,1-.086.269c-.269.365-2.558,1.978-3.1,1.795s-3.45-2.827-7.169-2.73-6.352,3.085-6.889,3.31c-.355.15-1.988-.451-3.117-1a2.242,2.242,0,0,1-.322-.15A.011.011,0,0,0,98.123,52a2.421,2.421,0,0,1-.763-.494c-.226-.408-.419-3.977-.043-4.4" transform="translate(-59.961 -26.257)" fill="#62c3dd"/>
        <path id="Trazado_718218" data-name="Trazado 718218" d="M119.033,50.028a1.666,1.666,0,0,1-.269.451c.172-.946.1-3.848-.183-4.116-.312-.312-3.181-.806-10.608-.494s-10.307.763-10.7,1.2c-.376.419-.183,3.987.043,4.4a2.072,2.072,0,0,1-.494-.451,10.086,10.086,0,0,1-.043-4.03c.183-.613,3.762-1.386,11.156-1.569s10.479.322,10.834.677a8.071,8.071,0,0,1,.269,3.934" transform="translate(-59.913 -26.216)" fill="#4ba6c6"/>
        <path id="Trazado_718219" data-name="Trazado 718219" d="M119.655,51.243c-.032.064-.065.129-.1.183-.677,1.075-3.407,2.5-4.385,2.064s-3.138-3.267-6.771-3.052c-3.4.215-5.546,3.493-6.535,3.59s-5.105-1.343-5.557-2.418a3.4,3.4,0,0,1-.118-.355A3,3,0,0,0,97.3,52.318c1.032.494,4.03,1.526,4.482,1.3s3.439-3.579,6.943-3.493c3.482.1,6.083,2.827,6.664,3.042.473.183,3.02-.914,4.267-1.924" transform="translate(-59.943 -25.861)" fill="#4ba6c6"/>
        <path id="Trazado_718220" data-name="Trazado 718220" d="M125.771,41.162c-1.343-1.752-.946-3.9-2.956-6.449s-9.146-7.653-15.853-7.126c-6.857.537-4.966,3.364-8.727,4.7-3.762,1.354-6.32,9.007-5.782,10.082s-1.881,2.279-1.612,9.673a14.494,14.494,0,0,0,1.086,5.245,8.191,8.191,0,0,0,3.45,4.138.132.132,0,0,1,.032.021c-.14.935,2.288,4.029,2.289,4.03a6.412,6.412,0,0,0-1.586,1.483c-.229,1.055,1.259,1.966,1.925,2.695a32.94,32.94,0,0,1,2.162,3.116,4.881,4.881,0,0,0,2.992,2.173,7.545,7.545,0,0,0,3-.437c3.219-.822,6.562-.662,9.85-.834,1.072-.056,4.382.111,5.16-.7.9-.946-.782-2.037-1.61-2.655.806,0,1.075-5.245,2.289-5.911s3.762-6.578,4.3-8.727,0-4.708.8-5.911c.817-1.215.14-6.857-1.2-8.6M110.015,69.2a11.6,11.6,0,0,1-2.021.032,10,10,0,0,1-1.988-.365c-8.05-2.257-12.016-13.714-10.737-18.712,1.483-5.772,7.524-5.772,13.177-6.18,5.9-.419,11.006.946,13.026,5.5,2.021,4.579-.742,18.615-11.457,19.722" transform="translate(-60.344 -27.55)" fill="#fff"/>
        <path id="Trazado_718221" data-name="Trazado 718221" d="M121.684,47.72c-2.6-7.255-6.452-4.926-13.972-5.46-12.387-.879-14.334,6.08-13.528,11.551s5.736,11.02,5.736,11.02l-2.243-1.884s5.818,8.618,9.4,8.5a14.574,14.574,0,0,0,13.169-8.6L118.094,65s6.18-10.028,3.59-17.283M109.775,68.109c-10.7,1.107-16.219-13.274-14.746-19.045s7.524-5.772,13.177-6.18c5.9-.419,11.006.946,13.026,5.5,2.021,4.579-.742,18.615-11.457,19.722" transform="translate(-60.105 -26.455)" fill="#c9e3f5"/>
        <path id="Trazado_718222" data-name="Trazado 718222" d="M98.256,42.387s2.776-1.7,4.3-1.7,5.016.089,6.807-.09,4.568-.447,6.36.269,2.956,1.165,2.956,1.165-4.657-3.046-8.061-2.777-5.016.269-6.449.269-4.837.986-5.911,2.866" transform="translate(-59.788 -26.676)" fill="#cee2f3"/>
        <path id="Trazado_718223" data-name="Trazado 718223" d="M121.967,48a17.53,17.53,0,0,1-.627,7.524A6.44,6.44,0,0,0,121.967,48" transform="translate(-58.062 -26.02)" fill="#cee2f3"/>
        <path id="Trazado_718224" data-name="Trazado 718224" d="M95.3,59.687a8.191,8.191,0,0,1-3.45-4.138,9.036,9.036,0,0,1,.8-4.794s0,3.579,1.343,5.46A6.763,6.763,0,0,1,95.3,59.687" transform="translate(-60.27 -25.814)" fill="#cee2f3"/>
        <path id="Trazado_718225" data-name="Trazado 718225" d="M107.45,68.446a.457.457,0,0,0-.086.494.991.991,0,0,0,.333.4,2.525,2.525,0,0,1-1.182.473c-.548.15-.516.021-.924.537-.537.666-1.043,1.354-1.558,2.031-.806,1.064-1.6,2.139-2.375,3.214-.247.322-.473.656-.709.978-5.223,7.373-9.813,15.885-9.028,25.215,1.225,8,1.053,16.133.881,24.011-.129,5.868-.269,11.952.193,17.906.666,2.633.118,5.707-.419,8.684a32.141,32.141,0,0,0-.656,5.331,15.342,15.342,0,0,0,2.064,6.793l-.9.57a16.362,16.362,0,0,1-2.236-7.362,32.779,32.779,0,0,1,.677-5.524c.505-2.859,1.043-5.815.408-8.319-.473-6.1-.333-12.21-.2-18.11.172-7.824.344-15.918-.871-23.85-.785-9.318,3.558-17.852,8.738-25.29.441-.634.892-1.268,1.354-1.892.613-.849,1.236-1.677,1.859-2.5.537-.72,1.053-1.44,1.623-2.139.537-.656,1.129-.688,1.881-1.064a.325.325,0,0,0,.193-.183c.032-.15-.161-.247-.279-.344a.611.611,0,0,1,.021-.935c.161-.1.4-.193.365-.376a.346.346,0,0,0-.129-.193,1.551,1.551,0,0,1-.473-1A10,10,0,0,0,108,66.36c.032.344.021.72.075,1.086.032.279.054.613-.172.785-.14.1-.322.107-.451.215" transform="translate(-60.349 -24.674)" fill="#d2e1f1"/>
        <path id="Trazado_718226" data-name="Trazado 718226" d="M136.594,86.063c-.129,8.469-11.683,42.992-22.571,44.6-3.977.591-8.652-2.182-13.059-6.04-.011-.011-.021-.021-.032-.021-7.642-6.707-14.456-16.67-15.391-18.121-1.472-2.279-5.331-8.19-4.525-11.952s3.59-3.891,3.59-3.891,1.15.935,1.956,1.472S93.473,98.7,94.946,99.5c1.483.817,11.425,7.932,11.425,7.932s1.343-4.03,2.956-3.891a2.773,2.773,0,0,0,2.956-1.752A96.091,96.091,0,0,1,117.2,90.911c4.009-7.384,10.221-15.423,17.713-13.22.032,0,.4.021.8.785v.011c.441.871.957,2.934.881,7.577" transform="translate(-61.086 -23.827)" fill="#d2e1f1"/>
        <path id="Trazado_718227" data-name="Trazado 718227" d="M115.6,103.8c-1.2-.129-5.245-1.075-6.449-1.075s-3.1,2.15-3.224,3.224,4.708,3.891,6.449,6.449-.946,4.837-2.558,1.612a49.816,49.816,0,0,0-5.223-7.524s1.344-4.03,2.956-3.891a2.773,2.773,0,0,0,2.956-1.752,96.087,96.087,0,0,1,4.923-10.877c-2.053,5.9,1.365,13.962.172,13.833" transform="translate(-59.314 -22.882)" fill="#b0c0d2"/>
        <path id="Trazado_718228" data-name="Trazado 718228" d="M135.2,85.982c-.129,8.469-11.683,42.992-22.571,44.6-3.977.591-8.652-2.182-13.059-6.04,2.1,1.193,7.33,4.041,10.5,4.568,4.03.677,8.727-2.956,9.007-5.374.258-2.418-.946-5.643.537-5.643s4.557-.806,4.557-2.558c0-1.709,13.059-26.429,10.146-37.134.441.871.957,2.934.881,7.577" transform="translate(-59.69 -23.746)" fill="#b0c0d2"/>
        <path id="Trazado_718229" data-name="Trazado 718229" d="M76.069,75.64c.043-.456.847-.814.847-.814a4.306,4.306,0,0,0,1.2,2.025,9.9,9.9,0,0,1,2.649,3.355c.787,1.526,1.678,6.664,1.678,6.664s-4.72-4.941-4.86-5.836-1.512-5.394-1.512-5.394" transform="translate(-61.448 -24.014)" fill="#4ba6c6"/>
        <path id="Trazado_718230" data-name="Trazado 718230" d="M91.913,96.11s-1.254,7.881-7.075,9.673c0,0-5.162-11.855-5.368-12.877-.044-.286-.094-.476-.094-.476-5.471-3.35-5.117-6.354-5.117-6.354s-1.794-.814-.36-2.869a2.451,2.451,0,0,1-.708-1.493c-.028-.4,1.26-1.452,1.26-1.452s-.717-1.276-.336-1.52a3.45,3.45,0,0,1,2.23-.339,11.494,11.494,0,0,0-1.877-1.989c-1.719-.928-2.457-2.841.013-2.027,1.234.394,4.642,3.735,5.647,5.328,1.029,1.579,2.808,7.64,3.338,8.651s8.447,7.744,8.447,7.744" transform="translate(-61.685 -24.061)" fill="#727997"/>
        <path id="Trazado_718231" data-name="Trazado 718231" d="M74.337,79.846a2.719,2.719,0,0,1,1.831.322c.943.536-1.831-.322-1.831-.322" transform="translate(-61.577 -23.642)" fill="#b0c0d2"/>
        <path id="Trazado_718232" data-name="Trazado 718232" d="M73.83,82.578s1.352-.058,1.6.3-.67.123-1.6-.3" transform="translate(-61.615 -23.434)" fill="#b0c0d2"/>
        <path id="Trazado_718233" data-name="Trazado 718233" d="M80.08,92.149c-.091.067-.346.048-.7-.071-.045-.286-.095-.475-.095-.475-5.471-3.351-5.117-6.355-5.117-6.355l.689.181A37.291,37.291,0,0,0,77.389,89.4c.908,1.069,1.81,2.054,2.9,1.676s.277.667-.213,1.076" transform="translate(-61.59 -23.234)" fill="#b0c0d2"/>
      </g>
    </g>
    <g id="Grupo_1009371" data-name="Grupo 1009371" transform="translate(298 8893.776)">
      <g id="Grupo_1002239" data-name="Grupo 1002239" transform="translate(0 0)">
        <g id="Grupo_1002238" data-name="Grupo 1002238" transform="translate(0 0)" clip-path="url(#clip-path-4)">
          <path id="Trazado_710484" data-name="Trazado 710484" d="M23.4,0a23.4,23.4,0,1,0,23.4,23.4A23.4,23.4,0,0,0,23.4,0m0,43.591A20.188,20.188,0,1,1,43.591,23.4,20.188,20.188,0,0,1,23.4,43.591" transform="translate(0 0)" fill="#008b8a"/>
          <path id="Trazado_710485" data-name="Trazado 710485" d="M28.4,10.309s-8.779,6.157-8.779,16.839a19.678,19.678,0,0,0,6.77,14.6C26.931,36.007,28.4,27.1,28.4,27.1s1.467,8.911,2.008,14.652a19.675,19.675,0,0,0,6.771-14.6c0-10.682-8.779-16.839-8.779-16.839" transform="translate(-4.995 -2.624)" fill="#12263f"/>
        </g>
      </g>
      <g id="Grupo_1002241" data-name="Grupo 1002241" transform="translate(0 52.028)">
        <g id="Grupo_1002240" data-name="Grupo 1002240" transform="translate(0 0)" clip-path="url(#clip-path-4)">
          <path id="Trazado_710486" data-name="Trazado 710486" d="M23.4,0a23.4,23.4,0,1,0,23.4,23.4A23.4,23.4,0,0,0,23.4,0m0,43.591A20.188,20.188,0,1,1,43.591,23.4,20.188,20.188,0,0,1,23.4,43.591" transform="translate(0 0)" fill="#4db1f0"/>
          <path id="Trazado_710487" data-name="Trazado 710487" d="M28.052,10.309s-22.03,31.438,0,31.438,0-31.438,0-31.438m0,29.4a12.306,12.306,0,0,1-3.307-.4c.183.005.363.013.552.013,12.689,0,9.538-11.3,5.377-19.8,4.01,6.968,9.954,20.183-2.622,20.183" transform="translate(-4.649 -2.624)" fill="#12263f"/>
        </g>
      </g>
      <g id="Grupo_1002243" data-name="Grupo 1002243" transform="translate(0 103.613)">
        <g id="Grupo_1002242" data-name="Grupo 1002242" transform="translate(0 0)" clip-path="url(#clip-path-4)">
          <path id="Trazado_710488" data-name="Trazado 710488" d="M23.4,0a23.4,23.4,0,1,0,23.4,23.4A23.4,23.4,0,0,0,23.4,0m0,43.591A20.188,20.188,0,1,1,43.591,23.4,20.188,20.188,0,0,1,23.4,43.591" transform="translate(0 0)" fill="#afafaf"/>
          <path id="Trazado_710489" data-name="Trazado 710489" d="M39.969,25.626a.964.964,0,0,0-.962.962v.306H32.142A5.943,5.943,0,0,0,27.73,23.8V21.713a1.635,1.635,0,0,0,.626-.626H30.2a1.688,1.688,0,1,0,0-1.662H28.356a1.667,1.667,0,0,0-2.915,0H23.6a1.688,1.688,0,1,0,0,1.662h1.842a1.675,1.675,0,0,0,.625.626V23.8a5.937,5.937,0,0,0-4.577,3.436,11.552,11.552,0,0,0-8.46,8.528h-.09a.965.965,0,1,0,0,1.931h6.1a.965.965,0,1,0,0-1.931h-.127a5.994,5.994,0,0,1,3.02-2.855,5.928,5.928,0,0,0,10.2-.462h6.872v.179a.962.962,0,1,0,1.923,0V26.588a.959.959,0,0,0-.962-.962M31.12,31.708c0-.042.006-.083.006-.125A6.181,6.181,0,0,0,24.945,25.4c-.042,0-.083.005-.125.006a4.708,4.708,0,0,1,6.3,6.3" transform="translate(-3.048 -4.727)" fill="#12263f"/>
        </g>
      </g>
      <g id="Grupo_1002245" data-name="Grupo 1002245" transform="translate(0 155.64)">
        <g id="Grupo_1002244" data-name="Grupo 1002244" transform="translate(0 0)" clip-path="url(#clip-path-4)">
          <path id="Trazado_710490" data-name="Trazado 710490" d="M23.4,0a23.4,23.4,0,1,0,23.4,23.4A23.4,23.4,0,0,0,23.4,0m0,43.591A20.188,20.188,0,1,1,43.591,23.4,20.188,20.188,0,0,1,23.4,43.591" transform="translate(0 0)" fill="#3076b6"/>
          <path id="Trazado_710491" data-name="Trazado 710491" d="M36.471,16.688H19.513a1.491,1.491,0,1,0,0,2.982h.341l2.633,16.072H21.354v-.881a.921.921,0,0,0-1.841,0V37.7a.921.921,0,0,0,1.841,0v-.881H22.8a2.1,2.1,0,0,0,1.823,1.056h6.745a2.1,2.1,0,0,0,1.822-1.056h1.443V37.7a.921.921,0,0,0,1.842,0V34.861a.921.921,0,0,0-1.842,0v.881H33.5L36.129,19.67h.342a1.491,1.491,0,0,0,0-2.982M25.358,29.3l-.61-.725-.71,1.23a.671.671,0,0,0,.581,1.006.383.383,0,0,1,0,.766,1.436,1.436,0,0,1-1.244-2.154l.71-1.23-.933-.166A8.056,8.056,0,0,0,25.4,26.68a8.1,8.1,0,0,0-.042,2.619m2.066-5.36-.6,1.047a.383.383,0,1,1-.663-.382l.6-1.047a1.436,1.436,0,0,1,2.487,0l.71,1.229.611-.724a8.074,8.074,0,0,0,.042,2.618,8.086,8.086,0,0,0-2.247-1.345l.933-.167-.71-1.229a.671.671,0,0,0-1.162,0m5.21,6.918a1.422,1.422,0,0,1-1.243.719h-1.42l.322.89a8.1,8.1,0,0,0-2.288-1.273,8.077,8.077,0,0,0,2.288-1.273l-.322.891h1.42a.671.671,0,0,0,.581-1.006.383.383,0,0,1,.663-.382,1.422,1.422,0,0,1,0,1.436" transform="translate(-4.588 -4.248)" fill="#12263f"/>
        </g>
      </g>
    </g>
  </g>
</svg>
