<svg id="Grupo_1009646" data-name="Grupo 1009646" xmlns="http://www.w3.org/2000/svg" xmlns:xlink="http://www.w3.org/1999/xlink" width="135.655" height="135.655" viewBox="0 0 135.655 135.655">
  <defs>
    <clipPath id="clip-path">
      <rect id="Rectángulo_349168" data-name="Rectángulo 349168" width="135.655" height="135.655" fill="none"/>
    </clipPath>
  </defs>
  <g id="Grupo_1009646-2" data-name="Grupo 1009646" clip-path="url(#clip-path)">
    <path id="Trazado_720402" data-name="Trazado 720402" d="M133.656,67.827A65.828,65.828,0,1,1,67.827,2a65.828,65.828,0,0,1,65.829,65.828" fill="#fff"/>
    <path id="Trazado_720403" data-name="Trazado 720403" d="M67.828,135.655a67.827,67.827,0,1,1,67.827-67.827,67.9,67.9,0,0,1-67.827,67.827M67.828,4a63.827,63.827,0,1,0,63.827,63.828A63.9,63.9,0,0,0,67.828,4" fill="#12263f"/>
    <path id="Trazado_720404" data-name="Trazado 720404" d="M28.922,41.639,32.736,97.2a2.886,2.886,0,0,0,2.879,2.689h64.446a2.865,2.865,0,0,0,2.858-2.668l3.815-55.578Z" fill="#b0c0d2"/>
    <rect id="Rectángulo_349156" data-name="Rectángulo 349156" width="84.911" height="5.508" transform="translate(25.372 36.131)" fill="#b0c0d2"/>
    <path id="Trazado_720405" data-name="Trazado 720405" d="M107.423,28.432H28.232l-1.6,7.7h82.389Z" fill="#b0c0d2"/>
    <rect id="Rectángulo_349157" data-name="Rectángulo 349157" width="77.812" height="0.75" transform="translate(28.921 41.264)" fill="#12263f"/>
    <rect id="Rectángulo_349158" data-name="Rectángulo 349158" width="82.389" height="0.75" transform="translate(26.633 35.757)" fill="#12263f"/>
    <rect id="Rectángulo_349159" data-name="Rectángulo 349159" width="84.911" height="0.75" transform="translate(25.372 38.51)" fill="#12263f"/>
    <path id="Trazado_720406" data-name="Trazado 720406" d="M89.03,33.514H46.6a3.569,3.569,0,0,1-3.2-1.96L41.9,28.6l.668-.341,1.5,2.952a2.825,2.825,0,0,0,2.529,1.55H89.03A2.868,2.868,0,0,0,91.6,31.192l1.494-2.93.668.341-1.5,2.93a3.612,3.612,0,0,1-3.233,1.981" fill="#12263f"/>
    <path id="Trazado_720407" data-name="Trazado 720407" d="M47.585,110.759a6.1,6.1,0,1,1-6.1-6.1,6.1,6.1,0,0,1,6.1,6.1" fill="#12263f"/>
    <path id="Trazado_720408" data-name="Trazado 720408" d="M44.159,110.759a2.67,2.67,0,1,1-2.67-2.67,2.67,2.67,0,0,1,2.67,2.67" fill="#fff"/>
    <path id="Trazado_720409" data-name="Trazado 720409" d="M41.489,111.1h0a2.432,2.432,0,0,1-2.393-2l-1.238-6.843H45.12L43.882,109.1a2.432,2.432,0,0,1-2.393,2" fill="#acc1d4"/>
    <rect id="Rectángulo_349160" data-name="Rectángulo 349160" width="11.815" height="2.709" transform="translate(35.582 99.885)" fill="#008b8a"/>
    <rect id="Rectángulo_349161" data-name="Rectángulo 349161" width="11.814" height="0.75" transform="translate(35.582 99.51)" fill="#0a2741"/>
    <path id="Trazado_720410" data-name="Trazado 720410" d="M100.262,110.759a6.1,6.1,0,1,1-6.1-6.1,6.1,6.1,0,0,1,6.1,6.1" fill="#12263f"/>
    <path id="Trazado_720411" data-name="Trazado 720411" d="M96.836,110.759a2.67,2.67,0,1,1-2.67-2.67,2.67,2.67,0,0,1,2.67,2.67" fill="#fff"/>
    <path id="Trazado_720412" data-name="Trazado 720412" d="M94.166,111.1h0a2.432,2.432,0,0,1-2.393-2l-1.238-6.843H97.8L96.559,109.1a2.432,2.432,0,0,1-2.393,2" fill="#acc1d4"/>
    <rect id="Rectángulo_349162" data-name="Rectángulo 349162" width="11.815" height="2.709" transform="translate(88.259 99.885)" fill="#008b8a"/>
    <rect id="Rectángulo_349163" data-name="Rectángulo 349163" width="11.814" height="0.75" transform="translate(88.259 99.51)" fill="#0a2741"/>
    <path id="Trazado_720413" data-name="Trazado 720413" d="M37.9,47.094H34.267v-5.83H37.9Zm-2.878-.75h2.128v-4.33H35.017Z" fill="#12263f"/>
    <path id="Trazado_720414" data-name="Trazado 720414" d="M53.726,47.094H50.1v-5.83h3.628Zm-2.878-.75h2.128v-4.33H50.848Z" fill="#12263f"/>
    <path id="Trazado_720415" data-name="Trazado 720415" d="M69.558,47.094H65.929v-5.83h3.629Zm-2.879-.75h2.129v-4.33H66.679Z" fill="#12263f"/>
    <path id="Trazado_720416" data-name="Trazado 720416" d="M85.389,47.094H81.761v-5.83h3.628Zm-2.878-.75h2.128v-4.33H82.511Z" fill="#12263f"/>
    <path id="Trazado_720417" data-name="Trazado 720417" d="M101.22,47.094H97.592v-5.83h3.628Zm-2.878-.75h2.128v-4.33H98.342Z" fill="#12263f"/>
    <rect id="Rectángulo_349164" data-name="Rectángulo 349164" width="42.792" height="0.751" transform="matrix(0.043, -0.999, 0.999, 0.043, 89.301, 93.854)" fill="#12263f"/>
    <rect id="Rectángulo_349165" data-name="Rectángulo 349165" width="0.751" height="42.792" transform="translate(43.784 51.132) rotate(-2.432)" fill="#12263f"/>
    <rect id="Rectángulo_349166" data-name="Rectángulo 349166" width="42.757" height="0.75" transform="translate(74.727 93.864) rotate(-89.16)" fill="#12263f"/>
    <rect id="Rectángulo_349167" data-name="Rectángulo 349167" width="0.75" height="42.757" transform="matrix(1, -0.014, 0.014, 1, 59.564, 51.122)" fill="#12263f"/>
    <path id="Trazado_720418" data-name="Trazado 720418" d="M82.939,70.762A15.112,15.112,0,1,1,67.827,55.65,15.112,15.112,0,0,1,82.939,70.762" fill="#008b8a"/>
    <path id="Trazado_720419" data-name="Trazado 720419" d="M67.828,86.249A15.486,15.486,0,1,1,83.314,70.763,15.5,15.5,0,0,1,67.828,86.249m0-30.223A14.736,14.736,0,1,0,82.564,70.763,14.754,14.754,0,0,0,67.828,56.026" fill="#12263f"/>
    <path id="Trazado_720420" data-name="Trazado 720420" d="M62.812,71.667l1.359.711-1.6-5.567-5.51,1.848,1.493.78-.837,1.555a2.39,2.39,0,0,0,.2,2.588h0L61,78.535a1.759,1.759,0,0,0,1.491.829h3.555V74.535h-4.72Z" fill="#fff"/>
    <path id="Trazado_720421" data-name="Trazado 720421" d="M67.671,62.9l.787-1.262a2.429,2.429,0,0,1,.184-.257,2.429,2.429,0,0,0-.184.257L67.671,62.9l1.646,2.781-1.324.777,5.571,1.589,1.347-5.655-1.451.854-.877-1.531a2.387,2.387,0,0,0-2.3-1.2v0l-5.831-.008a1.756,1.756,0,0,0-1.493.827l-1.88,3.016,4.1,2.555Z" fill="#fff"/>
    <path id="Trazado_720422" data-name="Trazado 720422" d="M78.218,71.183l-1.677-3.134-4.258,2.278L74.51,74.49l-3.231.039L71.265,73,67.11,77.032l4.229,3.987-.016-1.684,1.765,0a2.387,2.387,0,0,0,2.187-1.4v0l2.915-5.05a1.757,1.757,0,0,0,.028-1.707" fill="#fff"/>
  </g>
</svg>
