<svg xmlns="http://www.w3.org/2000/svg" xmlns:xlink="http://www.w3.org/1999/xlink" width="88.689" height="88.689" viewBox="0 0 88.689 88.689">
  <defs>
    <clipPath id="clip-path">
      <rect id="Rectángulo_348914" data-name="Rectángulo 348914" width="50.258" height="49.08" fill="#12263f"/>
    </clipPath>
  </defs>
  <g id="Grupo_1011137" data-name="Grupo 1011137" transform="translate(-180 -2848.626)">
    <g id="Grupo_1005245" data-name="Grupo 1005245" transform="translate(180 2848.626)">
      <g id="Grupo_20664" data-name="Grupo 20664" transform="translate(0 0)">
        <path id="Trazado_99075" data-name="Trazado 99075" d="M44.345,0A44.345,44.345,0,1,1,0,44.345,44.345,44.345,0,0,1,44.345,0Z" fill="#008b8a"/>
        <path id="Trazado_715274" data-name="Trazado 715274" d="M35.122,0A35.122,35.122,0,1,1,0,35.122,35.122,35.122,0,0,1,35.122,0Z" transform="translate(9.223 9.223)" fill="#f6f6f6"/>
      </g>
    </g>
    <g id="Grupo_1009401" data-name="Grupo 1009401" transform="translate(199.216 2862.626)">
      <g id="Grupo_1009401-2" data-name="Grupo 1009401" clip-path="url(#clip-path)">
        <path id="Trazado_718487" data-name="Trazado 718487" d="M41.994,120.615V124.8h.578q3.272,0,6.544,0c.865,0,1.141.267,1.142,1.109q0,6.019,0,12.038c0,.813-.283,1.089-1.11,1.089H1.092c-.814,0-1.09-.282-1.091-1.107q0-6.019,0-12.038c0-.816.279-1.09,1.106-1.09q3.376,0,6.753,0h.593v-4.188c-.465,0-.91-.018-1.354,0A5.153,5.153,0,0,1,1.963,117.7c-.306-.567-.678-1.1-.986-1.664a.809.809,0,0,1,.646-1.268,30.413,30.413,0,0,1,3.45.052,4.989,4.989,0,0,1,3.29,1.834c-.082-.92.3-1.868-.312-2.743-.381-.54-.7-1.121-1.041-1.692a4.262,4.262,0,0,1-.069-4.475c.453-.825.928-1.637,1.406-2.448s1.181-.8,1.647,0c.488.845.979,1.69,1.435,2.551a4.246,4.246,0,0,1-.048,4.248,5.153,5.153,0,0,1-.572.935c-.908,1.044-.777,2.274-.695,3.59.152-.143.259-.238.359-.34a4.912,4.912,0,0,1,3.553-1.531c.837-.011,1.675-.007,2.513,0,.938.007,1.3.619.837,1.418-.412.708-.824,1.417-1.268,2.105a4.862,4.862,0,0,1-4.2,2.335c-.571.013-1.143,0-1.742,0v4.149H21.748V119.8c-.718-.117-.845-.644-.813-1.3a18.7,18.7,0,0,0-.008-1.988.832.832,0,0,0-.314-.568A8.372,8.372,0,1,1,33.4,107.722a8.233,8.233,0,0,1-3.772,8.232.843.843,0,0,0-.3.575c-.037.678-.014,1.36-.014,2.04,0,.818-.089.954-.819,1.264v4.937H40.284v-4.155c-.542,0-1.057-.01-1.572,0a5.022,5.022,0,0,1-4.788-2.7c-.347-.6-.725-1.191-1.07-1.8a.839.839,0,0,1,.764-1.366c.942-.014,1.886-.034,2.826.008a5.168,5.168,0,0,1,3.744,1.893c-.062-.959.3-1.943-.365-2.841a15.389,15.389,0,0,1-1.04-1.692,4.216,4.216,0,0,1-.055-4.291c.47-.875.973-1.733,1.48-2.587a.845.845,0,0,1,1.59.016c.509.873,1.022,1.746,1.488,2.642a4.225,4.225,0,0,1-.054,4.155,5.614,5.614,0,0,1-.624,1.026c-.89,1.036-.748,2.246-.663,3.485.066-.027.121-.032.148-.063a5.09,5.09,0,0,1,4.189-1.761c.732.024,1.466-.008,2.2.008a.832.832,0,0,1,.772,1.331c-.457.8-.914,1.609-1.437,2.369a4.808,4.808,0,0,1-4.034,2.155c-.588.016-1.177,0-1.789,0M1.7,137.327H48.558v-10.82H28.479v.595c0,1.675.019,3.35-.017,5.024a1.529,1.529,0,0,1-.367.922c-.717.785-1.488,1.521-2.246,2.268a.871.871,0,0,1-1.443,0c-.733-.723-1.448-1.464-2.188-2.178a1.357,1.357,0,0,1-.447-1.063c.017-1.675.007-3.349.007-5.024V126.5H1.7ZM31.828,108.91a6.7,6.7,0,1,0-6.706,6.68,6.7,6.7,0,0,0,6.706-6.68M23.491,119.8a1.223,1.223,0,0,0-.034.185q0,5.862,0,11.723a.61.61,0,0,0,.111.38c.487.54.992,1.063,1.556,1.661.5-.534.906-.991,1.344-1.412a1.029,1.029,0,0,0,.343-.819c-.014-2.617-.007-5.234-.008-7.85,0-.169-.014-.338-.023-.522-.666-.076-1.58.191-1.619-.806-.043-1.118.96-.825,1.617-.91V119.8Zm-14.32-7.354c1.481-1.862,1.481-3.127,0-5.119-1.487,2.073-1.579,3.08,0,5.119m31.823-5.141c-1.505,2.115-1.5,3.274-.007,5.144,1.561-2.079,1.466-2.956.007-5.144M7.657,118.914a3.611,3.611,0,0,0-4.416-2.4c.993,2,2.008,2.559,4.416,2.4m7.552-2.442c-2.255-.265-3.973.7-4.4,2.445,2.362.16,3.389-.4,4.4-2.445M39.5,118.894c-1.021-2.048-2.427-2.8-4.422-2.4.833,1.937,2.178,2.675,4.422,2.4m7.527-2.438c-2.181-.2-3.5.319-4.4,2.438a3.707,3.707,0,0,0,4.4-2.438m-24.384.429v1.185h4.979V116.9a8.61,8.61,0,0,1-4.979-.01" transform="translate(0 -89.959)" fill="#12263f"/>
        <path id="Trazado_718488" data-name="Trazado 718488" d="M185.613,0a9.526,9.526,0,0,1,6.711,2.593.851.851,0,0,1,.256,1.118c-.291.528-.9.575-1.412.09a7.355,7.355,0,0,0-3.19-1.823,7.449,7.449,0,0,0-6.675,1.3,1.953,1.953,0,0,1-.481.307.764.764,0,0,1-.983-.373.782.782,0,0,1,.22-1.074A8.586,8.586,0,0,1,183.611.324c.775-.185,1.578-.258,2-.324" transform="translate(-160.867)" fill="#12263f"/>
        <path id="Trazado_718489" data-name="Trazado 718489" d="M208.828,34.138c.009.791-.642,1.19-1.211.887a2.055,2.055,0,0,1-.37-.286,4.159,4.159,0,0,0-5.251-.27c-.085.06-.164.13-.251.187a.846.846,0,0,1-1.17-.147.836.836,0,0,1,.193-1.2,5.589,5.589,0,0,1,5.6-.969,10.125,10.125,0,0,1,2.122,1.283c.19.129.276.41.341.512" transform="translate(-179.386 -28.625)" fill="#12263f"/>
        <path id="Trazado_718490" data-name="Trazado 718490" d="M222.753,62.433a14.5,14.5,0,0,1,1.619.873.818.818,0,0,1-1.023,1.277,1,1,0,0,0-1.325-.059.776.776,0,0,1-1.106-.21.757.757,0,0,1,.186-1.141,13.778,13.778,0,0,1,1.648-.74" transform="translate(-197.592 -55.886)" fill="#12263f"/>
        <path id="Trazado_718491" data-name="Trazado 718491" d="M105.545,373.087a.833.833,0,1,1-.812-.854.844.844,0,0,1,.812.854" transform="translate(-92.986 -333.197)" fill="#12263f"/>
        <path id="Trazado_718492" data-name="Trazado 718492" d="M168.622,373.9a.833.833,0,1,1,.825-.842.841.841,0,0,1-.825.842" transform="translate(-150.186 -333.198)" fill="#12263f"/>
        <path id="Trazado_718493" data-name="Trazado 718493" d="M312.393,372.234a.833.833,0,1,1-.838.827.841.841,0,0,1,.838-.827" transform="translate(-278.883 -333.199)" fill="#12263f"/>
        <path id="Trazado_718494" data-name="Trazado 718494" d="M376.284,373.9a.833.833,0,1,1,.836-.831.841.841,0,0,1-.836.831" transform="translate(-336.081 -333.199)" fill="#12263f"/>
        <path id="Trazado_718495" data-name="Trazado 718495" d="M432.18,380.218a.833.833,0,1,1-.814.851.842.842,0,0,1,.814-.851" transform="translate(-386.129 -340.345)" fill="#12263f"/>
        <path id="Trazado_718496" data-name="Trazado 718496" d="M49.636,389.045a.833.833,0,1,1-.827-.839.843.843,0,0,1,.827.839" transform="translate(-42.939 -347.496)" fill="#12263f"/>
        <path id="Trazado_718497" data-name="Trazado 718497" d="M337.182,389.054a.833.833,0,1,1-.818-.848.844.844,0,0,1,.818.848" transform="translate(-300.331 -347.495)" fill="#12263f"/>
        <path id="Trazado_718498" data-name="Trazado 718498" d="M177.434,413.008a.833.833,0,1,1-.821-.845.844.844,0,0,1,.821.845" transform="translate(-157.336 -368.941)" fill="#12263f"/>
        <path id="Trazado_718499" data-name="Trazado 718499" d="M113.535,420.989a.833.833,0,1,1-.827-.839.843.843,0,0,1,.827.839" transform="translate(-100.137 -376.09)" fill="#12263f"/>
        <path id="Trazado_718500" data-name="Trazado 718500" d="M281.27,421a.833.833,0,1,1-.819-.847.844.844,0,0,1,.819.847" transform="translate(-250.282 -376.089)" fill="#12263f"/>
        <path id="Trazado_718501" data-name="Trazado 718501" d="M400.256,420.15a.833.833,0,1,1-.841.825.841.841,0,0,1,.841-.825" transform="translate(-357.53 -376.089)" fill="#12263f"/>
        <path id="Trazado_718502" data-name="Trazado 718502" d="M191.709,137.663a5.024,5.024,0,1,1,4.987,5.009,5.031,5.031,0,0,1-4.987-5.009m1.815.822c.782,0,1.531.018,2.277-.015a.6.6,0,0,0,.42-.316c.2-.48.341-.985.514-1.477a.864.864,0,0,1,1.066-.668.853.853,0,0,1,.52,1.178c-.128.419-.262.837-.4,1.269h2.033a3.286,3.286,0,0,0-1.318-3.557,3.33,3.33,0,0,0-3.824.007,3.269,3.269,0,0,0-1.291,3.578m5.293,1.7h-4.164a3.108,3.108,0,0,0,4.164,0" transform="translate(-171.605 -118.716)" fill="#12263f"/>
      </g>
    </g>
  </g>
</svg>
