<svg xmlns="http://www.w3.org/2000/svg" xmlns:xlink="http://www.w3.org/1999/xlink" width="88.689" height="88.689" viewBox="0 0 88.689 88.689">
  <defs>
    <clipPath id="clip-path">
      <rect id="Rectángulo_348915" data-name="Rectángulo 348915" width="39.466" height="39.472" fill="#12263f"/>
    </clipPath>
  </defs>
  <g id="Grupo_1011138" data-name="Grupo 1011138" transform="translate(-180 -2979.626)">
    <g id="Grupo_1009399" data-name="Grupo 1009399" transform="translate(180 2979.626)">
      <g id="Grupo_20664" data-name="Grupo 20664" transform="translate(0 0)">
        <path id="Trazado_99075" data-name="Trazado 99075" d="M44.345,0A44.345,44.345,0,1,1,0,44.345,44.345,44.345,0,0,1,44.345,0Z" fill="#3076b6"/>
        <path id="Trazado_715274" data-name="Trazado 715274" d="M35.122,0A35.122,35.122,0,1,1,0,35.122,35.122,35.122,0,0,1,35.122,0Z" transform="translate(9.223 9.223)" fill="#f6f6f6"/>
      </g>
    </g>
    <g id="Grupo_1009403" data-name="Grupo 1009403" transform="translate(204.612 3005.626)">
      <g id="Grupo_1009402" data-name="Grupo 1009402" clip-path="url(#clip-path)">
        <path id="Trazado_718503" data-name="Trazado 718503" d="M36.461,39.472H.854A1.373,1.373,0,0,1,0,38.15Q.013,19.732.007,1.314A1.176,1.176,0,0,1,1.316.005Q11.582,0,21.849,0a1.547,1.547,0,0,1,1.166.484q3.316,3.331,6.647,6.647A1.537,1.537,0,0,1,30.144,8.3c-.01,3.3,0,6.6,0,9.9,0,.148,0,.3,0,.462.633,0,1.21,0,1.787,0a2.7,2.7,0,0,1,2.839,2.825c0,.587,0,1.174,0,1.8,1.074,0,2.112.029,3.147-.01a1.45,1.45,0,0,1,1.552.858V36.465c-.028.1-.059.194-.083.293a3.446,3.446,0,0,1-2.119,2.468,8.4,8.4,0,0,1-.8.246M2.346,2.335v34.8H18.789a9.079,9.079,0,0,1-.123-1.047q-.015-5.819-.007-11.639a1.137,1.137,0,0,1,1.179-1.162c.9-.01,1.8,0,2.7,0h.671c0-.594,0-1.143,0-1.693a2.688,2.688,0,0,1,2.918-2.929H27.8V9.254c-1.877,0-3.726,0-5.574,0A1.184,1.184,0,0,1,20.893,7.93q0-2.582,0-5.164V2.335ZM20.986,31.527c-.007.137-.018.25-.018.363q0,1.984,0,3.968a1.176,1.176,0,0,0,1.316,1.3q6.78,0,13.559,0a1.179,1.179,0,0,0,1.311-1.308q0-1.984,0-3.968c0-.112-.011-.224-.018-.351l-6.886.863c-.2.894-.566,1.287-1.2,1.292s-.964-.354-1.22-1.3l-6.846-.857m9.224-1.46,6.918-.867V25.626H20.993V29.2l6.886.86a1.18,1.18,0,0,1,2.331.009m2.245-6.8c0-.61,0-1.174,0-1.738,0-.432-.117-.551-.543-.552-1.014,0-2.027,0-3.041,0-.95,0-1.9,0-2.849,0-.24,0-.477.044-.488.315-.026.66-.008,1.322-.008,1.978ZM23.232,4.022V6.906h2.874L23.232,4.022" transform="translate(0 0)" fill="#12263f"/>
        <path id="Trazado_718504" data-name="Trazado 718504" d="M126.226,188.262q-2.175,0-4.351,0c-1.01,0-1.452-.478-1.39-1.488a5.779,5.779,0,0,1,11.489-.49c.2,1.33-.109,2.051-1.706,1.989-1.346-.052-2.695-.011-4.042-.011m3.248-2.328a3.354,3.354,0,0,0-3.67-2.264c-1.282.124-2.685,1.28-2.738,2.264Z" transform="translate(-111.176 -167.324)" fill="#12263f"/>
        <path id="Trazado_718505" data-name="Trazado 718505" d="M157.284,94.411a3.462,3.462,0,1,1-6.925.014,3.462,3.462,0,1,1,6.925-.014m-2.312-.015a1.15,1.15,0,1,0-1.131,1.173,1.161,1.161,0,0,0,1.131-1.173" transform="translate(-138.749 -83.924)" fill="#12263f"/>
        <path id="Trazado_718506" data-name="Trazado 718506" d="M109.935,303.829c-.924,0-1.847,0-2.771,0a1.162,1.162,0,1,1,.006-2.311q2.771,0,5.542,0a1.16,1.16,0,1,1-.006,2.31c-.924,0-1.847,0-2.771,0" transform="translate(-97.706 -278.233)" fill="#12263f"/>
        <path id="Trazado_718507" data-name="Trazado 718507" d="M109.928,360.416c.924,0,1.847,0,2.771,0a1.162,1.162,0,1,1-.013,2.311q-2.752,0-5.5,0a1.164,1.164,0,1,1,.013-2.311c.911,0,1.822,0,2.732,0" transform="translate(-97.708 -332.583)" fill="#12263f"/>
        <path id="Trazado_718508" data-name="Trazado 718508" d="M109.891,422.579c-.911,0-1.822,0-2.732,0a1.16,1.16,0,1,1-.017-2.31q2.79-.005,5.58,0a1.16,1.16,0,1,1-.022,2.31c-.936,0-1.873,0-2.809,0" transform="translate(-97.708 -387.812)" fill="#12263f"/>
        <path id="Trazado_718509" data-name="Trazado 718509" d="M62.651,301.738a1.149,1.149,0,0,1-1.153,1.143,1.152,1.152,0,0,1,.02-2.3,1.146,1.146,0,0,1,1.133,1.162" transform="translate(-55.695 -277.366)" fill="#12263f"/>
        <path id="Trazado_718510" data-name="Trazado 718510" d="M62.651,361.618a1.148,1.148,0,0,1-1.135,1.161,1.152,1.152,0,0,1-.016-2.3,1.147,1.147,0,0,1,1.151,1.144" transform="translate(-55.696 -332.638)" fill="#12263f"/>
        <path id="Trazado_718511" data-name="Trazado 718511" d="M62.648,421.5a1.149,1.149,0,0,1-1.16,1.136,1.152,1.152,0,1,1,.035-2.3,1.145,1.145,0,0,1,1.125,1.168" transform="translate(-55.692 -387.872)" fill="#12263f"/>
      </g>
    </g>
  </g>
</svg>
