<svg xmlns="http://www.w3.org/2000/svg" xmlns:xlink="http://www.w3.org/1999/xlink" width="103.559" height="103.559" viewBox="0 0 103.559 103.559">
  <defs>
    <clipPath id="clip-path">
      <rect id="Rectángulo_347829" data-name="Rectángulo 347829" width="56.062" height="52.203" fill="#12263f"/>
    </clipPath>
  </defs>
  <g id="Grupo_1006701" data-name="Grupo 1006701" transform="translate(11842.319 12232.065)">
    <path id="Trazado_710607" data-name="Trazado 710607" d="M1091.8,490.259a51.779,51.779,0,1,1-51.779-51.779,51.779,51.779,0,0,1,51.779,51.779" transform="translate(-12830.557 -12670.545)" fill="#12263f"/>
    <path id="Trazado_710608" data-name="Trazado 710608" d="M1146.466,555.138a41.569,41.569,0,1,1-41.57-41.57,41.569,41.569,0,0,1,41.57,41.57" transform="translate(-12895.436 -12735.424)" fill="#fff"/>
    <g id="Grupo_1005823" data-name="Grupo 1005823" transform="translate(-11818.279 -12209.387)">
      <g id="Grupo_1005823-2" data-name="Grupo 1005823" clip-path="url(#clip-path)">
        <path id="Trazado_716627" data-name="Trazado 716627" d="M51.1,47.811a15.84,15.84,0,0,1-23.047-1.227A15.859,15.859,0,0,1,14.24,52.122,15.2,15.2,0,0,1,4.976,47.8a11.916,11.916,0,0,0,9.231,2.455,11.757,11.757,0,0,0,6.983-3.587,12.182,12.182,0,1,0-20.9-7.49A15.843,15.843,0,0,1,13.25,20.631a15.994,15.994,0,0,1,2.1-14.879A15.129,15.129,0,0,1,23.3.051a12.175,12.175,0,0,0-6.339,6.484,11.955,11.955,0,0,0-.122,9.081,12.17,12.17,0,0,0,23-.81A12.193,12.193,0,0,0,32.936,0,15.837,15.837,0,0,1,43.114,20.672,15.881,15.881,0,0,1,55.782,39.323a12.348,12.348,0,0,0-2.6-8.621,11.67,11.67,0,0,0-7.788-4.535,12.146,12.146,0,0,0-9.593,21.3,12.221,12.221,0,0,0,15.3.342m-22.862-20.9a2.412,2.412,0,1,0,2.392,2.36,2.44,2.44,0,0,0-2.392-2.36" transform="translate(0 0.001)" fill="#12263f"/>
        <path id="Trazado_716628" data-name="Trazado 716628" d="M469.275,403.508a10.584,10.584,0,0,1-1.026-2.843c-.044-.194.015-.286.2-.362a11.46,11.46,0,0,0,5.775-5.012,11.651,11.651,0,0,0,1.507-7.3c-.018-.159-.031-.319-.047-.479a8.448,8.448,0,0,1,3.183-.663,15.1,15.1,0,0,1-9.593,16.655" transform="translate(-435.86 -360.103)" fill="#12263f"/>
        <path id="Trazado_716629" data-name="Trazado 716629" d="M200.453,403.052a14.978,14.978,0,0,1-9.326-16.551c.591.105,1.187.2,1.775.322.358.076.7.225,1.058.3.285.063.313.214.3.469a19.232,19.232,0,0,0-.079,2.165,11.437,11.437,0,0,0,2.4,6.456,11.613,11.613,0,0,0,4.606,3.632c.212.095.276.18.223.433a12.448,12.448,0,0,1-.949,2.771" transform="translate(-177.704 -359.777)" fill="#12263f"/>
        <path id="Trazado_716630" data-name="Trazado 716630" d="M271.946,212.507l-2.159-2.348a14.917,14.917,0,0,1,19.006-.052,10.251,10.251,0,0,1-2.127,2.355c-4.877-3.356-9.742-3.373-14.721.044" transform="translate(-251.133 -192.41)" fill="#12263f"/>
      </g>
    </g>
  </g>
</svg>
